<?xml version="1.0" encoding="utf-8"?>
<!-- Generator: Adobe Illustrator 23.0.1, SVG Export Plug-In . SVG Version: 6.00 Build 0)  -->
<svg version="1.1" id="Layer_1" xmlns="http://www.w3.org/2000/svg" xmlns:xlink="http://www.w3.org/1999/xlink" x="0px" y="0px"
	 viewBox="0 0 16.96 18.58" style="enable-background:new 0 0 16.96 18.58;" xml:space="preserve">
<style type="text/css">
	.st0{fill:#CA463C;stroke:#000000;stroke-width:4;stroke-linejoin:round;stroke-miterlimit:10;}
	.st1{fill:#CA463C;stroke:#000000;stroke-width:4;stroke-miterlimit:10;}
	.st2{fill:#F15F3C;stroke:#000000;stroke-width:4;stroke-linejoin:round;stroke-miterlimit:10;}
	.st3{fill:none;stroke:#000000;stroke-width:4;stroke-miterlimit:10;}
	.st4{fill:#5E1642;stroke:#000000;stroke-width:4;stroke-linejoin:round;stroke-miterlimit:10;}
	.st5{fill:#5E1642;}
	.st6{fill:#310E34;stroke:#000000;stroke-width:2;stroke-linejoin:round;stroke-miterlimit:10;}
	.st7{fill:#310E34;stroke:#000000;stroke-width:2;stroke-miterlimit:10;}
	.st8{fill:#CA463C;stroke:#000000;stroke-width:2;stroke-linejoin:round;stroke-miterlimit:10;}
	.st9{fill:none;stroke:#000000;stroke-width:2;stroke-miterlimit:10;}
	.st10{fill:#F15F3C;stroke:#000000;stroke-width:2;stroke-linejoin:round;stroke-miterlimit:10;}
	.st11{fill:#F15F3C;}
	.st12{fill:none;stroke:#0A6B37;stroke-width:2;stroke-miterlimit:10;}
	.st13{fill:#310E34;}
	.st14{fill:none;stroke:#310E34;stroke-width:5;stroke-linecap:round;stroke-miterlimit:10;}
	.st15{fill:none;stroke:#310E34;stroke-width:5;stroke-linecap:round;stroke-linejoin:round;stroke-miterlimit:10;}
	.st16{fill:none;stroke:#310E34;stroke-width:0.488;stroke-linecap:round;stroke-miterlimit:10;}
	.st17{fill:none;stroke:#310E34;stroke-width:0.488;stroke-linecap:round;stroke-linejoin:round;stroke-miterlimit:10;}
</style>
<g>
	<path class="st13" d="M9.83,5.3V4.36c0-0.64-0.53-1.17-1.17-1.17H7.72c-0.64,0-1.17,0.53-1.17,1.17V5.3c0,0.49,0.3,0.9,0.72,1.08
		c-0.42,0.19-0.7,0.51-0.7,0.88c0,0.44,0.4,0.82,0.98,0.98C7.23,8.45,7.02,8.81,7.02,9.22v0.3c0,0.37,0.18,0.71,0.45,0.92
		c-0.52,0.12-0.92,0.59-0.92,1.14v2.67c0,0.64,0.53,1.17,1.17,1.17h0.93c0.64,0,1.17-0.53,1.17-1.17v-2.67
		c0-0.56-0.4-1.03-0.92-1.14c0.28-0.21,0.45-0.55,0.45-0.92v-0.3c0-0.41-0.21-0.77-0.53-0.98C9.4,8.07,9.81,7.7,9.81,7.26
		c0-0.37-0.28-0.69-0.7-0.88C9.53,6.2,9.83,5.78,9.83,5.3z"/>
	<path class="st16" d="M8.93,1.23c0.41,0.16,1.3,1.02,0.3,2.13"/>
	<path class="st16" d="M12.85,0.24C12.6,1.12,12.48,2.4,11.19,2.4c-0.72,0-1.07,1.22-1.66,2.34"/>
	<path class="st17" d="M16.08,1.34c-0.51,0.37-1.61,1.22-1.61,1.22l-0.41,2.62L11.7,6.91L8.87,6.83"/>
	<polyline class="st17" points="16.72,8.66 15.27,8.73 13.86,7.44 9.31,7.66 	"/>
	<polyline class="st17" points="14.31,18.34 12.89,16.92 12.89,12.22 9.06,9.68 	"/>
	<path class="st16" d="M7.42,1.23c-0.41,0.16-1.3,1.02-0.3,2.13"/>
	<path class="st16" d="M3.51,0.24C3.75,1.12,3.87,2.4,5.17,2.4c0.72,0,1.07,1.22,1.66,2.34"/>
	<path class="st17" d="M0.74,0.24c0.45,0.45,1.4,1.46,1.4,1.46v2.66l2.06,2.06l2.81,0.36"/>
	<polyline class="st17" points="0.24,9.92 1.67,9.7 2.79,8.16 7.3,7.44 	"/>
	<polyline class="st17" points="1.01,17.15 2.67,16.04 3.59,11.43 7.84,9.68 	"/>
</g>
</svg>
