<?xml version="1.0" encoding="utf-8"?>
<!-- Generator: Adobe Illustrator 23.0.1, SVG Export Plug-In . SVG Version: 6.00 Build 0)  -->
<svg version="1.1" id="Layer_1" xmlns="http://www.w3.org/2000/svg" xmlns:xlink="http://www.w3.org/1999/xlink" x="0px" y="0px"
	 viewBox="0 0 517.6 269.42" style="enable-background:new 0 0 517.6 269.42;" xml:space="preserve">
<style type="text/css">
	.st0{fill:#CA463C;stroke:#000000;stroke-width:4;stroke-linejoin:round;stroke-miterlimit:10;}
	.st1{fill:#CA463C;stroke:#000000;stroke-width:4;stroke-miterlimit:10;}
	.st2{fill:#F15F3C;stroke:#000000;stroke-width:4;stroke-linejoin:round;stroke-miterlimit:10;}
	.st3{fill:none;stroke:#000000;stroke-width:4;stroke-miterlimit:10;}
	.st4{fill:#5E1642;stroke:#000000;stroke-width:4;stroke-linejoin:round;stroke-miterlimit:10;}
	.st5{fill:#5E1642;}
	.st6{fill:#310E34;stroke:#000000;stroke-width:2;stroke-linejoin:round;stroke-miterlimit:10;}
	.st7{fill:#310E34;stroke:#000000;stroke-width:2;stroke-miterlimit:10;}
	.st8{fill:#CA463C;stroke:#000000;stroke-width:2;stroke-linejoin:round;stroke-miterlimit:10;}
	.st9{fill:none;stroke:#000000;stroke-width:2;stroke-miterlimit:10;}
	.st10{fill:#F15F3C;stroke:#000000;stroke-width:2;stroke-linejoin:round;stroke-miterlimit:10;}
	.st11{fill:#F15F3C;}
	.st12{fill:#310E34;}
	.st13{fill:none;stroke:#310E34;stroke-width:5;stroke-linecap:round;stroke-miterlimit:10;}
	.st14{fill:none;stroke:#310E34;stroke-width:5;stroke-linecap:round;stroke-linejoin:round;stroke-miterlimit:10;}
	.st15{fill:#CA463C;}
	.st16{fill:#972E41;}
	.st17{fill:none;stroke:#310E34;stroke-width:0.5653;stroke-linecap:round;stroke-miterlimit:10;}
	.st18{fill:none;stroke:#310E34;stroke-width:0.5653;stroke-linecap:round;stroke-linejoin:round;stroke-miterlimit:10;}
	.st19{fill:none;stroke:#5E1642;stroke-width:0.5561;stroke-linecap:round;stroke-miterlimit:10;}
	.st20{fill:none;stroke:#972E41;stroke-width:0.5561;stroke-linecap:round;stroke-miterlimit:10;}
	.st21{fill:none;stroke:#972E41;stroke-width:0.5561;stroke-linecap:round;stroke-linejoin:round;stroke-miterlimit:10;}
	.st22{fill:#972E41;stroke:#CA463C;stroke-width:0.25;stroke-miterlimit:10;}
	.st23{fill:#310E34;stroke:#5E1642;stroke-width:0.25;stroke-miterlimit:10;}
	.st24{fill:#F15F3C;stroke:#972E41;stroke-width:0.25;stroke-miterlimit:10;}
	.st25{fill:#310E34;stroke:#972E41;stroke-width:0.25;stroke-miterlimit:10;}
	.st26{clip-path:url(#SVGID_7_);}
</style>
<path class="st5" d="M515.96,193.94c-0.32,0.68-0.64,1.37-0.96,2.05c0,0,0.01,0.01,0.01,0.01c0.34-0.67,0.68-1.34,1.02-2
	C516.02,194,515.96,193.94,515.96,193.94z"/>
<g>
	<path class="st5" d="M347.99,36.99c3.25-2.45,6.88-3.83,10.91-4.53c6.99-1.21,13.32-3.93,18.83-8.6c2.77-2.35,5.91-4.34,9.1-6.12
		c6.25-3.48,10.96-1.53,12.21,5.42c2.02,11.19-2.14,20.39-10.98,27.13c-7.89,6.02-16.74,10.24-25.9,10.54
		c-1.75,1.51-2.67,2.69-3.87,3.27c-2.69,1.29-5.56,2.18-8.29,3.39c-6.51,2.88-12.98,5.85-20.2,9.12c-1.9-1.36-4.4-3.16-6.91-4.96
		c-0.18,0.14-0.36,0.28-0.54,0.42c0.43,0.68,0.73,1.51,1.31,2.02c4.36,3.86,8.8,7.63,13.16,11.49c7.44,6.59,16.74,8.7,26.04,10.51
		c21.86,4.28,43.78,7.88,66.17,8.37c16.62,0.36,33.22,1.67,49.8,2.94c7.63,0.59,15.15,2.25,21.71,6.64c3.47,2.32,5.98,5.27,6.14,9.7
		c0.1,2.9-0.64,5.29-3.74,6.27c1.26-2.95,2.14-5.86-0.93-9.29c-0.24,3.4-0.45,5.97-0.52,8.54c-0.01,0.21,1,0.45,1.54,0.68
		c-2.95,0.91-5.9,2.58-8.85,2.57c-7.28-0.04-14.57-0.73-21.83-1.4c-3.34-0.31-6.56-0.77-9.77,0.7c-1.17,0.54-2.58,0.73-3.89,0.77
		c-12.63,0.39-25.25,0.92-37.88,0.98c-5.96,0.03-11.92-1.11-17.89-1.3c-5.45-0.17-10.93,0.11-16.38,0.45
		c-1.44,0.09-2.81,1.17-4.22,1.8c0.1,0.39,0.2,0.78,0.29,1.17c2.12-0.17,4.24-0.34,6.71-0.53c0.83,5.73,4.58,8.73,9.75,10.07
		c6.73,1.75,13.44,4.1,20.3,4.7c13.89,1.22,27.03,5,40.18,9.23c9.78,3.15,19.83,5.49,29.77,8.12c7.6,2.02,14.85,4.87,21.48,9.12
		c6.51,4.17,8.6,11.52,5.16,17.52l0.06,0.06c0.45-5,0.45-5-1.82-9.01c-0.18,2.8-0.26,4.62-0.42,6.43c-0.41,4.72-2.47,6.62-7.12,6.19
		c-2.29-0.21-4.53-0.97-6.8-1.48c-13.61-3.07-27.15-6.45-40.84-9.1c-8.62-1.67-17.51-1.89-26.17-3.42c-7-1.24-13.89-3.28-20.73-5.29
		c-11.42-3.35-22.89-5.85-34.86-3.62c-1.38,0.26-2.7,0.81-3.92,2.15c1.03,0.07,2.12,0.39,3.1,0.18c11.98-2.52,22.8-0.27,32.25,7.69
		c12.94,10.9,27.82,18.82,42.07,27.72c7.9,4.93,15.48,10.39,23.03,15.85c2.24,1.62,4.05,3.93,5.74,6.17
		c1.88,2.49,2.51,5.39,1.42,8.81c-0.52-0.78-0.89-1.32-1.56-2.32c-0.32,1.03-0.48,1.74-0.75,2.41c-1.55,3.82-3.87,5.44-7.81,4.26
		c-3.59-1.07-7.28-2.64-10.23-4.91c-5.62-4.33-11.67-7.62-18.25-10.12c-2.01-0.76-4.08-1.62-5.79-2.88
		c-14.7-10.79-31.25-17.61-48.61-22.57c-8.14-2.33-16.45-4.1-24.7-6.02c-1.52-0.35-3.16-0.18-5.89-0.3
		c1.35,1.26,1.74,1.94,2.22,2.02c4.92,0.76,8.41,3.71,11.61,7.23c10.73,11.78,22.83,21.83,36.84,29.59c7.22,4,13.64,9.07,16.9,17.07
		c0.92,2.26,1.45,4.67,1.82,5.88c-2.87,1.72-4.85,2.9-6.82,4.09c0.54,0.91,1.07,1.83,1.61,2.74c-2.68-1.08-5.54-1.85-8.01-3.29
		c-8.62-5.02-17.24-10.05-25.6-15.5c-11.7-7.63-23.56-15.13-34.6-23.65c-8.02-6.19-16.55-10.18-26.31-12.34
		c-12.32-2.73-24.75-5.27-36.74-9.12c-9.75-3.14-19.14-7.65-28.31-12.31c-21.02-10.68-43.21-16.81-66.56-19.73
		c-17.13-2.14-34.14-5.31-51.15-8.32c-26.67-4.72-53.3-9.63-79.93-14.55C42.77,146.62,20.96,143.81,0,137C0,91.33,0,45.67,0,0
		c11.53,6.97,23.27,13.61,34.54,20.98c28.93,18.89,60.71,31.51,92.88,43.44c27.94,10.36,56.66,18.08,85.39,25.76
		c10.92,2.92,22.32,3.36,33.99,3.26c4.79-7.9,12.58-12.52,20.21-17.24c8.18-5.06,14.89-11.78,21.24-18.79
		c6.09-6.72,13.53-9.95,22.23-11.06c3.79-0.49,7.65-0.81,11.33-1.79c8.8-2.36,17.51-5.06,26.26-7.62c0.65,1.36,1.29,2.71,1.94,4.07
		l0,0C349.33,39.66,348.66,38.33,347.99,36.99z M405.09,208.11c6.02-4.23,7.55-6.41,7.1-11.66c-2.83,4.41-5.08,7.92-7.33,11.43
		l-0.03,0.27L405.09,208.11z M343.81,190.24c0.48,0.17,0.96,0.34,1.43,0.51c0.06-0.14,0.11-0.28,0.17-0.42
		c-0.37-0.23-0.74-0.46-1.11-0.69c-4.61-2.71-9.32-5.13-14.88-5.17C333.81,187.44,338.67,189.2,343.81,190.24z M491.42,191.41
		c0.41-0.36,0.8-0.54,0.85-0.79c0.34-1.62,0.64-3.25,0.91-4.89c1.12-6.94,4.06-8.71,10.81-6.44c1.57,0.53,3.06,1.28,4.63,1.82
		c0.98,0.33,2.03,0.45,3.05,0.67c-1.96-3.27-5.1-4.18-8.19-5.27c-4.49-1.59-8.4-0.52-11.28,2.92
		C489.21,182.98,489.09,187.17,491.42,191.41z M246.2,95.64c12.77-0.26,21.53-6.97,29.75-14.74c-5.25,1.47-9.05,5.57-13.8,7.9
		C257.18,91.25,251.96,93.2,246.2,95.64z M483.27,130.81c-0.08-0.83-0.07-1.46-0.22-2.05c-1.79-7.4,1.34-11.39,9-11.49
		c1.65-0.02,3.3-0.21,4.96-0.32c-5.79-4.08-12.09-2.54-15.38,2.92C478.7,124.75,479.14,128.3,483.27,130.81z M390.02,17.25
		c0.59,4.58,1.65,9.4-1.2,13.31c-2.57,3.53-5.91,6.51-8.82,9.63C389.2,38.9,396.45,26.31,390.02,17.25z M478.13,237.52
		c-2.46-5.41-8.03-8.4-12.72-7c-4.41,1.32-6.28,3.64-5.85,7.71c2.35-3.05,4.38-7.03,8.55-5.95
		C471.56,233.18,474.61,235.61,478.13,237.52z M425.19,262.39c0.21-0.34,0.41-0.68,0.62-1.01c-2.61-3.7-5.87-6.61-10.72-6.58
		c-2.66,0.01-4.71,1.56-5.72,4.02c3.06-0.39,6.01-1.49,8.56-0.88C420.56,258.55,422.79,260.83,425.19,262.39z M422.76,128.13
		c4.89,3.57,12.67,0.97,15.2-5.7C433.12,126.87,428.21,128.19,422.76,128.13z M463.97,123.63c0-3.29,0-6.58,0-10.43
		C461.11,117.12,460.98,120.14,463.97,123.63z M370.31,31.96c-0.43,0.18-0.86,0.37-1.28,0.55c0.23,2.89,1.4,5.26,4.75,6.48
		C372.62,36.65,371.47,34.3,370.31,31.96z M353.26,40.05c0.02,5.15,0.72,6.14,4.77,6.42C356.43,44.32,354.93,42.3,353.26,40.05z
		 M378.39,231.96c-4.53,0.1-4.97,0.53-4.69,4.42C375.3,234.87,376.65,233.6,378.39,231.96z M435.24,165.26
		c-0.46-0.21-0.92-0.42-1.38-0.62c-1.61,1.23-2.62,2.73-1.36,6.15C433.67,168.43,434.45,166.85,435.24,165.26z M429.1,121.22
		c0.43-0.06,0.86-0.12,1.29-0.18c-0.15-1.1-0.29-2.21-0.44-3.31c-0.46,0.07-0.91,0.13-1.37,0.2
		C428.76,119.02,428.93,120.12,429.1,121.22z M405.18,198.84c-0.33-0.2-0.66-0.4-1-0.61c-0.41,0.83-0.83,1.65-1.59,3.19
		c1.25-0.53,1.82-0.59,2.02-0.9C404.93,200.05,405,199.41,405.18,198.84z M471.93,180.82c0.83-1.09,1.26-1.41,1.31-1.78
		c0.06-0.45-0.21-0.94-0.34-1.41c-0.25,0.04-0.51,0.08-0.76,0.11C472.09,178.47,472.04,179.2,471.93,180.82z"/>
	<path class="st5" d="M461.01,246.03l0.05-0.04L461.01,246.03z"/>
	<path class="st5" d="M461.05,245.99l-0.05,0.04L461.05,245.99z"/>
</g>
<polygon class="st5" points="515,195.99 514.87,196.19 515,196 "/>
</svg>
