<?xml version="1.0" encoding="utf-8"?>
<!-- Generator: Adobe Illustrator 23.0.1, SVG Export Plug-In . SVG Version: 6.00 Build 0)  -->
<svg version="1.1" id="Layer_1" xmlns="http://www.w3.org/2000/svg" xmlns:xlink="http://www.w3.org/1999/xlink" x="0px" y="0px"
	 viewBox="0 0 535 275" style="enable-background:new 0 0 535 275;" xml:space="preserve">
<style type="text/css">
	.st0{fill:#CA463C;stroke:#000000;stroke-width:4;stroke-linejoin:round;stroke-miterlimit:10;}
	.st1{fill:#CA463C;stroke:#000000;stroke-width:4;stroke-miterlimit:10;}
	.st2{fill:#F15F3C;stroke:#000000;stroke-width:4;stroke-linejoin:round;stroke-miterlimit:10;}
	.st3{fill:none;stroke:#000000;stroke-width:4;stroke-miterlimit:10;}
	.st4{fill:#5E1642;stroke:#000000;stroke-width:4;stroke-linejoin:round;stroke-miterlimit:10;}
	.st5{fill:#5E1642;}
	.st6{fill:#310E34;stroke:#000000;stroke-width:2;stroke-linejoin:round;stroke-miterlimit:10;}
	.st7{fill:#310E34;stroke:#000000;stroke-width:2;stroke-miterlimit:10;}
	.st8{fill:#CA463C;stroke:#000000;stroke-width:2;stroke-linejoin:round;stroke-miterlimit:10;}
	.st9{fill:none;stroke:#000000;stroke-width:2;stroke-miterlimit:10;}
	.st10{fill:#F15F3C;stroke:#000000;stroke-width:2;stroke-linejoin:round;stroke-miterlimit:10;}
	.st11{fill:#F15F3C;}
	.st12{fill:#310E34;}
	.st13{fill:none;stroke:#310E34;stroke-width:5;stroke-linecap:round;stroke-miterlimit:10;}
	.st14{fill:none;stroke:#310E34;stroke-width:5;stroke-linecap:round;stroke-linejoin:round;stroke-miterlimit:10;}
	.st15{fill:#CA463C;}
	.st16{fill:#972E41;}
	.st17{fill:none;stroke:#310E34;stroke-width:0.5653;stroke-linecap:round;stroke-miterlimit:10;}
	.st18{fill:none;stroke:#310E34;stroke-width:0.5653;stroke-linecap:round;stroke-linejoin:round;stroke-miterlimit:10;}
	.st19{fill:none;stroke:#5E1642;stroke-width:0.5561;stroke-linecap:round;stroke-miterlimit:10;}
	.st20{fill:none;stroke:#972E41;stroke-width:0.5561;stroke-linecap:round;stroke-miterlimit:10;}
	.st21{fill:none;stroke:#972E41;stroke-width:0.5561;stroke-linecap:round;stroke-linejoin:round;stroke-miterlimit:10;}
	.st22{fill:#972E41;stroke:#CA463C;stroke-width:0.25;stroke-miterlimit:10;}
	.st23{fill:#310E34;stroke:#5E1642;stroke-width:0.25;stroke-miterlimit:10;}
	.st24{fill:#F15F3C;stroke:#972E41;stroke-width:0.25;stroke-miterlimit:10;}
	.st25{fill:#310E34;stroke:#972E41;stroke-width:0.25;stroke-miterlimit:10;}
	.st26{clip-path:url(#SVGID_7_);}
</style>
<g>
	<path class="st5" d="M0,0c17.53,9.43,35.1,18.8,52.59,28.29c14.91,8.09,29.79,16.24,44.6,24.51c9.87,5.51,20.3,9.48,31.09,12.84
		c20.84,6.51,41.52,13.53,62.24,20.42c15.99,5.32,32.32,9.05,49.14,10.32c8.28,0.62,16.59,0.75,24.89,1.05
		c5.56,0.2,10.79-1.49,15.36-4.3c12.48-7.66,26.29-12.23,39.68-17.79c4.06-1.69,7.98-3.74,11.95-5.65
		c6.54-3.15,13.23-3.54,19.84-0.49c13.02,6.01,25.98,12.15,38.89,18.4c2.87,1.39,5.66,3.17,7.31,6.6
		c-4.18,2.27-8.45,3.19-12.78,3.45c-12.77,0.78-24.39-3.2-35.53-9c-2.18-1.13-4.16-3.04-7.57-2.12c7.83,5.96,16.23,9.18,25.01,11.79
		c9.6,2.85,19.01,2.16,28.44-0.45c10.99-3.03,22.07-5.8,32.93-9.26c7.9-2.52,15.98-3.22,24.08-3.81
		c13.89-1.02,27.37-3.97,40.83-7.32c4.84-1.2,9.96-1.37,14.97-1.72c4.26-0.3,7.19,1.85,8.59,5.86c0.75,2.13,1.45,4.33,1.75,6.56
		c0.54,3.95-0.95,7.38-4.61,8.92c-5.21,2.19-10.6,4.15-16.09,5.43c-7.92,1.85-15.99,3.06-24.02,4.44
		c-10.68,1.84-20.59,6.08-30.74,9.62c-10.46,3.65-21.05,6.93-31.5,10.6c-4.9,1.72-9.69,3.81-14.38,6.05
		c-1.7,0.81-2.94,2.58-4.39,3.91c0.24,0.3,0.49,0.61,0.73,0.91c2.94-1.77,5.88-3.53,9.2-5.53c-0.28,3.72-0.52,6.86-0.78,10.27
		c-0.39,0.18-1.2,0.55-2.2,1c0.49,0.59,0.75,1.19,1.08,1.23c3.88,0.47,7.77,1.24,11.66,1.21c23.01-0.18,45.46,3.8,67.62,9.36
		c10.05,2.52,20.19,3.54,30.41,4.48c7.06,0.65,13.88,2.1,19.67,6.56c5.29,4.06,6.45,9.07,3.28,15.64c0-1.98,0.19-3.4-0.05-4.73
		c-0.25-1.33-0.94-2.58-1.86-3.83c-0.66,3.76,0.42,7.82-3.14,11.09c-5.31,1.16-10.94-0.1-16.5-1.06
		c-17.76-3.06-35.65-3.56-53.62-3.72c-17.29-0.16-34.57-1.14-51.85-1.65c-8.46-0.25-16.92-0.25-25.39-0.33
		c-0.61-0.01-1.22,0.27-1.94,1.39c1.74,0.09,3.49,0.21,5.23,0.25c1.78,0.04,3.56,0.01,5.64,0.5c-7.12,6.89-12.73,15.23-21.73,19.94
		c-3.38,1.77-6.95,2.78-10.83,2.47c-1.35-0.11-2.72-0.02-4.06,0.33c5.57,3.74,10.97,1.83,16.44-0.66
		c-4.75,10.8-12.53,11.66-21.58,9.72c-19.41-4.18-38.58-9.49-57.77-14.63c-3.37-0.9-6.58-2.95-9.47-5.02
		c-9.31-6.66-19.97-9.56-30.99-11.21c-19.18-2.86-38.41-5.36-57.63-7.99c-15.98-2.19-31.96-4.46-47.97-6.45
		c-8.57-1.06-17.23-1.41-25.8-2.43c-10.84-1.28-21.66-2.77-32.46-4.42c-19.33-2.96-38.63-6.1-57.94-9.2
		c-9.33-1.5-18.65-3.06-27.97-4.59C0,97.37,0,48.68,0,0z M513.43,80.84c0.17,1.38,0.23,2.3,0.4,3.2c1.51,7.65,0.26,9.61-7.25,11.32
		c-0.79,0.18-1.6,0.3-2.4,0.35c-7.28,0.49-9.97-1.7-11.09-8.93c-0.03-0.2-0.43-0.35-0.66-0.52c-2.06,3.62-1.09,7.11,2.78,9.66
		c5.54,3.65,11.27,2.61,16.75,0.12C517.94,93.33,518.69,86.39,513.43,80.84z M372.52,176.76c0.06-0.4,0.13-0.79,0.19-1.19
		c-1.82-0.45-3.63-1.01-5.47-1.32c-6.05-1-12.11-1.92-18.17-2.85c-2.11-0.32-4.23-0.58-6.35-0.87c-0.05,0.36-0.1,0.73-0.14,1.09
		C352.24,175.11,362.16,177.14,372.52,176.76z M526.67,171.51c-6.25-4.12-14.07-3.51-18.09,0.61c-2.63,2.7-3.22,5.63-1.67,8.29
		c0.25-0.19,0.63-0.32,0.72-0.56c3.2-8.47,5.65-9.82,14.82-8.37C523.83,171.7,525.27,171.51,526.67,171.51z M509.61,79.19
		c-3.4-2.22-8.99-0.83-13.22,3.48C501.31,81.37,505.26,80.33,509.61,79.19z M475.22,100.57c0.4-0.12,0.8-0.24,1.2-0.35
		c0.15-4.35-0.58-6.56-3.77-9.32C473.69,94.81,474.46,97.69,475.22,100.57z M449.4,161.87c-0.68,3.57-1.23,6.47-1.93,10.15
		C451.56,168.21,451.93,166.26,449.4,161.87z M442.62,111.25c5.55-0.26,7.93-2.02,8.96-6.28
		C448.63,107.03,445.97,108.9,442.62,111.25z M443.23,104.62c0.48-0.17,0.97-0.33,1.45-0.5c-0.21-2.89-1.06-5.51-3.24-7.55
		c-0.39,0.15-0.78,0.31-1.16,0.46C441.26,99.56,442.24,102.09,443.23,104.62z M444.9,176.8c0.54-0.04,1.09-0.07,1.63-0.11
		c-0.12-2.66-0.24-5.31-0.36-7.97c-0.42,0.01-0.85,0.02-1.27,0.03C444.9,171.43,444.9,174.12,444.9,176.8z M489.4,171.82
		c-0.46-0.14-0.92-0.29-1.38-0.43c-0.39,1.21-0.77,2.42-1.16,3.63c0.47,0.15,0.95,0.3,1.42,0.45
		C488.66,174.25,489.03,173.04,489.4,171.82z M439.16,103.3c0.52-0.13,1.05-0.26,1.57-0.39c-0.49-1.23-0.97-2.45-1.46-3.68
		c-0.43,0.16-0.86,0.31-1.29,0.47C438.37,100.9,438.77,102.1,439.16,103.3z"/>
</g>
</svg>
