<?xml version="1.0" encoding="utf-8"?>
<!-- Generator: Adobe Illustrator 23.0.1, SVG Export Plug-In . SVG Version: 6.00 Build 0)  -->
<svg version="1.1" id="Layer_1" xmlns="http://www.w3.org/2000/svg" xmlns:xlink="http://www.w3.org/1999/xlink" x="0px" y="0px"
	 viewBox="0 0 535 275" style="enable-background:new 0 0 535 275;" xml:space="preserve">
<style type="text/css">
	.st0{fill:#CA463C;stroke:#000000;stroke-width:4;stroke-linejoin:round;stroke-miterlimit:10;}
	.st1{fill:#CA463C;stroke:#000000;stroke-width:4;stroke-miterlimit:10;}
	.st2{fill:#F15F3C;stroke:#000000;stroke-width:4;stroke-linejoin:round;stroke-miterlimit:10;}
	.st3{fill:none;stroke:#000000;stroke-width:4;stroke-miterlimit:10;}
	.st4{fill:#5E1642;stroke:#000000;stroke-width:4;stroke-linejoin:round;stroke-miterlimit:10;}
	.st5{fill:#5E1642;}
	.st6{fill:#310E34;stroke:#000000;stroke-width:2;stroke-linejoin:round;stroke-miterlimit:10;}
	.st7{fill:#310E34;stroke:#000000;stroke-width:2;stroke-miterlimit:10;}
	.st8{fill:#CA463C;stroke:#000000;stroke-width:2;stroke-linejoin:round;stroke-miterlimit:10;}
	.st9{fill:none;stroke:#000000;stroke-width:2;stroke-miterlimit:10;}
	.st10{fill:#F15F3C;stroke:#000000;stroke-width:2;stroke-linejoin:round;stroke-miterlimit:10;}
	.st11{fill:#F15F3C;}
	.st12{fill:#310E34;}
	.st13{fill:none;stroke:#310E34;stroke-width:5;stroke-linecap:round;stroke-miterlimit:10;}
	.st14{fill:none;stroke:#310E34;stroke-width:5;stroke-linecap:round;stroke-linejoin:round;stroke-miterlimit:10;}
	.st15{fill:#CA463C;}
	.st16{fill:#972E41;}
	.st17{fill:none;stroke:#310E34;stroke-width:0.5653;stroke-linecap:round;stroke-miterlimit:10;}
	.st18{fill:none;stroke:#310E34;stroke-width:0.5653;stroke-linecap:round;stroke-linejoin:round;stroke-miterlimit:10;}
	.st19{fill:none;stroke:#5E1642;stroke-width:0.5561;stroke-linecap:round;stroke-miterlimit:10;}
	.st20{fill:none;stroke:#972E41;stroke-width:0.5561;stroke-linecap:round;stroke-miterlimit:10;}
	.st21{fill:none;stroke:#972E41;stroke-width:0.5561;stroke-linecap:round;stroke-linejoin:round;stroke-miterlimit:10;}
	.st22{fill:#972E41;stroke:#CA463C;stroke-width:0.25;stroke-miterlimit:10;}
	.st23{fill:#310E34;stroke:#5E1642;stroke-width:0.25;stroke-miterlimit:10;}
	.st24{fill:#F15F3C;stroke:#972E41;stroke-width:0.25;stroke-miterlimit:10;}
	.st25{fill:#310E34;stroke:#972E41;stroke-width:0.25;stroke-miterlimit:10;}
	.st26{clip-path:url(#SVGID_7_);}
</style>
<g>
	<path class="st5" d="M404.98,121.96c6.28-1.99,12.55-3.97,19.57-6.19c-0.14,1.79,0.17,3.67-0.49,5.1
		c-1.78,3.9-3.54,7.94-6.11,11.31c-3.59,4.73-7.91,8.9-12.53,14c-0.86-4.01-1.38-6.43-1.91-8.86c-0.48-0.02-0.95-0.03-1.43-0.05
		c1.37,5.96,0.59,11.27-4.48,15.42c2.66,1.28,3.19-0.96,4.41-1.66l-0.05-0.06c-1.81,6.62-6.51,10.04-13.49,11.39
		c2.4,2.48,4.87-0.25,6.94,1.19c-2.61,8.58-9.07,12.41-17.88,13.39c0.16,0.35,0.33,0.7,0.49,1.05c0.73,0.12,1.45,0.26,2.18,0.34
		c0.78,0.09,1.57,0.12,3.39,0.26c-2.29,3.82-4,7.18-6.19,10.18c-1.95,2.67-4.97,3.9-8.3,3.85c-3.14-0.05-6.29-0.33-9.42-0.64
		c-7.1-0.71-14.18-1.67-21.29-2.23c-12.38-0.98-24.26-3.73-35.34-9.46c-9.28-4.8-18.48-9.78-27.71-14.68c-0.5-0.16-1-0.33-1.49-0.49
		c0.25,0.44,0.51,0.87,0.76,1.31c0.37,0.52,0.74,1.03,1.63,2.28c-4.31-1.24-7.92-2.18-11.45-3.33c-7.65-2.49-15.47-3.49-23.53-3.8
		c-15.29-0.59-30.56-1.69-45.83-2.68c-9.96-0.65-19.91-1.42-29.86-2.24c-9.94-0.83-19.86-2.04-29.82-2.64
		c-20.77-1.26-41.55-2.18-62.33-3.33c-8.3-0.46-16.59-1.08-24.87-1.75c-6.63-0.53-13.31-0.84-19.84-1.95
		c-8.34-1.42-16.55-3.55-24.83-5.36C2.6,141.36,1.3,141.21,0,141C0,94,0,47,0,0c20.77,10.55,41.21,21.82,62.43,31.38
		c12.63,5.69,26.34,9.19,39.8,12.78c46.41,12.37,93.22,23.12,140.27,32.77c12.24,2.51,24.73,3.59,37.22,1.36
		c2.59-0.46,5.24-1.13,7.59-2.28c6.86-3.36,13.76-6.71,20.32-10.6c12.88-7.64,25.63-15.52,38.27-23.55
		c6.56-4.17,13.63-4.53,20.68-2.98c7.42,1.63,14.66,4.21,21.87,6.69c5.97,2.05,11.76,4.62,17.67,6.85c10.59,3.99,12.9,13,5.31,21.52
		c-0.95,1.07-2.8,1.73-4.3,1.85c-6.96,0.56-13.93,0.87-21.1,1.28c2.62-2.42,4.98-4.59,7.33-6.75c0.21-0.46,0.41-0.91,0.62-1.37
		c0,0,0.07,0.07,0.07,0.07c-0.41,0.26-0.82,0.52-1.23,0.78c-3.16,1.75-6.31,3.51-10.11,5.62c-2.45-3.18-4.6-5.96-7.32-9.5
		c-2.19,0.31-5.33,0.75-8.46,1.2c0.01,0.36,0.01,0.73,0.02,1.09c2.45,0,4.91,0,8.04,0c-0.39,3.46-0.72,6.45-1.05,9.44
		c0.34,0.11,0.67,0.22,1.01,0.33c0.71-1.59,1.43-3.17,2.46-5.46c3.24,3.81,6.29,7.38,9.74,11.43c0.13-1.77,0.23-2.98,0.36-4.69
		c11.8-0.34,23.59-0.76,35.38-0.93c1.66-0.02,3.65,0.78,4.96,1.85c7.06,5.72,11.39,18.12,2.2,27.2c-4.5,4.44-9.71,7.42-15.66,9.39
		c-3.41,1.13-7.17,1.83-9.33,5.26L404.98,121.96z M402.02,113.04c-4.13,2.11-8.26,4.23-13.21,6.76c4.92,0.02,9.46-2.54,13.16-6.81
		L402.02,113.04z M394.97,125.96c5.18-1.3,8.58-5.08,12.02-8.8c-4.35,2.45-8.65,4.98-11.97,8.85L394.97,125.96z"/>
</g>
<path class="st5" d="M451.88,192.23l-0.05-0.06L451.88,192.23z"/>
</svg>
