<?xml version="1.0" encoding="utf-8"?>
<!-- Generator: Adobe Illustrator 23.0.1, SVG Export Plug-In . SVG Version: 6.00 Build 0)  -->
<svg version="1.1" id="Layer_1" xmlns="http://www.w3.org/2000/svg" xmlns:xlink="http://www.w3.org/1999/xlink" x="0px" y="0px"
	 viewBox="0 0 545 275" style="enable-background:new 0 0 545 275;" xml:space="preserve">
<style type="text/css">
	.st0{fill:#CA463C;stroke:#000000;stroke-width:4;stroke-linejoin:round;stroke-miterlimit:10;}
	.st1{fill:#CA463C;stroke:#000000;stroke-width:4;stroke-miterlimit:10;}
	.st2{fill:#F15F3C;stroke:#000000;stroke-width:4;stroke-linejoin:round;stroke-miterlimit:10;}
	.st3{fill:none;stroke:#000000;stroke-width:4;stroke-miterlimit:10;}
	.st4{fill:#5E1642;stroke:#000000;stroke-width:4;stroke-linejoin:round;stroke-miterlimit:10;}
	.st5{fill:#5E1642;}
	.st6{fill:#310E34;stroke:#000000;stroke-width:2;stroke-linejoin:round;stroke-miterlimit:10;}
	.st7{fill:#310E34;stroke:#000000;stroke-width:2;stroke-miterlimit:10;}
	.st8{fill:#CA463C;stroke:#000000;stroke-width:2;stroke-linejoin:round;stroke-miterlimit:10;}
	.st9{fill:none;stroke:#000000;stroke-width:2;stroke-miterlimit:10;}
	.st10{fill:#F15F3C;stroke:#000000;stroke-width:2;stroke-linejoin:round;stroke-miterlimit:10;}
	.st11{fill:#F15F3C;}
	.st12{fill:#310E34;}
	.st13{fill:none;stroke:#310E34;stroke-width:5;stroke-linecap:round;stroke-miterlimit:10;}
	.st14{fill:none;stroke:#310E34;stroke-width:5;stroke-linecap:round;stroke-linejoin:round;stroke-miterlimit:10;}
	.st15{fill:#CA463C;}
	.st16{fill:#972E41;}
	.st17{fill:none;stroke:#310E34;stroke-width:0.5653;stroke-linecap:round;stroke-miterlimit:10;}
	.st18{fill:none;stroke:#310E34;stroke-width:0.5653;stroke-linecap:round;stroke-linejoin:round;stroke-miterlimit:10;}
	.st19{fill:none;stroke:#5E1642;stroke-width:0.5561;stroke-linecap:round;stroke-miterlimit:10;}
	.st20{fill:none;stroke:#972E41;stroke-width:0.5561;stroke-linecap:round;stroke-miterlimit:10;}
	.st21{fill:none;stroke:#972E41;stroke-width:0.5561;stroke-linecap:round;stroke-linejoin:round;stroke-miterlimit:10;}
	.st22{fill:#972E41;stroke:#CA463C;stroke-width:0.25;stroke-miterlimit:10;}
	.st23{fill:#310E34;stroke:#5E1642;stroke-width:0.25;stroke-miterlimit:10;}
	.st24{fill:#F15F3C;stroke:#972E41;stroke-width:0.25;stroke-miterlimit:10;}
	.st25{fill:#310E34;stroke:#972E41;stroke-width:0.25;stroke-miterlimit:10;}
	.st26{clip-path:url(#SVGID_7_);}
</style>
<g>
	<path class="st15" d="M536.13,274.67c0.5-0.28,8.36,0.26,8.87,0.01v-108.4c-6.85-1.58-34.76-3.78-41.67-4.61
		c-17.79-2.12-35.69-3.33-53.47-5.47c-13.13-1.58-26.11-4.35-39.23-6.09c-20.43-2.71-40.94-4.77-61.36-7.52
		c-21.68-2.92-41.63-10.3-58.75-24.37c-1.39-1.14-2.97-2.04-4.5-3.09c-0.46,1.07-0.79,1.84-1.6,3.71c-0.92-2.92-1.84-4.75-2.03-6.65
		c-0.63-6.41-3.2-11.95-7.08-16.95c-7.4-9.55-14.98-18.96-22.2-28.65c-4.72-6.33-10.49-11.25-17.32-15.06
		c-18.28-10.2-34.77-22.88-50.38-36.72c-3.75-3.33-7.04-7.17-10.6-10.73c-4.04-4.04-8.6-4.83-12.76-2.29
		c-4.98,3.03-7.89,10.35-5.9,15.81c3.57,9.8,9.02,18.18,17.7,24.47c10.19,7.38,20.03,15.24,29.91,23.04
		c1.93,1.52,3.48,3.6,4.95,5.61c1.33,1.82,1.8,3.91,0.12,6.41c-3.08-3.77-6.73-3.28-10.49-1.74c-4.33,1.78-8.64,3.62-12.98,5.38
		c-0.77,0.31-1.65,0.34-3.17,0.63c2.69-4.54,7.37-4.93,11.24-7.69c-9.39,0.42-13.98,4.31-13.66,11.52
		c0.21,4.66,0.65,9.51,2.11,13.89c4.63,13.87,10.52,27.24,19.07,39.2c2.59,3.63,5.97,6.73,9.22,9.84
		c3.64,3.47,7.59,6.62,11.29,10.02c0.96,0.88,1.51,2.2,2.24,3.32c-0.3,0.24-0.59,0.48-0.89,0.72c-1.32-0.93-2.73-1.76-3.95-2.8
		c-4.73-4.03-9.66-7.88-14-12.29c-3.48-3.54-6.98-7.43-9.16-11.81c-5.67-11.38-10.92-23-15.74-34.77
		c-3.75-9.15-3.86-18.48,2.05-27.31c-3.45-0.42-6.59-0.91-9.75-1.16c-14.51-1.19-28.38-4.66-41.64-10.82
		c-6.37-2.96-12.98-5.63-19.74-7.52c-15.2-4.25-30.37-8.44-44.59-15.52c-2.66-1.32-5.69-2.15-8.64-2.57
		c-3.44-0.49-7.03-0.71-10.47-0.3c-6.42,0.76-9.21,5.55-7.14,11.65c1.45,4.29,3.93,8.04,8.11,9.84c6.59,2.84,13.32,5.47,20.19,7.55
		c10.48,3.18,20.55,7.16,30.21,12.37c8.39,4.52,17.17,8.32,25.77,12.46c3.48,1.67,7.03,3.21,10.38,5.12
		c2.84,1.63,3.5,4.66,2.04,7.37c-1.43,2.65-3.75,3.4-6.88,1.81c-12.32-6.28-26-7.61-39.18-10.64c-8.14-1.86-16.58-2.37-24.79-3.99
		c-11.17-2.21-22.2-5.21-33.39-7.28c-5.18-0.96-10.69-1.13-15.93-0.57c-6.13,0.65-11.26,6.52-11.5,11.72
		c-0.28,5.86,2.46,9.3,9.77,11.61c4.79,1.51,9.7,2.66,14.58,3.86C45,112.05,60.59,116,76.25,119.65
		c12.39,2.89,24.82,5.69,37.34,7.97c6.51,1.19,12.92,1.94,17.14,7.33c1.25-0.62,2.11-1.05,3.44-1.71c-0.57,3.99-2.88,5.2-5.74,5.33
		c-6.19,0.27-12.41-0.01-18.57,0.47c-11.88,0.94-23.72,2.37-35.59,3.39c-10.86,0.93-21.78,1.34-32.62,2.48
		c-6.8,0.71-13.61,1.96-20.23,3.7c-5.1,1.34-7.09,4.91-7.14,9.74c-0.05,4.98,2.78,8.13,7.07,9.26c4.28,1.13,9.14,2.17,13.29,1.23
		c13.42-3.03,27.01-2.84,40.57-3.22c13.06-0.36,26.13-0.38,39.19-0.37c7.7,0.01,15.4,0.45,23.09,0.56c6.94,0.1,8.99,8.81,4.96,12.65
		c-2.4,2.28-5.04,4.55-7.98,5.96c-5.88,2.82-12.01,5.12-18.09,7.51c-13.1,5.14-26.3,10.01-39.29,15.4c-4.1,1.7-7.75,4.59-11.44,7.17
		c-2.41,1.68-3.14,4.24-2.45,7.16c0.72,3.06,3.04,4.74,5.73,4.91c4.12,0.26,8.54,0.5,12.4-0.68c15.69-4.8,31.19-10.22,46.8-15.27
		c10.34-3.34,20.33-8.1,31.42-8.54c7.36-0.29,14.73-0.21,22.1-0.25c2.93-0.01,5.85,0.11,9.66,0.19c-1.27-5.12-2.15-9.5-3.44-13.76
		c-5.51-18.11-11.12-36.19-16.73-54.27c-2.27-7.34-3.84-15.11-11.31-19.44c-0.1-0.06,0.06-0.57,0.15-1.22
		c3.7,0.43,6.21,2.72,7.59,5.71c2.66,5.74,5.1,11.64,7.08,17.65c5.13,15.59,10.04,31.25,14.86,46.94c1.85,6.05,3.2,12.25,4.91,18.87
		c21.02,0.41,41.9,0.48,61.58-7.46c3.21,1.02,6.21,1.97,9.21,2.92c-0.01-0.01-0.02-0.02-0.03-0.03c4.91,1.56,9.74,3.52,14.76,4.61
		c37.1,8.13,73.39,18.84,108.68,33c23.67,9.5,47.77,17.93,72.64,23.7c24.32,5.64,48.87,10.29,73.32,15.35
		C535.07,274.68,535.58,274.69,536.13,274.67z M188.98,48.76c-0.59-0.29-1.18-0.58-1.77-0.88c0.9-1.87,1.81-3.74,2.71-5.62
		c0.46,0.2,0.91,0.4,1.37,0.59C190.52,44.83,189.75,46.8,188.98,48.76z M193.48,37.61c-0.22-0.1-0.44-0.2-0.66-0.3
		c0.23-0.56,0.45-1.12,0.68-1.68c0.31,0.16,0.61,0.33,0.92,0.49C194.1,36.61,193.79,37.11,193.48,37.61z M78.22,64.54
		c-0.06-5.28,2.49-8.08,4.89-10.91C83.13,57.68,81.85,61.05,78.22,64.54z M107.27,71.85c-0.25-0.26-0.57-0.49-0.72-0.81
		c-0.05-0.11,0.31-0.42,0.48-0.63c0.19,0.22,0.39,0.44,0.58,0.66C107.5,71.33,107.39,71.59,107.27,71.85z M111.35,75.94
		c0-2.88-0.08-5.69,2.52-8.17C114.98,71.63,112.79,73.72,111.35,75.94z M51.61,105.15c-0.39-0.13-0.78-0.26-1.18-0.39
		c0.6-1.8,1.19-3.61,1.79-5.41c0.38,0.13,0.76,0.25,1.14,0.38C52.78,101.53,52.19,103.34,51.61,105.15z M88.92,114.56
		c-0.47-0.19-0.93-0.37-1.4-0.56c0.52-1.4,1.05-2.79,1.57-4.19c0.4,0.13,0.79,0.25,1.19,0.38
		C89.83,111.65,89.38,113.11,88.92,114.56z M63.16,160.08c-1.58-1.57-2.66-2.64-4.37-4.34c0.47-1.36,1.2-3.44,1.93-5.51
		C63,153.18,64.51,156.07,63.16,160.08z M101.74,156.09c-0.35-0.03-0.7-0.06-1.04-0.09c0.1-0.96,0.19-1.92,0.29-2.88
		c0.31,0.03,0.62,0.05,0.92,0.08C101.85,154.16,101.8,155.13,101.74,156.09z M106.88,211.65c-0.52-1.59-1.04-3.17-1.55-4.76
		l1.53-0.6c0.53,1.61,1.05,3.22,1.58,4.83C107.91,211.3,107.4,211.48,106.88,211.65z M126.73,205.25c-0.58-1.71-1.17-3.43-1.75-5.14
		c0.47-0.17,0.93-0.34,1.4-0.51c0.66,1.7,1.32,3.39,1.98,5.09C127.82,204.88,127.28,205.07,126.73,205.25z M152.09,195.26
		l-0.74-5.78C153.93,191.05,153.96,193.02,152.09,195.26z M142.77,92.85c-0.49-0.09-0.99-0.17-1.48-0.26
		c0.39-1.63,0.77-3.25,1.15-4.88c0.46,0.09,0.92,0.18,1.38,0.26C143.47,89.6,143.12,91.22,142.77,92.85z M236.38,141.32
		c-17.14-4.77-33.41-11.03-44.72-25.9c-6.57-8.65-6.79-18.93,0.78-28.7c-0.9,3.48-1.71,5.85-2.1,8.28
		c-2.23,13.69,6.71,26.24,16.16,30.93c8.54,4.24,17.36,7.91,26.04,11.86c1.61,0.73,3.16,1.61,5.3,2.72
		C236.64,141.18,236.48,141.35,236.38,141.32z M214.16,72.16c0.33-3.4,6.41-6.71,14.24-6.67C223.02,68.01,218.45,70.15,214.16,72.16
		z M282.33,171.37c0.41,7.14-0.5,14-4.91,20c-3.05,4.15-6.96,6.62-12.24,6.54c-0.4-0.49-0.81-0.98-1.42-1.72
		c0.65-0.33,1.19-0.84,1.72-0.83c5.84,0.12,9.2-3.27,11.59-8.06c2.45-4.93,3.12-10.15,2.68-15.59c-0.46-5.66-0.83-11.34-1.16-17.01
		c-0.06-1.02,0.28-2.07,0.44-3.1c0.35-0.03,0.7-0.06,1.06-0.09c0.31,1.13,0.79,2.25,0.9,3.4
		C281.5,160.38,282.01,165.87,282.33,171.37z"/>
</g>
</svg>
