<?xml version="1.0" encoding="utf-8"?>
<!-- Generator: Adobe Illustrator 23.0.1, SVG Export Plug-In . SVG Version: 6.00 Build 0)  -->
<svg version="1.1" id="Layer_1" xmlns="http://www.w3.org/2000/svg" xmlns:xlink="http://www.w3.org/1999/xlink" x="0px" y="0px"
	 viewBox="0 0 425.9 226.77" style="enable-background:new 0 0 425.9 226.77;" xml:space="preserve">
<style type="text/css">
	.st0{fill:#CA463C;stroke:#000000;stroke-width:4;stroke-linejoin:round;stroke-miterlimit:10;}
	.st1{fill:#CA463C;stroke:#000000;stroke-width:4;stroke-miterlimit:10;}
	.st2{fill:#F15F3C;stroke:#000000;stroke-width:4;stroke-linejoin:round;stroke-miterlimit:10;}
	.st3{fill:none;stroke:#000000;stroke-width:4;stroke-miterlimit:10;}
	.st4{fill:#5E1642;stroke:#000000;stroke-width:4;stroke-linejoin:round;stroke-miterlimit:10;}
	.st5{fill:#5E1642;}
	.st6{fill:#310E34;stroke:#000000;stroke-width:2;stroke-linejoin:round;stroke-miterlimit:10;}
	.st7{fill:#310E34;stroke:#000000;stroke-width:2;stroke-miterlimit:10;}
	.st8{fill:#CA463C;stroke:#000000;stroke-width:2;stroke-linejoin:round;stroke-miterlimit:10;}
	.st9{fill:none;stroke:#000000;stroke-width:2;stroke-miterlimit:10;}
	.st10{fill:#F15F3C;stroke:#000000;stroke-width:2;stroke-linejoin:round;stroke-miterlimit:10;}
	.st11{fill:#F15F3C;}
	.st12{fill:#310E34;}
	.st13{fill:none;stroke:#310E34;stroke-width:5;stroke-linecap:round;stroke-miterlimit:10;}
	.st14{fill:none;stroke:#310E34;stroke-width:5;stroke-linecap:round;stroke-linejoin:round;stroke-miterlimit:10;}
	.st15{fill:#CA463C;}
	.st16{fill:#972E41;}
	.st17{fill:none;stroke:#310E34;stroke-width:0.5653;stroke-linecap:round;stroke-miterlimit:10;}
	.st18{fill:none;stroke:#310E34;stroke-width:0.5653;stroke-linecap:round;stroke-linejoin:round;stroke-miterlimit:10;}
	.st19{fill:none;stroke:#5E1642;stroke-width:0.5561;stroke-linecap:round;stroke-miterlimit:10;}
	.st20{fill:none;stroke:#972E41;stroke-width:0.5561;stroke-linecap:round;stroke-miterlimit:10;}
	.st21{fill:none;stroke:#972E41;stroke-width:0.5561;stroke-linecap:round;stroke-linejoin:round;stroke-miterlimit:10;}
	.st22{fill:#972E41;stroke:#CA463C;stroke-width:0.25;stroke-miterlimit:10;}
	.st23{fill:#310E34;stroke:#5E1642;stroke-width:0.25;stroke-miterlimit:10;}
	.st24{fill:#F15F3C;stroke:#972E41;stroke-width:0.25;stroke-miterlimit:10;}
	.st25{fill:#310E34;stroke:#972E41;stroke-width:0.25;stroke-miterlimit:10;}
	.st26{clip-path:url(#SVGID_7_);}
</style>
<g>
	<path class="st15" d="M424.94,224.95v1.72c0.32,0.03,0.63,0.06,0.95,0.1c0-36.64,0.01-73.28,0.01-109.91
		c-0.4-0.13-0.79-0.27-1.18-0.42v2.68c-1.18-0.22-2.05-0.22-2.77-0.53c-9.01-3.95-18.72-4.55-28.27-5.57
		c-16.04-1.71-32.14-2.87-48.21-4.34c-18.74-1.71-37.5-2.95-56.34-2.82c-26.16,0.17-52.33,0.11-78.49-0.05
		c-5.97-0.04-12.14-0.04-17.87-1.47c-14.5-3.62-28.78-8.1-43.18-12.13c-5.04-1.41-8.5-4.59-10.63-9.13
		c-2.6-5.57-4.99-11.25-7.19-16.99c-4.76-12.42-9.18-24.97-14.06-37.34c-3.69-9.37-10.4-16.01-19.5-20.48
		c-10.03-4.93-20.61-7.69-31.65-8.2c-6.88-0.32-14.04,0.64-18.38,6.9c-3.07,4.43-5.04,9.62-7.6,14.67
		c4.61,1.98,10.09,1.88,10.96,7.92c-3.73-3.17-7.77-5.06-12.16-4.51c-4.47,5.07-8.57,9.73-13.55,15.38
		c6.07,0.66,11.05,2.01,15.83,1.49c5.15-0.56,8.91-4.33,11.15-10c1.47,3.67,0.09,5.72-1.73,7.48c-4.62,4.45-10.14,6.17-16.5,5.05
		c-2.54-0.45-5.07-0.96-8.2-1.56c1.76,5.33,5.03,7.77,9.63,8.33c4.49,0.55,8.91,0.17,13.22-1.63c8.27-3.46,14.75-8.93,19.53-16.48
		c0.93-1.47,1.95-2.88,2.93-4.32l0.73,0.34c-0.34,1.84-0.68,3.69-1.02,5.52c6,4.24,12.57,3.98,19.2,3.61
		c-7.13,5.33-13.97,1.52-21.58-1.51c2.19,7.47,2.07,13.75-2.27,19.07c2.3,7.19,1.71,14.15,1.14,21.13
		c-0.14,1.76-0.09,3.68,0.48,5.32c0.81,2.33,2.06,4.54,3.34,6.67c4.92,8.19,12.5,13.74,19.72,19.63c1.42,1.15,3.12,2.04,3.48,4.11
		c-10.93-5.21-19.47-13.11-25.96-23c-0.71,3.51-0.75,7.05-2.2,9.86c-1.41,2.74-4.27,4.74-6.62,7.21c0.77,1.09,1.64,2.3,2.49,3.51
		c5.62,8.03,3.65,14.42-5.63,17.79c-1.98,0.72-4.28,1.18-6.33,0.93c-4.37-0.54-8.66-1.64-13.25-2.56
		c-1.94,5.68-3.97,11.74-8.91,16.23c1.64-6.18,6.27-11.41,5.88-18.09c-3.73-1.48-6.32-0.36-8.85,1.58
		c-1.96,1.51-4.08,2.85-6.25,4.05c-1.53,0.85-3.1,0.86-4.1-1.49c4.33-0.63,7.53-2.72,10.12-5.83c-1.02-1.09-1.83-1.96-2.64-2.82
		c0.15-0.33,0.3-0.67,0.46-1c5.2,2.08,10.99,1.28,16.04,4.31c5,3,10.44,3.96,16.57,2.59c-1.46-2.14-4.3-3.69-2.26-6.52
		c1.58-2.19,3.37-4.23,5.07-6.34c0.29,0.17,0.57,0.34,0.86,0.51c-0.55,1.28-1.03,2.59-1.66,3.83c-0.73,1.45-1.59,2.83-2.38,4.23
		c0.67,0.76,1.04,1.36,1.57,1.72c0.64,0.44,1.42,0.67,2.02,0.94c4.72-4.11,5.2-8.36,1.39-13.19c-3.77-4.78-8.32-8.81-14.19-10.67
		c-8.86-2.81-17.84-5.26-26.81-7.73c-4.84-1.33-9.19-0.1-12.96,3.22c-0.52,0.45-1.22,0.69-2.56,1.42c1.31-4.55,4.04-6.49,7.42-6.84
		c3.76-0.39,7.73-0.44,11.4,0.34c6.82,1.45,13.54,3.42,20.18,5.56c3.61,1.16,7.11,2.85,10.39,4.77c6.07,3.54,10.44,1.97,12.37-4.8
		c2.12-7.43,0.01-13.86-6.63-18.29c-11.49-7.68-24.17-12.59-37.76-14.99c-4.74-0.84-9.4-0.32-12.6,4.04
		c-4.8,6.53-7.23,13.92-6.75,21.97c0.35,5.76,1.77,11.47-0.48,17.15c-0.48,1.21-0.49,2.61-0.71,3.92
		c-1.43,8.46-0.6,16.28,6.37,22.36c0.88,0.76,1.58,1.72,2.42,2.52c3.37,3.24,6.41,6.61,8.2,11.13c1.58,3.98,4.84,6.03,9.41,6.19
		c2.75,0.1,5.63,0.74,8.15,1.83c4.42,1.9,8.7,4.19,12.88,6.58c9.9,5.67,20.31,7.73,31.69,5.92c6.86-1.09,13.89-1.39,20.85-1.47
		c9.03-0.11,17.78,1.55,26.37,4.59c8.7,3.08,17.98,2.95,27.09,3.79c18.9,1.74,37.56,5.24,55.8,10.45
		c22.69,6.48,45.2,13.62,67.78,20.52c16.56,5.07,33.25,9.41,50.58,11c6.6,0.6,13.15,1.76,19.73,2.66
		c10.53,1.44,21.04,3.84,31.59,4.07c13.99,0.3,27.96,0.58,41.88,1.98C422.49,224.38,423.58,224.68,424.94,224.95z M61.29,91.74
		c0.42,5.11-0.1,6.12-3.84,7.99C58.73,97.07,60.01,94.4,61.29,91.74z"/>
	<path class="st15" d="M25.67,34.68c-4.4,9.84,0.93,18.15,11.92,19.16c4.38,0.4,8.57-0.39,12.69-1.91
		c5.07-1.87,12.63,1.49,14.3,6.64c2.08,6.44,1.33,13.02,0.3,20.12c-1.37-0.73-2.23-1.11-3-1.61c-12.37-8.13-25.75-13.61-40.38-16.2
		c-5.3-0.94-9.84,0.14-14.46,3.3c-2.99-4.22-2.87-9.12-3.74-13.7c-0.22-1.13-0.1-2.32-0.11-3.49c-0.13-10.4,6.06-15.7,16.28-13.87
		C21.54,33.48,23.56,34.14,25.67,34.68z"/>
	<path class="st15" d="M43.4,9.4c-2.83,7.58-6.7,14.61-11.63,21.1c-1.61,2.12-3.67,1.97-5.83,1.58c-3.9-0.71-7.78-1.52-12.29-2.41
		c-2.22-3.14-1.98-7-0.5-10.81C17.18,8.5,33.51,3.32,43.4,9.4z"/>
	<path class="st15" d="M67.07,40.71c1.29,5.11,1.15,9-2.3,12.58c-2.54-1.34-4.99-2.63-7.96-4.2C60.25,46.28,63.35,43.74,67.07,40.71
		z"/>
	<polygon class="st15" points="379.08,225.27 378.64,225.21 378.93,224.99 	"/>
</g>
</svg>
