<?xml version="1.0" encoding="utf-8"?>
<!-- Generator: Adobe Illustrator 23.0.1, SVG Export Plug-In . SVG Version: 6.00 Build 0)  -->
<svg version="1.1" id="Layer_1" xmlns="http://www.w3.org/2000/svg" xmlns:xlink="http://www.w3.org/1999/xlink" x="0px" y="0px"
	 viewBox="0 0 544.77 187.42" style="enable-background:new 0 0 544.77 187.42;" xml:space="preserve">
<style type="text/css">
	.st0{fill:#CA463C;stroke:#000000;stroke-width:4;stroke-linejoin:round;stroke-miterlimit:10;}
	.st1{fill:#CA463C;stroke:#000000;stroke-width:4;stroke-miterlimit:10;}
	.st2{fill:#F15F3C;stroke:#000000;stroke-width:4;stroke-linejoin:round;stroke-miterlimit:10;}
	.st3{fill:none;stroke:#000000;stroke-width:4;stroke-miterlimit:10;}
	.st4{fill:#5E1642;stroke:#000000;stroke-width:4;stroke-linejoin:round;stroke-miterlimit:10;}
	.st5{fill:#5E1642;}
	.st6{fill:#310E34;stroke:#000000;stroke-width:2;stroke-linejoin:round;stroke-miterlimit:10;}
	.st7{fill:#310E34;stroke:#000000;stroke-width:2;stroke-miterlimit:10;}
	.st8{fill:#CA463C;stroke:#000000;stroke-width:2;stroke-linejoin:round;stroke-miterlimit:10;}
	.st9{fill:none;stroke:#000000;stroke-width:2;stroke-miterlimit:10;}
	.st10{fill:#F15F3C;stroke:#000000;stroke-width:2;stroke-linejoin:round;stroke-miterlimit:10;}
	.st11{fill:#F15F3C;}
	.st12{fill:#310E34;}
	.st13{fill:none;stroke:#310E34;stroke-width:5;stroke-linecap:round;stroke-miterlimit:10;}
	.st14{fill:none;stroke:#310E34;stroke-width:5;stroke-linecap:round;stroke-linejoin:round;stroke-miterlimit:10;}
	.st15{fill:#CA463C;}
	.st16{fill:#972E41;}
	.st17{fill:none;stroke:#310E34;stroke-width:0.5653;stroke-linecap:round;stroke-miterlimit:10;}
	.st18{fill:none;stroke:#310E34;stroke-width:0.5653;stroke-linecap:round;stroke-linejoin:round;stroke-miterlimit:10;}
	.st19{fill:none;stroke:#5E1642;stroke-width:0.5561;stroke-linecap:round;stroke-miterlimit:10;}
	.st20{fill:none;stroke:#972E41;stroke-width:0.5561;stroke-linecap:round;stroke-miterlimit:10;}
	.st21{fill:none;stroke:#972E41;stroke-width:0.5561;stroke-linecap:round;stroke-linejoin:round;stroke-miterlimit:10;}
	.st22{fill:#972E41;stroke:#CA463C;stroke-width:0.25;stroke-miterlimit:10;}
	.st23{fill:#310E34;stroke:#5E1642;stroke-width:0.25;stroke-miterlimit:10;}
	.st24{fill:#F15F3C;stroke:#972E41;stroke-width:0.25;stroke-miterlimit:10;}
	.st25{fill:#310E34;stroke:#972E41;stroke-width:0.25;stroke-miterlimit:10;}
	.st26{clip-path:url(#SVGID_7_);}
</style>
<g>
	<path class="st15" d="M157.14,117.63c5.89,3.77,10.74,8.22,14.51,14.11c4.21,6.57,9.97,11.13,18.1,11.92
		c5.78,0.56,11.67,0.66,17.32,1.88c6.62,1.43,12.5-0.08,18.42-2.54c4.46-1.85,8.97-3.57,13.42-5.43
		c14.79-6.19,29.17-13.09,40.99-24.3c2.1-1.99,4.2-3.98,6.3-5.98c-0.58,5.26-5.04,7.31-8.49,10.74c5.43,1.03,10.4,2.09,15.42,2.89
		c7.87,1.26,15.75,2.52,23.66,3.46c7.92,0.95,15.92,1.27,23.84,2.28c13.72,1.75,27.04,5.29,40.22,9.48
		c20.12,6.39,40.2,12.96,60.54,18.59c18.26,5.06,36.68,9.47,54.64,15.65c14.77,5.08,29.74,9.56,44.62,14.32
		c1.07,0.34,2.1,0.81,2.92,1.13v1.59c0.4-0.06,0.8-0.12,1.21-0.16c0-40.22,0.01-80.43,0.01-120.65c-0.42-0.06-0.83-0.13-1.24-0.21
		v2.8c-1.87-0.32-3.33-0.56-4.78-0.83c-5.88-1.11-11.71-2.79-17.64-3.25c-16.91-1.32-33.85-2.3-50.8-3.11
		c-12.97-0.62-25.98-0.56-38.95-1.25c-7.96-0.42-15.89-1.56-23.8-2.6c-10.05-1.31-20.08-2.83-30.11-4.28
		c-8.22-1.2-16.6-1.77-24.62-3.79c-20.46-5.18-40.73-11.12-61.13-16.54c-8.54-2.27-16.09-6.16-22.9-11.73
		c-5.47-4.47-11.56-7.91-18.51-9.49c-7.19-1.64-13.96-4.25-20.38-7.9c-9.31-5.28-18.46-4.89-27.18,1.44
		c-6.6,4.79-13.21,9.58-19.64,14.59c-4.23,3.29-7.92,7.1-9.29,12.63c-2.47,9.95-3.82,20.01-3.81,30.97
		c2.53-5.98,4.61-8.48,8.29-8.56c3.93-0.09,8.02,0.19,11.78,1.24c5.42,1.52,6.5,3.54,5.97,9.26c-0.43,4.69-1.62,9.21-4.95,12.8
		c-4.15,4.47-9.43,4.74-14.96,3.92c8.2,3.7,15.85,1.81,20.7-5.6c1.98-3.01,3.41-6.48,4.55-9.92c2.02-6.05,2.35-12.38,2.15-18.74
		c-0.08-2.77-0.01-5.55-0.01-7.53c2.17-0.55,3.62-0.8,4.99-1.28c3.76-1.31,7.47-2.79,11.25-4.04c0.87-0.29,1.95,0.07,2.93,0.13
		c-1.68,1.43-3.35,2.12-5.05,2.76c-1.71,0.64-3.48,1.15-5.16,1.86c-6.67,2.81-7.42,4.39-5.64,12.05c1.52-0.72,2.94-1.61,4.49-2.07
		c3.96-1.16,7.92-2.48,11.97-3.09c5.23-0.79,8.97,1.77,11.2,6.51c2.21,4.72,1.43,9.05-1.79,13.03c-0.81,1-1.72,1.91-2.64,2.93
		c3.97,1.85,7.63,2.48,11.78,1.83c5.83-0.91,8.54-0.34,11.32,0.98c-4.85,0.59-9.54,1.17-14.52,1.77c0.34,1.15,0.49,1.77,0.72,2.37
		c2.98,7.63,2.17,11.57-3.81,16.88c-3.11,2.76-6.37,5.35-9.64,7.92c-4.8,3.77-9.67,7.45-14.73,11.34c1.29,1.54,2.21,2.7,3.19,3.8
		c4.58,5.16,6.27,11.24,5.65,18.01c-0.25,2.71-1.02,3.62-3.6,4.73c2.5-10.12-0.09-19.61-7.01-24.46c-3.47,3.6-7.33,6.71-7.49,12.64
		c-0.1,3.65-1.46,7.24-5.74,9.87c1.35-3.6,2.39-6.4,3.43-9.19c-0.25-0.12-0.5-0.25-0.75-0.37l-4.95,3.46
		c0.1-1.66,0.71-2.76,1.52-3.69c9.87-11.29,19.53-22.78,32.96-30.21c4.01-2.22,7.12-5.5,9.11-9.69c2.13-4.49,0.8-10.33-2.87-13.14
		c-3.34-2.56-7.57-2.02-11.89,0.93c-6.32,4.31-12.78,8.44-19.28,12.47c-8.62,5.35-17.6,10.11-25.31,16.86
		c-3.84,3.36-7.25,6.87-8.28,12.11c-0.14,0.7-0.73,1.31-1.49,2.6c-1.39-3.17-0.42-5.48,0.93-7.1c3.82-4.57,7.48-9.53,12.18-13.04
		c7.71-5.75,16.29-10.33,24.32-15.67c6.68-4.44,13.11-9.26,19.65-13.92c-0.64,0.29-1.29,0.56-1.9,0.91
		c-7.91,4.56-14.52,0.81-14.62-9c0.91,1.45,1.81,2.9,2.72,4.35c3.11,4.96,5.82,5.66,10.71,2.29c2.58-1.78,4.78-4.12,7.16-6.19
		c0.97-0.84,1.91-2.15,3.29-0.53l-0.06-0.08c-0.01-1.95-0.02-3.9-0.03-5.84l0.06-0.06c-1.14-0.22-2.67-0.05-3.35-0.73
		c-4.35-4.31-8.28-3.67-13.28-0.2c-2.08,1.45-4.16,2.89-7.13,4.97c1.06-4.68,4.3-5.92,6.54-8c-6.29,1.33-10.27,4.88-10.99,11.57
		c-0.11,0.99-0.33,1.96-0.53,2.94c-1.19,5.85-3.72,11.05-7.86,15.34c-4.96,5.14-10.88,6.43-17.83,4.61
		c-5.04-1.32-8.18-4.66-10.83-8.67c-3.51,1.93-6.83,3.51-9.91,5.48C146.52,90.1,141.3,107.48,157.14,117.63z M215.95,81.44
		c1.1,2.05,2,3.69,2.87,5.36c2.69,5.16,5.71,6.84,9.27,5.11c4.1-1.99,6.49-7.66,4.77-11.9c-0.79-1.94-2.1-3.66-2.85-5.81
		c2.29,0.53,3.75,2.1,4.64,4.17c2.19,5.08,0.08,11.94-4.53,15.12c-3.01,2.07-6.76,2.38-9.11-0.3c-2.55-2.9-4.18-6.61-6.14-10.01
		C214.76,83.01,215.31,82.45,215.95,81.44z"/>
	<path class="st15" d="M145.81,94.57c-12.17-5.33-23.89-2.4-35.54-0.94c-13.52,1.7-27,3.7-40.49,5.65
		c-10.2,1.47-20.35,3.29-30.57,4.5c-9.73,1.15-19.53,1.78-29.31,2.47c-1.94,0.14-4.11-0.09-5.85-0.87
		c-1.47-0.65-3.32-2.19-3.56-3.59c-1.26-7.35-0.58-13.65,8.14-16.36c5.67-1.76,11.68-2.49,17.58-3.41
		c21.34-3.32,42.68-6.61,64.05-9.72c7.4-1.08,14.89-1.51,22.32-2.38c3.29-0.38,6.59-0.9,9.79-1.76c7.75-2.07,10.32-8.42,6.51-15.66
		c-1.89-3.58-5.04-5.78-8.67-7.17c-3.87-1.49-7.81-2.91-11.84-3.85c-19.73-4.64-39.49-9.14-59.25-13.61
		c-5.83-1.32-11.84-1.96-17.54-3.67c-3.89-1.16-7.61-3.3-10.98-5.62c-1.91-1.32-3.46-3.71-4.27-5.95
		C14.39,7.31,17.31,2.42,23.5,1.26c5.01-0.94,10.36-1.7,15.33-0.97c18.58,2.71,37.12,5.75,55.56,9.27
		c12.22,2.34,24.19,5.91,36.35,8.57c11.77,2.58,23.75,2.92,35.76,2.24c4.48-0.26,8.96-0.5,14.05-0.79
		c-9.32,6.87-10.97,16.84-11.97,26.88c-0.79,7.93-0.95,15.94-1.05,23.92c-0.04,3.08-1.12,4.96-3.74,6.37
		c-2.63,1.41-5.13,3.07-7.64,4.71C151.48,84.51,147.34,88.04,145.81,94.57z"/>
	<path class="st15" d="M169.72,72.71c0.42,0.51,0.84,1.02,1.68,2.03c0.23-2.85,0.38-5.31,0.63-7.76c0.72-7.07,3.84-9.9,10.84-9.24
		c10.88,1.03,12.61,2.99,9.41,14.11c-2.08,7.22-7.88,10.04-15.78,8.35c-1.33-0.29-2.76-1.76-3.79,0.44l0.06-0.06
		c-2.56-2.05-2.88-4.95-2.99-7.92L169.72,72.71z"/>
	<path class="st15" d="M230.73,64.61c-1.33,1.33-2.65,2.65-3.98,3.98c0,0,0.04,0.06,0.04,0.06c1.34-1.33,2.67-2.66,4.01-4
		L230.73,64.61z"/>
	<path class="st15" d="M229.79,51.59c-0.76-0.36-1.51-0.72-2.27-1.08c0.12-0.18,0.24-0.35,0.36-0.53c0.62,0.55,1.24,1.11,1.86,1.66
		L229.79,51.59z"/>
	<path class="st15" d="M169.77,72.67c-0.22-0.9-0.44-1.8-0.67-2.7c0.16-0.03,0.32-0.06,0.49-0.09c0.04,0.94,0.09,1.89,0.13,2.83
		L169.77,72.67z"/>
	<path class="st15" d="M232.81,55.66c-0.66-1.01-1.32-2.02-1.98-3.04c0,0-0.05,0.05-0.05,0.05c0.66,1.01,1.31,2.03,1.97,3.04
		L232.81,55.66z"/>
	<path class="st15" d="M232.77,61.56c-0.68,1.02-1.36,2.03-2.04,3.05c0,0,0.07,0.04,0.07,0.04c0.68-1,1.35-2.01,2.03-3.01
		C232.83,61.64,232.77,61.56,232.77,61.56z"/>
	<polygon class="st15" points="217.86,50.67 218.15,50.45 217.8,50.62 	"/>
	<path class="st15" d="M217.8,50.62c-0.7,0.33-1.41,0.65-2.11,0.98c0,0,0.06,0.06,0.06,0.06c0.7-0.33,1.41-0.66,2.11-0.99
		C217.86,50.67,217.8,50.62,217.8,50.62z"/>
	<polygon class="st15" points="143.79,96.6 143.42,96.45 143.74,96.64 	"/>
	<path class="st15" d="M175.87,82.6c-0.67-0.32-1.35-0.65-2.02-0.97l-0.06,0.05c0.67,0.33,1.35,0.65,2.02,0.98L175.87,82.6z"/>
	<path class="st15" d="M172.71,80.64c0.36,0.35,0.72,0.69,1.08,1.04l0.06-0.05c-0.36-0.35-0.72-0.7-1.08-1.05L172.71,80.64z"/>
	<path class="st15" d="M226.75,68.59c-0.34,0.34-0.68,0.69-1.02,1.03c0,0,0.06,0.04,0.06,0.04c0.33-0.34,0.66-0.67,0.99-1.01
		C226.8,68.65,226.75,68.59,226.75,68.59z"/>
	<path class="st15" d="M229.74,51.65c0.34,0.34,0.69,0.69,1.03,1.03c0,0,0.05-0.05,0.05-0.05c-0.34-0.34-0.69-0.69-1.03-1.03
		C229.79,51.59,229.74,51.65,229.74,51.65z"/>
	<path class="st15" d="M143.74,96.64l0.05-0.05L143.74,96.64z"/>
</g>
</svg>
