<svg enable-background="new 0 0 435.25 192.63" viewBox="0 0 435.25 192.63" xmlns="http://www.w3.org/2000/svg"><g fill="#5e1642"><path d="m404.98 121.96c6.28-1.99 12.55-3.97 19.57-6.19-.14 1.79.17 3.67-.49 5.1-1.78 3.9-3.54 7.94-6.11 11.31-3.59 4.73-7.91 8.9-12.53 14-.86-4.01-1.38-6.43-1.91-8.86-.48-.02-.95-.03-1.43-.05 1.37 5.96.59 11.27-4.48 15.42 2.66 1.28 3.19-.96 4.41-1.66l-.05-.06c-1.81 6.62-6.51 10.04-13.49 11.39 2.4 2.48 4.87-.25 6.94 1.19-2.61 8.58-9.07 12.41-17.88 13.39.16.35.33.7.49 1.05.73.12 1.45.26 2.18.34.78.09 1.57.12 3.39.26-2.29 3.82-4 7.18-6.19 10.18-1.95 2.67-4.97 3.9-8.3 3.85-3.14-.05-6.29-.33-9.42-.64-7.1-.71-14.18-1.67-21.29-2.23-12.38-.98-24.26-3.73-35.34-9.46-9.28-4.8-18.48-9.78-27.71-14.68-.5-.16-1-.33-1.49-.49.25.44.51.87.76 1.31.37.52.74 1.03 1.63 2.28-4.31-1.24-7.92-2.18-11.45-3.33-7.65-2.49-15.47-3.49-23.53-3.8-15.29-.59-30.56-1.69-45.83-2.68-9.96-.65-19.91-1.42-29.86-2.24-9.94-.83-19.86-2.04-29.82-2.64-20.77-1.26-41.55-2.18-62.33-3.33-8.3-.46-16.59-1.08-24.87-1.75-6.63-.53-13.31-.84-19.84-1.95-8.34-1.42-16.55-3.55-24.83-5.36-1.28-.27-2.58-.42-3.88-.63 0-47 0-94 0-141 20.77 10.55 41.21 21.82 62.43 31.38 12.63 5.69 26.34 9.19 39.8 12.78 46.41 12.37 93.22 23.12 140.27 32.77 12.24 2.51 24.73 3.59 37.22 1.36 2.59-.46 5.24-1.13 7.59-2.28 6.86-3.36 13.76-6.71 20.32-10.6 12.88-7.64 25.63-15.52 38.27-23.55 6.56-4.17 13.63-4.53 20.68-2.98 7.42 1.63 14.66 4.21 21.87 6.69 5.97 2.05 11.76 4.62 17.67 6.85 10.59 3.99 12.9 13 5.31 21.52-.95 1.07-2.8 1.73-4.3 1.85-6.96.56-13.93.87-21.1 1.28 2.62-2.42 4.98-4.59 7.33-6.75.21-.46.41-.91.62-1.37 0 0 .07.07.07.07-.41.26-.82.52-1.23.78-3.16 1.75-6.31 3.51-10.11 5.62-2.45-3.18-4.6-5.96-7.32-9.5-2.19.31-5.33.75-8.46 1.2.01.36.01.73.02 1.09h8.04c-.39 3.46-.72 6.45-1.05 9.44.34.11.67.22 1.01.33.71-1.59 1.43-3.17 2.46-5.46 3.24 3.81 6.29 7.38 9.74 11.43.13-1.77.23-2.98.36-4.69 11.8-.34 23.59-.76 35.38-.93 1.66-.02 3.65.78 4.96 1.85 7.06 5.72 11.39 18.12 2.2 27.2-4.5 4.44-9.71 7.42-15.66 9.39-3.41 1.13-7.17 1.83-9.33 5.26zm-2.96-8.92c-4.13 2.11-8.26 4.23-13.21 6.76 4.92.02 9.46-2.54 13.16-6.81zm-7.05 12.92c5.18-1.3 8.58-5.08 12.02-8.8-4.35 2.45-8.65 4.98-11.97 8.85z"/><path d="m402.01 151.04-.05-.06z"/></g></svg>