<?xml version="1.0" encoding="utf-8"?>
<!-- Generator: Adobe Illustrator 23.0.1, SVG Export Plug-In . SVG Version: 6.00 Build 0)  -->
<svg version="1.1" id="Layer_1" xmlns="http://www.w3.org/2000/svg" xmlns:xlink="http://www.w3.org/1999/xlink" x="0px" y="0px"
	 viewBox="0 0 545.81 217.11" style="enable-background:new 0 0 545.81 217.11;" xml:space="preserve">
<style type="text/css">
	.st0{fill:#CA463C;stroke:#000000;stroke-width:4;stroke-linejoin:round;stroke-miterlimit:10;}
	.st1{fill:#CA463C;stroke:#000000;stroke-width:4;stroke-miterlimit:10;}
	.st2{fill:#F15F3C;stroke:#000000;stroke-width:4;stroke-linejoin:round;stroke-miterlimit:10;}
	.st3{fill:none;stroke:#000000;stroke-width:4;stroke-miterlimit:10;}
	.st4{fill:#5E1642;stroke:#000000;stroke-width:4;stroke-linejoin:round;stroke-miterlimit:10;}
	.st5{fill:#5E1642;}
	.st6{fill:#310E34;stroke:#000000;stroke-width:2;stroke-linejoin:round;stroke-miterlimit:10;}
	.st7{fill:#310E34;stroke:#000000;stroke-width:2;stroke-miterlimit:10;}
	.st8{fill:#CA463C;stroke:#000000;stroke-width:2;stroke-linejoin:round;stroke-miterlimit:10;}
	.st9{fill:none;stroke:#000000;stroke-width:2;stroke-miterlimit:10;}
	.st10{fill:#F15F3C;stroke:#000000;stroke-width:2;stroke-linejoin:round;stroke-miterlimit:10;}
	.st11{fill:#F15F3C;}
	.st12{fill:#310E34;}
	.st13{fill:none;stroke:#310E34;stroke-width:5;stroke-linecap:round;stroke-miterlimit:10;}
	.st14{fill:none;stroke:#310E34;stroke-width:5;stroke-linecap:round;stroke-linejoin:round;stroke-miterlimit:10;}
	.st15{fill:#CA463C;}
	.st16{fill:#972E41;}
	.st17{fill:none;stroke:#310E34;stroke-width:0.5653;stroke-linecap:round;stroke-miterlimit:10;}
	.st18{fill:none;stroke:#310E34;stroke-width:0.5653;stroke-linecap:round;stroke-linejoin:round;stroke-miterlimit:10;}
	.st19{fill:none;stroke:#5E1642;stroke-width:0.5561;stroke-linecap:round;stroke-miterlimit:10;}
	.st20{fill:none;stroke:#972E41;stroke-width:0.5561;stroke-linecap:round;stroke-miterlimit:10;}
	.st21{fill:none;stroke:#972E41;stroke-width:0.5561;stroke-linecap:round;stroke-linejoin:round;stroke-miterlimit:10;}
	.st22{fill:#972E41;stroke:#CA463C;stroke-width:0.25;stroke-miterlimit:10;}
	.st23{fill:#310E34;stroke:#5E1642;stroke-width:0.25;stroke-miterlimit:10;}
	.st24{fill:#F15F3C;stroke:#972E41;stroke-width:0.25;stroke-miterlimit:10;}
	.st25{fill:#310E34;stroke:#972E41;stroke-width:0.25;stroke-miterlimit:10;}
	.st26{clip-path:url(#SVGID_7_);}
</style>
<g>
	<path class="st5" d="M0,0c17.89,9.62,35.81,19.18,53.66,28.87c15.21,8.25,30.39,16.57,45.5,25.01c10.07,5.62,20.71,9.67,31.72,13.1
		c21.26,6.64,42.36,13.8,63.5,20.84c16.31,5.43,32.97,9.24,50.13,10.53c8.44,0.63,16.92,0.77,25.39,1.07
		c5.68,0.21,11.01-1.52,15.67-4.38c12.73-7.82,26.82-12.47,40.48-18.14c4.15-1.72,8.14-3.82,12.19-5.77
		c6.68-3.22,13.5-3.61,20.24-0.5c13.29,6.13,26.51,12.4,39.68,18.77c2.93,1.42,5.78,3.23,7.46,6.73c-4.27,2.31-8.62,3.25-13.04,3.52
		c-13.03,0.8-24.88-3.27-36.24-9.19c-2.22-1.16-4.24-3.11-7.72-2.16c7.99,6.08,16.56,9.37,25.52,12.03
		c9.79,2.91,19.39,2.2,29.02-0.46c11.22-3.09,22.52-5.92,33.6-9.45c8.06-2.57,16.31-3.28,24.57-3.89
		c14.17-1.04,27.92-4.05,41.65-7.47c4.93-1.23,10.16-1.39,15.27-1.76c4.34-0.31,7.33,1.89,8.77,5.98c0.76,2.18,1.48,4.42,1.79,6.69
		c0.55,4.03-0.97,7.53-4.7,9.1c-5.32,2.23-10.81,4.23-16.42,5.54c-8.08,1.89-16.32,3.12-24.5,4.53c-10.9,1.88-21.01,6.2-31.36,9.82
		c-10.67,3.73-21.48,7.07-32.14,10.81c-5,1.75-9.89,3.88-14.67,6.17c-1.73,0.83-3,2.63-4.47,3.99c0.25,0.31,0.5,0.62,0.75,0.93
		c3-1.8,6-3.61,9.38-5.64c-0.29,3.8-0.53,7-0.8,10.48c-0.4,0.18-1.23,0.56-2.25,1.02c0.5,0.6,0.77,1.22,1.1,1.26
		c3.96,0.48,7.93,1.26,11.89,1.23c23.47-0.18,46.37,3.88,68.99,9.55c10.25,2.57,20.6,3.61,31.03,4.57
		c7.2,0.66,14.16,2.15,20.07,6.69c5.39,4.15,6.58,9.25,3.35,15.95c0-2.02,0.2-3.46-0.06-4.82c-0.25-1.36-0.96-2.63-1.9-3.91
		c-0.67,3.83,0.43,7.98-3.2,11.31c-5.42,1.19-11.16-0.1-16.84-1.08c-18.12-3.12-36.38-3.63-54.71-3.8
		c-17.64-0.16-35.27-1.17-52.9-1.69c-8.63-0.25-17.27-0.26-25.9-0.34c-0.62-0.01-1.25,0.28-1.98,1.42c1.78,0.09,3.56,0.21,5.34,0.25
		c1.81,0.04,3.63,0.01,5.75,0.51c-7.26,7.02-12.98,15.54-22.17,20.35c-3.45,1.81-7.09,2.84-11.05,2.52
		c-1.38-0.11-2.77-0.02-4.15,0.34c5.69,3.82,11.19,1.86,16.77-0.67c-4.84,11.01-12.78,11.9-22.02,9.91
		c-19.8-4.26-39.36-9.68-58.94-14.93c-3.44-0.92-6.71-3.01-9.66-5.12c-9.5-6.8-20.37-9.76-31.62-11.43
		c-19.57-2.92-39.19-5.47-58.79-8.15c-16.31-2.23-32.6-4.56-48.94-6.58c-8.74-1.09-17.57-1.44-26.32-2.48
		c-11.06-1.31-22.1-2.82-33.11-4.51c-19.72-3.02-39.41-6.23-59.11-9.39C19.02,152.16,9.51,150.56,0,149C0,99.33,0,49.67,0,0z
		 M523.81,82.48c0.17,1.41,0.23,2.35,0.41,3.26c1.54,7.8,0.27,9.8-7.4,11.54c-0.8,0.18-1.63,0.31-2.45,0.36
		c-7.42,0.5-10.18-1.73-11.31-9.11c-0.03-0.21-0.44-0.36-0.67-0.53c-2.1,3.69-1.11,7.26,2.83,9.86c5.65,3.73,11.5,2.66,17.09,0.12
		C528.41,95.21,529.18,88.13,523.81,82.48z M380.05,180.33c0.07-0.4,0.13-0.81,0.2-1.21c-1.86-0.46-3.7-1.03-5.58-1.35
		c-6.17-1.02-12.35-1.96-18.53-2.91c-2.15-0.33-4.32-0.59-6.48-0.89c-0.05,0.37-0.1,0.74-0.15,1.11
		C359.36,178.65,369.48,180.72,380.05,180.33z M537.32,174.98c-6.37-4.21-14.36-3.58-18.45,0.62c-2.68,2.76-3.29,5.75-1.71,8.46
		c0.25-0.19,0.65-0.32,0.74-0.57c3.27-8.64,5.76-10.02,15.12-8.54C534.42,175.17,535.88,174.98,537.32,174.98z M519.91,80.79
		c-3.47-2.27-9.17-0.84-13.49,3.55C511.45,83.02,515.47,81.96,519.91,80.79z M484.83,102.6c0.41-0.12,0.82-0.24,1.22-0.36
		c0.15-4.44-0.59-6.69-3.84-9.51C483.27,96.72,484.05,99.66,484.83,102.6z M458.48,165.14c-0.69,3.64-1.26,6.61-1.97,10.35
		C460.69,171.61,461.07,169.62,458.48,165.14z M451.57,113.49c5.66-0.27,8.09-2.06,9.14-6.41
		C457.7,109.19,454.98,111.1,451.57,113.49z M452.19,106.74c0.49-0.17,0.99-0.34,1.48-0.51c-0.21-2.95-1.09-5.62-3.3-7.7
		c-0.4,0.16-0.79,0.32-1.19,0.47C450.18,101.58,451.18,104.16,452.19,106.74z M453.9,180.37c0.56-0.04,1.11-0.08,1.67-0.11
		c-0.12-2.71-0.25-5.42-0.37-8.13c-0.43,0.01-0.87,0.02-1.3,0.04C453.9,174.9,453.9,177.64,453.9,180.37z M499.29,175.3
		c-0.47-0.15-0.94-0.29-1.41-0.44c-0.39,1.24-0.79,2.47-1.18,3.71c0.48,0.15,0.97,0.3,1.45,0.45
		C498.54,177.78,498.92,176.54,499.29,175.3z M448.04,105.39c0.53-0.13,1.07-0.27,1.6-0.4c-0.5-1.25-0.99-2.5-1.49-3.75
		c-0.44,0.16-0.88,0.32-1.32,0.48C447.23,102.94,447.64,104.17,448.04,105.39z"/>
</g>
</svg>
