<?xml version="1.0" encoding="utf-8"?>
<!-- Generator: Adobe Illustrator 23.0.1, SVG Export Plug-In . SVG Version: 6.00 Build 0)  -->
<svg version="1.1" id="Layer_1" xmlns="http://www.w3.org/2000/svg" xmlns:xlink="http://www.w3.org/1999/xlink" x="0px" y="0px"
	 viewBox="0 0 408 408" style="enable-background:new 0 0 408 408;" xml:space="preserve">
<style type="text/css">
	.st0{fill:#CA463C;stroke:#000000;stroke-width:4;stroke-linejoin:round;stroke-miterlimit:10;}
	.st1{fill:#CA463C;stroke:#000000;stroke-width:4;stroke-miterlimit:10;}
	.st2{fill:#F15F3C;stroke:#000000;stroke-width:4;stroke-linejoin:round;stroke-miterlimit:10;}
	.st3{fill:none;stroke:#000000;stroke-width:4;stroke-miterlimit:10;}
	.st4{fill:#5E1642;stroke:#000000;stroke-width:4;stroke-linejoin:round;stroke-miterlimit:10;}
	.st5{fill:#5E1642;}
	.st6{fill:#310E34;stroke:#000000;stroke-width:2;stroke-linejoin:round;stroke-miterlimit:10;}
	.st7{fill:#310E34;stroke:#000000;stroke-width:2;stroke-miterlimit:10;}
	.st8{fill:#CA463C;stroke:#000000;stroke-width:2;stroke-linejoin:round;stroke-miterlimit:10;}
	.st9{fill:none;stroke:#000000;stroke-width:2;stroke-miterlimit:10;}
	.st10{fill:#F15F3C;stroke:#000000;stroke-width:2;stroke-linejoin:round;stroke-miterlimit:10;}
	.st11{fill:#F15F3C;}
	.st12{fill:#310E34;}
	.st13{fill:none;stroke:#310E34;stroke-width:5;stroke-linecap:round;stroke-miterlimit:10;}
	.st14{fill:none;stroke:#310E34;stroke-width:5;stroke-linecap:round;stroke-linejoin:round;stroke-miterlimit:10;}
	.st15{fill:#CA463C;}
	.st16{fill:#972E41;}
	.st17{fill:none;stroke:#310E34;stroke-width:0.5653;stroke-linecap:round;stroke-miterlimit:10;}
	.st18{fill:none;stroke:#310E34;stroke-width:0.5653;stroke-linecap:round;stroke-linejoin:round;stroke-miterlimit:10;}
	.st19{fill:none;stroke:#5E1642;stroke-width:0.5561;stroke-linecap:round;stroke-miterlimit:10;}
	.st20{fill:none;stroke:#972E41;stroke-width:0.5561;stroke-linecap:round;stroke-miterlimit:10;}
	.st21{fill:none;stroke:#972E41;stroke-width:0.5561;stroke-linecap:round;stroke-linejoin:round;stroke-miterlimit:10;}
	.st22{fill:#972E41;stroke:#CA463C;stroke-width:0.25;stroke-miterlimit:10;}
	.st23{fill:#310E34;stroke:#5E1642;stroke-width:0.25;stroke-miterlimit:10;}
	.st24{fill:#F15F3C;stroke:#972E41;stroke-width:0.25;stroke-miterlimit:10;}
	.st25{fill:#310E34;stroke:#972E41;stroke-width:0.25;stroke-miterlimit:10;}
	.st26{clip-path:url(#SVGID_4_);}
</style>
<g>
	<g>
		<g>
			<path class="st15" d="M73.72,246.73l-2.75-5.41c-1.9-3.74-6.51-5.24-10.25-3.34l-5.41,2.75c-3.74,1.9-5.24,6.51-3.34,10.25
				l2.75,5.41c1.43,2.82,4.41,4.36,7.39,4.14c-1.89,2.37-2.56,5.05-1.48,7.17c1.3,2.55,4.75,3.55,8.57,2.8
				c-1.24,2.16-1.42,4.89-0.21,7.27l0.87,1.72c1.1,2.17,3.12,3.58,5.35,4.01c-2.7,2.22-3.61,6.11-1.97,9.34l7.87,15.49
				c1.9,3.74,6.51,5.24,10.25,3.34l5.41-2.75c3.74-1.9,5.24-6.51,3.34-10.25l-7.87-15.49c-1.64-3.24-5.32-4.79-8.71-3.92
				c0.96-2.06,1.01-4.52-0.09-6.69l-0.87-1.72c-1.21-2.38-3.51-3.84-5.99-4.11c2.86-2.64,4.09-6.02,2.79-8.57
				c-1.08-2.12-3.64-3.17-6.67-3.03C74.65,252.87,75.16,249.55,73.72,246.73z"/>
		</g>
		<g>
			<path class="st15" d="M64.53,238.84c-0.14,0-0.28-0.02-0.42-0.06c-0.85-0.23-1.35-1.1-1.12-1.95c0.83-3.05,0.53-5.45-0.88-7.14
				c-1.67-1.99-4.39-2.44-5.44-2.34c-0.87,0.09-1.64-0.57-1.72-1.44c-0.08-0.87,0.57-1.65,1.44-1.72c1.98-0.19,5.76,0.6,8.16,3.46
				c1.46,1.74,2.9,4.88,1.51,10.01C65.87,238.37,65.23,238.84,64.53,238.84z"/>
		</g>
		<g>
			<path class="st15" d="M70.33,245.97c-0.01,0-0.01,0-0.02,0c-0.88-0.01-1.58-0.73-1.57-1.61c0.02-1.87-0.04-3.73-0.1-5.52
				c-0.22-6.59-0.41-12.28,3.7-14.36c5.04-2.56,4.46-6.91,2.99-13.24c-0.19-0.83-0.38-1.64-0.53-2.42c-0.17-0.86,0.39-1.7,1.25-1.87
				c0.85-0.18,1.7,0.39,1.87,1.25c0.15,0.74,0.33,1.52,0.51,2.32c1.26,5.45,2.99,12.91-4.64,16.79c-2.31,1.17-2.14,6.15-1.96,11.43
				c0.06,1.83,0.12,3.74,0.1,5.66C71.91,245.27,71.2,245.97,70.33,245.97z"/>
		</g>
		<g>
			<path class="st15" d="M75.26,258.4c-0.51,0-1.01-0.24-1.31-0.69c-0.49-0.72-0.31-1.71,0.42-2.21l14.79-10.09l5.51-16.91
				l-7.53-14.82c-0.18-0.36-0.22-0.78-0.11-1.17c0.02-0.09,2.58-8.72,3.85-12.63c0.27-0.83,1.17-1.29,2-1.02
				c0.83,0.27,1.29,1.17,1.02,2c-1.06,3.27-3.04,9.91-3.65,11.94l7.54,14.84c0.19,0.37,0.22,0.81,0.09,1.21L92,246.9
				c-0.11,0.33-0.32,0.62-0.61,0.82l-15.24,10.4C75.87,258.31,75.56,258.4,75.26,258.4z"/>
		</g>
		<g>
			<path class="st15" d="M78.18,264.15c-0.58,0-1.14-0.32-1.42-0.87c-0.4-0.78-0.09-1.74,0.7-2.13l26.46-13.45
				c0.37-0.19,0.81-0.22,1.21-0.09l11.17,3.64l7.79-3.96c0.78-0.4,1.74-0.09,2.13,0.7c0.4,0.78,0.09,1.74-0.7,2.14l-8.37,4.26
				c-0.37,0.19-0.81,0.22-1.21,0.09l-11.17-3.64L78.9,263.97C78.67,264.09,78.42,264.15,78.18,264.15z"/>
		</g>
		<g>
			<path class="st15" d="M138.15,310.77c-0.16,0-0.33-0.02-0.49-0.08l-12.39-4.04c-0.4-0.13-0.73-0.41-0.92-0.79l-13.47-26.5
				L82,275.98c-0.87-0.1-1.49-0.89-1.39-1.76c0.1-0.87,0.9-1.49,1.76-1.39l29.72,3.48c0.53,0.06,0.99,0.38,1.23,0.86l13.55,26.67
				l11.77,3.84c0.83,0.27,1.29,1.17,1.02,2C139.44,310.35,138.82,310.77,138.15,310.77z"/>
		</g>
		<g>
			<path class="st15" d="M52.34,245.03c-0.19,0-0.38-0.03-0.57-0.1c-4.96-1.9-6.65-4.92-7.19-7.12c-0.9-3.63,0.71-7.15,2.01-8.63
				c0.58-0.66,1.58-0.72,2.24-0.15c0.66,0.58,0.72,1.58,0.15,2.24c-0.7,0.8-1.94,3.26-1.32,5.77c0.53,2.13,2.29,3.79,5.24,4.92
				c0.82,0.31,1.23,1.23,0.91,2.05C53.58,244.64,52.98,245.03,52.34,245.03z"/>
		</g>
		<g>
			<path class="st15" d="M54.68,253.92c-0.32,0-0.64-0.1-0.92-0.29c-1.56-1.11-3.07-2.29-4.51-3.42c-4.16-3.25-8.08-6.33-10.39-5.15
				c-7.64,3.88-12.64-1.91-16.3-6.14c-0.53-0.62-1.06-1.23-1.57-1.78c-0.6-0.64-0.55-1.65,0.09-2.24c0.65-0.59,1.65-0.55,2.24,0.09
				c0.54,0.58,1.08,1.21,1.64,1.86c4.25,4.92,7.41,7.95,12.46,5.39c4.1-2.09,8.59,1.42,13.79,5.48c1.41,1.1,2.87,2.25,4.4,3.33
				c0.72,0.51,0.88,1.5,0.37,2.21C55.67,253.69,55.18,253.92,54.68,253.92z"/>
		</g>
		<g>
			<path class="st15" d="M44.43,271.4c-0.17,0-0.33-0.03-0.49-0.08l-18.05-5.89c-0.4-0.13-0.73-0.41-0.92-0.79l-7.54-14.84
				c-2-0.71-8.53-3.03-11.8-4.09c-0.83-0.27-1.29-1.17-1.02-2c0.27-0.83,1.17-1.29,2-1.02c3.91,1.27,12.39,4.3,12.47,4.33
				c0.38,0.14,0.7,0.41,0.88,0.78l7.53,14.82l16.91,5.51l16.87-6c0.83-0.29,1.74,0.14,2.03,0.96c0.29,0.83-0.14,1.73-0.96,2.03
				l-17.38,6.18C44.79,271.37,44.61,271.4,44.43,271.4z"/>
		</g>
		<g>
			<path class="st15" d="M26.06,300.47c-0.58,0-1.14-0.32-1.42-0.87c-0.4-0.78-0.09-1.74,0.7-2.13l7.79-3.96l3.64-11.17
				c0.13-0.4,0.41-0.73,0.79-0.92l26.46-13.45c0.78-0.4,1.74-0.09,2.13,0.7c0.4,0.78,0.09,1.74-0.7,2.13l-25.88,13.15l-3.64,11.17
				c-0.13,0.4-0.41,0.73-0.79,0.92l-8.37,4.26C26.55,300.42,26.3,300.47,26.06,300.47z"/>
		</g>
		<g>
			<path class="st15" d="M67.05,346.91c-0.16,0-0.33-0.02-0.49-0.08c-0.83-0.27-1.29-1.17-1.02-2l3.84-11.77l-13.55-26.67
				c-0.24-0.47-0.23-1.04,0.03-1.5l14.71-26.06c0.43-0.76,1.4-1.04,2.16-0.6c0.76,0.43,1.03,1.4,0.6,2.16l-14.29,25.32l13.46,26.5
				c0.19,0.37,0.22,0.81,0.09,1.21l-4.04,12.39C68.34,346.48,67.72,346.91,67.05,346.91z"/>
		</g>
	</g>
	<g>
		<g>
			<path class="st15" d="M345.91,160.47l-4.41,4.16c-3.05,2.88-3.19,7.72-0.31,10.77l4.16,4.41c2.88,3.05,7.72,3.19,10.77,0.31
				l4.41-4.16c2.3-2.17,2.94-5.46,1.88-8.26c2.8,1.15,5.57,1.03,7.3-0.6c2.08-1.96,2.07-5.56,0.27-9.01
				c2.42,0.58,5.09-0.02,7.03-1.85l1.4-1.32c1.77-1.67,2.55-4.01,2.34-6.27c2.89,1.96,6.88,1.74,9.52-0.75l12.64-11.93
				c3.05-2.88,3.19-7.72,0.31-10.77l-4.16-4.41c-2.88-3.05-7.72-3.19-10.77-0.31l-12.64,11.93c-2.64,2.49-3.09,6.46-1.3,9.46
				c-2.25-0.34-4.62,0.3-6.39,1.97l-1.4,1.32c-1.94,1.83-2.7,4.46-2.25,6.91c-3.34-2-6.93-2.22-9.01-0.25
				c-1.73,1.63-2.01,4.39-1.03,7.25C351.53,157.85,348.21,158.3,345.91,160.47z"/>
		</g>
		<g>
			<path class="st15" d="M340.93,171.51c0.04,0.13,0.06,0.27,0.06,0.42c0.02,0.88-0.68,1.6-1.55,1.62c-3.16,0.07-5.38,1.03-6.6,2.86
				c-1.44,2.16-1.1,4.9-0.71,5.88c0.33,0.81-0.08,1.74-0.89,2.06c-0.82,0.32-1.74-0.08-2.06-0.89c-0.74-1.85-1.05-5.7,1.02-8.81
				c1.25-1.89,3.87-4.16,9.17-4.28C340.11,170.36,340.74,170.85,340.93,171.51z"/>
		</g>
		<g>
			<path class="st15" d="M346.13,163.94c0,0.01,0,0.01,0.01,0.02c0.24,0.84-0.26,1.72-1.1,1.96c-1.8,0.51-3.57,1.09-5.26,1.65
				c-6.26,2.07-11.66,3.86-14.82,0.51c-3.88-4.11-7.88-2.33-13.54,0.87c-0.75,0.42-1.47,0.83-2.17,1.2
				c-0.78,0.41-1.74,0.11-2.14-0.67c-0.41-0.77-0.11-1.74,0.67-2.14c0.67-0.35,1.37-0.75,2.08-1.15c4.87-2.75,11.54-6.51,17.41-0.28
				c1.78,1.88,6.51,0.32,11.52-1.34c1.74-0.57,3.55-1.17,5.4-1.69C345.02,162.63,345.89,163.11,346.13,163.94z"/>
		</g>
		<g>
			<path class="st15" d="M356.67,155.71c0.14,0.49,0.05,1.03-0.29,1.45c-0.56,0.68-1.56,0.78-2.23,0.22l-13.86-11.34l-17.78-0.52
				l-12.09,11.41c-0.29,0.28-0.68,0.43-1.09,0.43c-0.09,0-9.1-0.01-13.2-0.13c-0.88-0.02-1.56-0.76-1.54-1.63
				c0.03-0.88,0.76-1.57,1.63-1.54c3.43,0.1,10.36,0.12,12.48,0.13l12.11-11.43c0.31-0.29,0.71-0.44,1.14-0.43l18.98,0.55
				c0.35,0.01,0.69,0.14,0.96,0.36l14.28,11.68C356.4,155.14,356.58,155.41,356.67,155.71z"/>
		</g>
		<g>
			<path class="st15" d="M361.36,151.28c0.16,0.56,0.02,1.18-0.43,1.6c-0.64,0.6-1.64,0.57-2.24-0.07l-20.37-21.59
				c-0.29-0.31-0.44-0.71-0.43-1.14l0.34-11.75l-5.99-6.35c-0.6-0.64-0.57-1.64,0.07-2.24c0.64-0.6,1.64-0.57,2.25,0.06l6.45,6.83
				c0.29,0.31,0.44,0.72,0.43,1.14l-0.34,11.75l19.92,21.11C361.17,150.83,361.29,151.05,361.36,151.28z"/>
		</g>
		<g>
			<path class="st15" d="M389.15,80.58c0.05,0.16,0.07,0.32,0.06,0.49l-0.38,13.03c-0.01,0.42-0.19,0.82-0.5,1.11l-21.62,20.4
				l4.91,28.66c0.15,0.86-0.43,1.68-1.3,1.83c-0.86,0.15-1.69-0.44-1.83-1.3l-5.05-29.5c-0.09-0.52,0.09-1.06,0.48-1.42l21.76-20.53
				l0.36-12.37c0.02-0.88,0.76-1.57,1.63-1.54C388.38,79.46,388.97,79.94,389.15,80.58z"/>
		</g>
		<g>
			<path class="st15" d="M350.32,181.46c0.05,0.18,0.08,0.37,0.06,0.57c-0.42,5.29-2.84,7.77-4.8,8.91
				c-3.23,1.89-7.06,1.33-8.85,0.5c-0.8-0.37-1.14-1.31-0.77-2.11c0.37-0.8,1.31-1.14,2.11-0.77c0.96,0.45,3.67,0.94,5.91-0.37
				c1.9-1.11,2.99-3.27,3.24-6.42c0.07-0.87,0.83-1.53,1.71-1.46C349.59,180.38,350.14,180.85,350.32,181.46z"/>
		</g>
		<g>
			<path class="st15" d="M358.18,176.71c0.09,0.3,0.09,0.64-0.02,0.96c-0.63,1.81-1.33,3.59-2,5.29c-1.94,4.9-3.79,9.53-2.01,11.42
				c5.88,6.24,1.73,12.67-1.29,17.37c-0.44,0.69-0.88,1.36-1.27,2.01c-0.45,0.75-1.43,1-2.18,0.55c-0.75-0.45-1-1.43-0.54-2.18
				c0.41-0.68,0.86-1.38,1.32-2.1c3.52-5.47,5.54-9.35,1.65-13.47c-3.16-3.35-1.06-8.64,1.36-14.77c0.66-1.66,1.35-3.39,1.96-5.16
				c0.29-0.83,1.19-1.27,2.02-0.98C357.68,175.83,358.04,176.23,358.18,176.71z"/>
		</g>
		<g>
			<path class="st15" d="M377.85,181.6c0.05,0.16,0.07,0.33,0.06,0.49l-0.55,18.98c-0.01,0.42-0.19,0.82-0.5,1.11l-12.11,11.43
				c-0.12,2.12-0.49,9.04-0.59,12.47c-0.03,0.88-0.76,1.57-1.63,1.54c-0.88-0.02-1.56-0.76-1.54-1.63
				c0.12-4.11,0.63-13.1,0.63-13.19c0.02-0.41,0.2-0.79,0.5-1.06l12.09-11.41l0.51-17.78l-10.52-14.49
				c-0.52-0.72-0.36-1.7,0.35-2.22c0.71-0.52,1.7-0.36,2.22,0.35l10.84,14.93C377.71,181.26,377.79,181.43,377.85,181.6z"/>
		</g>
		<g>
			<path class="st15" d="M410.92,191.02c0.16,0.56,0.02,1.18-0.43,1.6c-0.64,0.6-1.64,0.57-2.24-0.07l-6-6.35l-11.75-0.34
				c-0.42-0.01-0.82-0.19-1.11-0.5l-20.37-21.59c-0.6-0.64-0.57-1.64,0.07-2.24c0.64-0.6,1.64-0.57,2.24,0.07l19.92,21.11
				l11.75,0.34c0.42,0.01,0.82,0.19,1.11,0.5l6.45,6.83C410.73,190.57,410.85,190.79,410.92,191.02z"/>
		</g>
		<g>
			<path class="st15" d="M443.89,138.59c0.05,0.16,0.07,0.32,0.06,0.49c-0.02,0.88-0.76,1.57-1.63,1.54l-12.37-0.36l-21.76,20.53
				c-0.39,0.37-0.93,0.51-1.45,0.39l-29.16-6.75c-0.85-0.2-1.39-1.05-1.19-1.9c0.2-0.85,1.05-1.39,1.9-1.19l28.33,6.56l21.62-20.4
				c0.31-0.29,0.71-0.44,1.14-0.43l13.03,0.38C443.12,137.47,443.7,137.95,443.89,138.59z"/>
		</g>
	</g>
	<g>
		<g>
			<path class="st15" d="M159.93,66.8l-2.75-5.41c-1.9-3.74-6.51-5.24-10.25-3.34l-5.41,2.75c-3.74,1.9-5.24,6.51-3.34,10.25
				l2.75,5.41c1.43,2.82,4.41,4.36,7.39,4.14c-1.89,2.37-2.56,5.05-1.48,7.17c1.3,2.55,4.75,3.55,8.57,2.8
				c-1.24,2.16-1.42,4.89-0.21,7.27l0.87,1.72c1.1,2.17,3.12,3.58,5.35,4.01c-2.7,2.22-3.61,6.11-1.97,9.34l7.87,15.49
				c1.9,3.74,6.51,5.24,10.25,3.34l5.41-2.75c3.74-1.9,5.24-6.51,3.34-10.25l-7.87-15.49c-1.64-3.24-5.32-4.79-8.71-3.92
				c0.96-2.06,1.01-4.52-0.09-6.69l-0.87-1.72c-1.21-2.38-3.51-3.84-5.99-4.11c2.86-2.64,4.09-6.02,2.79-8.57
				c-1.08-2.12-3.64-3.17-6.67-3.03C160.86,72.93,161.36,69.62,159.93,66.8z"/>
		</g>
		<g>
			<path class="st15" d="M150.74,58.9c-0.14,0-0.28-0.02-0.42-0.06c-0.85-0.23-1.35-1.1-1.12-1.95c0.83-3.05,0.53-5.45-0.88-7.14
				c-1.67-1.99-4.39-2.44-5.44-2.34c-0.87,0.09-1.64-0.57-1.72-1.44c-0.08-0.87,0.57-1.65,1.44-1.72c1.98-0.19,5.76,0.6,8.16,3.46
				c1.46,1.74,2.9,4.88,1.51,10.01C152.08,58.44,151.44,58.9,150.74,58.9z"/>
		</g>
		<g>
			<path class="st15" d="M156.54,66.03c-0.01,0-0.01,0-0.02,0c-0.88-0.01-1.58-0.73-1.57-1.61c0.02-1.87-0.04-3.73-0.1-5.52
				c-0.22-6.59-0.41-12.28,3.7-14.36c5.04-2.56,4.46-6.91,2.99-13.24c-0.19-0.83-0.38-1.64-0.53-2.42c-0.17-0.86,0.39-1.7,1.25-1.87
				c0.85-0.18,1.7,0.39,1.87,1.25c0.15,0.74,0.33,1.52,0.51,2.32c1.26,5.45,2.99,12.91-4.64,16.79c-2.31,1.17-2.14,6.15-1.96,11.43
				c0.06,1.83,0.12,3.74,0.1,5.66C158.11,65.33,157.41,66.03,156.54,66.03z"/>
		</g>
		<g>
			<path class="st15" d="M161.46,78.46c-0.51,0-1.01-0.24-1.31-0.69c-0.49-0.72-0.31-1.71,0.42-2.21l14.79-10.09l5.51-16.91
				l-7.53-14.82c-0.18-0.36-0.22-0.78-0.11-1.17c0.02-0.09,2.58-8.72,3.85-12.63c0.27-0.83,1.17-1.29,2-1.02
				c0.83,0.27,1.29,1.17,1.02,2c-1.06,3.27-3.04,9.91-3.65,11.94L184,47.7c0.19,0.37,0.22,0.81,0.09,1.21l-5.89,18.05
				c-0.11,0.33-0.32,0.62-0.61,0.82l-15.24,10.4C162.08,78.37,161.77,78.46,161.46,78.46z"/>
		</g>
		<g>
			<path class="st15" d="M164.39,84.21c-0.58,0-1.14-0.32-1.42-0.87c-0.4-0.78-0.09-1.74,0.7-2.13l26.46-13.45
				c0.37-0.19,0.81-0.22,1.21-0.09l11.17,3.64l7.79-3.96c0.78-0.4,1.74-0.09,2.13,0.7c0.4,0.78,0.09,1.74-0.7,2.14l-8.37,4.26
				c-0.37,0.19-0.81,0.22-1.21,0.09l-11.17-3.64L165.1,84.04C164.87,84.16,164.63,84.21,164.39,84.21z"/>
		</g>
		<g>
			<path class="st15" d="M224.36,130.84c-0.16,0-0.33-0.02-0.49-0.08l-12.39-4.04c-0.4-0.13-0.73-0.41-0.92-0.79l-13.47-26.5
				l-28.88-3.38c-0.87-0.1-1.49-0.89-1.39-1.76c0.1-0.87,0.9-1.49,1.76-1.39l29.72,3.48c0.53,0.06,0.99,0.38,1.23,0.86l13.55,26.67
				l11.77,3.84c0.83,0.27,1.29,1.17,1.02,2C225.65,130.41,225.03,130.84,224.36,130.84z"/>
		</g>
		<g>
			<path class="st15" d="M138.55,65.1c-0.19,0-0.38-0.03-0.57-0.1c-4.96-1.9-6.65-4.92-7.19-7.12c-0.9-3.63,0.71-7.15,2.01-8.63
				c0.58-0.66,1.58-0.72,2.24-0.15c0.66,0.58,0.72,1.58,0.15,2.24c-0.7,0.8-1.94,3.26-1.32,5.77c0.53,2.13,2.29,3.79,5.24,4.92
				c0.82,0.31,1.23,1.23,0.91,2.05C139.79,64.71,139.19,65.1,138.55,65.1z"/>
		</g>
		<g>
			<path class="st15" d="M140.89,73.98c-0.32,0-0.64-0.1-0.92-0.29c-1.56-1.11-3.07-2.29-4.51-3.42c-4.16-3.25-8.08-6.33-10.39-5.15
				c-7.64,3.88-12.64-1.91-16.3-6.14c-0.53-0.62-1.06-1.23-1.57-1.78c-0.6-0.64-0.55-1.65,0.09-2.24c0.65-0.59,1.65-0.55,2.24,0.09
				c0.54,0.58,1.08,1.21,1.64,1.86c4.25,4.92,7.41,7.95,12.46,5.39c4.1-2.09,8.59,1.42,13.79,5.48c1.41,1.1,2.87,2.25,4.4,3.33
				c0.72,0.51,0.88,1.5,0.37,2.21C141.87,73.75,141.39,73.98,140.89,73.98z"/>
		</g>
		<g>
			<path class="st15" d="M130.64,91.47c-0.17,0-0.33-0.03-0.49-0.08L112.1,85.5c-0.4-0.13-0.73-0.41-0.92-0.79l-7.54-14.84
				c-2-0.71-8.53-3.03-11.8-4.09c-0.83-0.27-1.29-1.17-1.02-2c0.27-0.83,1.17-1.29,2-1.02c3.91,1.27,12.39,4.3,12.47,4.33
				c0.38,0.14,0.7,0.41,0.88,0.78l7.53,14.82l16.91,5.51l16.87-6c0.83-0.29,1.74,0.14,2.03,0.96c0.29,0.83-0.14,1.73-0.96,2.03
				l-17.38,6.18C131,91.44,130.82,91.47,130.64,91.47z"/>
		</g>
		<g>
			<path class="st15" d="M112.27,120.54c-0.58,0-1.14-0.32-1.42-0.87c-0.4-0.78-0.09-1.74,0.7-2.13l7.79-3.96l3.64-11.17
				c0.13-0.4,0.41-0.73,0.79-0.92l26.46-13.45c0.78-0.4,1.74-0.09,2.13,0.7c0.4,0.78,0.09,1.74-0.7,2.13l-25.88,13.15l-3.64,11.17
				c-0.13,0.4-0.41,0.73-0.79,0.92l-8.37,4.26C112.75,120.48,112.51,120.54,112.27,120.54z"/>
		</g>
		<g>
			<path class="st15" d="M153.26,166.97c-0.16,0-0.33-0.02-0.49-0.08c-0.83-0.27-1.29-1.17-1.02-2l3.84-11.77l-13.55-26.67
				c-0.24-0.47-0.23-1.04,0.03-1.5l14.71-26.06c0.43-0.76,1.4-1.04,2.16-0.6c0.76,0.43,1.03,1.4,0.6,2.16l-14.29,25.32l13.46,26.5
				c0.19,0.37,0.22,0.81,0.09,1.21l-4.04,12.39C154.55,166.55,153.93,166.97,153.26,166.97z"/>
		</g>
	</g>
	<g>
		<g>
			<path class="st11" d="M252.5,179.75l-0.29,6.06c-0.2,4.19,3.07,7.77,7.25,7.97l6.06,0.29c4.19,0.2,7.77-3.07,7.97-7.25l0.29-6.06
				c0.15-3.16-1.67-5.97-4.38-7.25c2.81-1.12,4.72-3.13,4.83-5.5c0.13-2.86-2.37-5.44-6.06-6.67c2.15-1.26,3.65-3.55,3.77-6.21
				l0.09-1.92c0.11-2.43-0.94-4.66-2.67-6.14c3.44-0.59,6.16-3.52,6.33-7.15l0.82-17.36c0.2-4.19-3.07-7.77-7.25-7.97l-6.06-0.29
				c-4.19-0.2-7.77,3.07-7.97,7.25l-0.82,17.36c-0.17,3.63,2.26,6.8,5.63,7.71c-1.85,1.31-3.12,3.43-3.23,5.86l-0.09,1.92
				c-0.13,2.66,1.15,5.08,3.17,6.54c-3.79,0.88-6.53,3.21-6.66,6.07c-0.11,2.37,1.6,4.55,4.3,5.93
				C254.73,173.96,252.65,176.59,252.5,179.75z"/>
		</g>
		<g>
			<path class="st11" d="M256.58,191.16c0.12,0.07,0.23,0.15,0.33,0.25c0.62,0.62,0.63,1.62,0.01,2.24
				c-2.23,2.24-3.16,4.48-2.76,6.64c0.47,2.55,2.61,4.29,3.57,4.73c0.8,0.35,1.15,1.3,0.79,2.1c-0.36,0.8-1.31,1.15-2.1,0.79
				c-1.81-0.82-4.71-3.37-5.38-7.04c-0.41-2.23-0.11-5.68,3.63-9.45C255.19,190.9,255.98,190.81,256.58,191.16z"/>
		</g>
		<g>
			<path class="st11" d="M255.07,182.1c0.01,0,0.01,0.01,0.02,0.01c0.76,0.44,1.01,1.42,0.57,2.17c-0.94,1.61-1.81,3.26-2.64,4.84
				c-3.07,5.83-5.71,10.87-10.32,10.65c-5.65-0.27-7.29,3.8-9.14,10.03c-0.24,0.82-0.48,1.62-0.73,2.37
				c-0.28,0.83-1.18,1.28-2.01,1.01c-0.83-0.27-1.28-1.18-1.01-2.01c0.24-0.72,0.47-1.49,0.7-2.27c1.59-5.36,3.78-12.7,12.34-12.29
				c2.58,0.12,4.9-4.29,7.36-8.96c0.85-1.62,1.74-3.31,2.71-4.97C253.36,181.92,254.32,181.67,255.07,182.1z"/>
		</g>
		<g>
			<path class="st11" d="M256.94,168.86c0.44,0.25,0.75,0.71,0.8,1.25c0.07,0.87-0.58,1.64-1.45,1.71l-17.85,1.46l-13.16,11.97
				l-0.78,16.6c-0.02,0.41-0.19,0.79-0.48,1.07c-0.06,0.06-6.56,6.31-9.6,9.07c-0.65,0.59-1.65,0.54-2.24-0.1
				c-0.59-0.65-0.54-1.65,0.11-2.24c2.54-2.31,7.54-7.11,9.08-8.57l0.78-16.63c0.02-0.42,0.21-0.82,0.52-1.1l14.04-12.78
				c0.26-0.24,0.59-0.38,0.94-0.41l18.39-1.5C256.35,168.63,256.67,168.71,256.94,168.86z"/>
		</g>
		<g>
			<path class="st11" d="M257.24,162.41c0.5,0.29,0.83,0.84,0.8,1.46c-0.04,0.88-0.78,1.55-1.66,1.51l-29.65-1.4
				c-0.42-0.02-0.82-0.21-1.1-0.52l-7.91-8.69l-8.72-0.41c-0.88-0.04-1.55-0.78-1.51-1.66c0.04-0.88,0.78-1.55,1.66-1.51l9.38,0.44
				c0.42,0.02,0.82,0.21,1.1,0.52l7.91,8.69l28.99,1.37C256.79,162.22,257.03,162.29,257.24,162.41z"/>
		</g>
		<g>
			<path class="st11" d="M228.17,92.23c0.14,0.08,0.27,0.18,0.39,0.31l8.77,9.64c0.28,0.31,0.43,0.72,0.41,1.14l-1.4,29.69
				l23.43,17.22c0.71,0.52,0.86,1.51,0.34,2.22c-0.52,0.71-1.52,0.86-2.22,0.34l-24.11-17.72c-0.43-0.31-0.67-0.82-0.65-1.35
				l1.41-29.88l-8.33-9.15c-0.59-0.65-0.54-1.65,0.11-2.24C226.84,91.96,227.59,91.9,228.17,92.23z"/>
		</g>
		<g>
			<path class="st11" d="M270.24,191.8c0.16,0.09,0.31,0.22,0.44,0.37c3.37,4.1,3.34,7.57,2.73,9.75c-1.01,3.6-4.16,5.86-6.02,6.51
				c-0.83,0.29-1.73-0.15-2.02-0.98c-0.29-0.83,0.15-1.73,0.98-2.02c1-0.35,3.3-1.87,4-4.37c0.6-2.11-0.12-4.43-2.13-6.87
				c-0.56-0.68-0.46-1.68,0.22-2.24C268.97,191.53,269.69,191.49,270.24,191.8z"/>
		</g>
		<g>
			<path class="st11" d="M272.6,182.92c0.28,0.16,0.51,0.4,0.65,0.71c0.81,1.74,1.54,3.51,2.23,5.2c2,4.88,3.89,9.49,6.48,9.61
				c8.56,0.41,10.04,7.91,11.13,13.4c0.16,0.8,0.31,1.59,0.48,2.33c0.2,0.86-0.33,1.71-1.19,1.9c-0.85,0.2-1.71-0.34-1.9-1.19
				c-0.18-0.77-0.34-1.59-0.51-2.43c-1.26-6.38-2.51-10.57-8.16-10.84c-4.6-0.21-6.77-5.48-9.27-11.58
				c-0.68-1.65-1.38-3.37-2.17-5.07c-0.37-0.8-0.03-1.74,0.77-2.11C271.63,182.64,272.17,182.68,272.6,182.92z"/>
		</g>
		<g>
			<path class="st11" d="M290.16,172.79c0.14,0.08,0.28,0.19,0.39,0.31l12.78,14.04c0.28,0.31,0.43,0.72,0.41,1.14l-0.78,16.63
				c1.39,1.61,5.92,6.85,8.23,9.39c0.59,0.65,0.54,1.65-0.11,2.24c-0.65,0.59-1.65,0.54-2.24-0.1c-2.77-3.04-8.64-9.87-8.7-9.93
				c-0.26-0.31-0.4-0.71-0.38-1.11l0.78-16.6l-11.97-13.15l-17.63-3.13c-0.87-0.16-1.44-0.98-1.29-1.84
				c0.15-0.86,0.98-1.44,1.84-1.29l18.17,3.23C289.83,172.64,290,172.7,290.16,172.79z"/>
		</g>
		<g>
			<path class="st11" d="M320.5,156.61c0.5,0.29,0.83,0.84,0.8,1.46c-0.04,0.88-0.78,1.55-1.66,1.51l-8.73-0.41l-8.69,7.91
				c-0.31,0.28-0.72,0.43-1.14,0.41l-29.65-1.4c-0.88-0.04-1.55-0.78-1.51-1.66c0.04-0.88,0.78-1.55,1.66-1.51l28.99,1.37l8.69-7.91
				c0.31-0.28,0.72-0.43,1.14-0.41l9.38,0.44C320.05,156.42,320.29,156.49,320.5,156.61z"/>
		</g>
		<g>
			<path class="st11" d="M307.84,95.99c0.14,0.08,0.27,0.18,0.39,0.31c0.59,0.65,0.54,1.65-0.11,2.24l-9.15,8.33l-1.41,29.88
				c-0.02,0.53-0.31,1.01-0.77,1.29l-25.67,15.38c-0.75,0.45-1.73,0.21-2.18-0.55c-0.45-0.75-0.21-1.73,0.55-2.18l24.94-14.94
				l1.4-29.69c0.02-0.42,0.21-0.82,0.52-1.1l9.64-8.77C306.5,95.72,307.26,95.66,307.84,95.99z"/>
		</g>
	</g>
	<g>
		<g>
			<path class="st11" d="M49.87,169l5.12-3.26c3.53-2.26,4.58-6.99,2.32-10.52l-3.26-5.12c-2.25-3.53-6.99-4.58-10.52-2.32
				l-5.12,3.26c-2.67,1.7-3.91,4.81-3.4,7.76c-2.54-1.65-5.28-2.05-7.28-0.77c-2.41,1.54-3.07,5.07-1.95,8.8
				c-2.27-1.03-5-0.93-7.25,0.5l-1.62,1.04c-2.05,1.31-3.26,3.46-3.47,5.72c-2.47-2.47-6.43-3-9.49-1.04l-14.65,9.35
				c-3.53,2.26-4.58,6.99-2.32,10.52l3.26,5.12c2.25,3.53,6.99,4.58,10.52,2.32L15.4,191c3.06-1.95,4.25-5.77,3.05-9.05
				c2.14,0.76,4.6,0.57,6.65-0.74l1.62-1.04c2.25-1.43,3.48-3.87,3.51-6.37c2.91,2.59,6.39,3.48,8.8,1.94c2-1.28,2.8-3.93,2.37-6.93
				C43.85,170.52,47.2,170.7,49.87,169z"/>
		</g>
		<g>
			<path class="st11" d="M56.83,159.08c-0.01-0.14-0.01-0.28,0.01-0.42c0.14-0.86,0.96-1.45,1.83-1.3c3.12,0.52,5.48,0,7.02-1.58
				c1.82-1.85,2-4.6,1.8-5.64c-0.17-0.86,0.4-1.69,1.26-1.86c0.86-0.16,1.69,0.4,1.86,1.26c0.38,1.95-0.03,5.79-2.65,8.46
				c-1.59,1.62-4.58,3.37-9.81,2.48C57.42,160.37,56.89,159.78,56.83,159.08z"/>
		</g>
		<g>
			<path class="st11" d="M50.3,165.55c0-0.01,0-0.01,0-0.02c-0.08-0.87,0.57-1.64,1.45-1.72c1.86-0.16,3.71-0.4,5.48-0.64
				c6.53-0.86,12.18-1.61,14.66,2.28c3.04,4.77,7.31,3.76,13.47,1.68c0.81-0.27,1.6-0.54,2.36-0.77c0.84-0.25,1.73,0.22,1.98,1.06
				c0.26,0.83-0.22,1.73-1.06,1.98c-0.73,0.22-1.48,0.48-2.26,0.74c-5.3,1.79-12.55,4.24-17.16-2.98
				c-1.39-2.18-6.33-1.53-11.56-0.84c-1.82,0.24-3.71,0.49-5.62,0.65C51.15,167.05,50.38,166.42,50.3,165.55z"/>
		</g>
		<g>
			<path class="st11" d="M38.41,171.67c-0.05-0.51,0.14-1.02,0.56-1.37c0.67-0.56,1.67-0.47,2.24,0.2l11.49,13.74l17.37,3.84
				l14.01-8.94c0.34-0.22,0.75-0.3,1.15-0.22c0.09,0.02,8.93,1.71,12.95,2.6c0.86,0.19,1.39,1.04,1.21,1.89
				c-0.19,0.86-1.04,1.4-1.89,1.21c-3.35-0.74-10.16-2.06-12.24-2.46l-14.03,8.96c-0.35,0.23-0.79,0.3-1.2,0.21l-18.54-4.09
				c-0.34-0.07-0.65-0.26-0.88-0.53l-11.84-14.15C38.56,172.28,38.44,171.97,38.41,171.67z"/>
		</g>
		<g>
			<path class="st11" d="M32.97,175.14c-0.06-0.58,0.2-1.16,0.73-1.49c0.74-0.47,1.72-0.26,2.19,0.48l15.97,25.02
				c0.23,0.35,0.3,0.79,0.21,1.2l-2.53,11.47l4.7,7.36c0.47,0.74,0.25,1.72-0.48,2.19c-0.74,0.47-1.72,0.26-2.19-0.48l-5.05-7.92
				c-0.23-0.35-0.3-0.79-0.21-1.2l2.53-11.47l-15.62-24.47C33.07,175.62,33,175.38,32.97,175.14z"/>
		</g>
		<g>
			<path class="st11" d="M-7.57,239.38c-0.02-0.16-0.01-0.33,0.03-0.5l2.81-12.73c0.09-0.41,0.34-0.77,0.7-1l25.05-15.99l0.54-29.07
				c0.02-0.88,0.74-1.57,1.62-1.56c0.88,0.02,1.57,0.75,1.56,1.62l-0.56,29.92c-0.01,0.53-0.28,1.02-0.73,1.31l-25.22,16.09
				l-2.67,12.09c-0.19,0.86-1.04,1.4-1.89,1.21C-7.02,240.63-7.5,240.05-7.57,239.38z"/>
		</g>
		<g>
			<path class="st11" d="M49.47,147.56c-0.02-0.19,0-0.38,0.05-0.57c1.41-5.12,4.25-7.1,6.39-7.85c3.52-1.25,7.19,0.01,8.79,1.16
				c0.71,0.52,0.87,1.5,0.36,2.22c-0.51,0.71-1.5,0.88-2.22,0.36c-0.86-0.62-3.43-1.61-5.88-0.75c-2.07,0.73-3.55,2.65-4.38,5.7
				c-0.23,0.85-1.11,1.34-1.95,1.11C49.98,148.75,49.53,148.19,49.47,147.56z"/>
		</g>
		<g>
			<path class="st11" d="M40.85,150.75c-0.03-0.32,0.03-0.65,0.2-0.94c0.95-1.66,1.98-3.28,2.96-4.82
				c2.83-4.45,5.51-8.66,4.11-10.84c-4.61-7.23,0.67-12.77,4.52-16.82c0.57-0.59,1.12-1.17,1.62-1.74c0.58-0.66,1.59-0.71,2.24-0.13
				c0.65,0.58,0.71,1.59,0.13,2.24c-0.53,0.59-1.1,1.2-1.69,1.81c-4.48,4.71-7.19,8.15-4.14,12.92c2.48,3.88-0.57,8.69-4.11,14.25
				c-0.96,1.51-1.96,3.08-2.89,4.7c-0.44,0.76-1.41,1.02-2.17,0.59C41.18,151.71,40.9,151.25,40.85,150.75z"/>
		</g>
		<g>
			<path class="st11" d="M22.45,142.27c-0.02-0.16-0.01-0.33,0.03-0.5l4.09-18.54c0.09-0.41,0.34-0.77,0.7-1l14.03-8.96
				c0.51-2.06,2.18-8.79,2.92-12.14c0.19-0.86,1.04-1.4,1.89-1.21c0.86,0.19,1.39,1.04,1.21,1.89c-0.89,4.01-3.07,12.75-3.09,12.84
				c-0.1,0.39-0.34,0.73-0.69,0.95l-14.01,8.94l-3.83,17.37l7.62,16.21c0.37,0.8,0.03,1.74-0.76,2.11
				c-0.79,0.37-1.74,0.03-2.11-0.76l-7.85-16.7C22.52,142.62,22.47,142.45,22.45,142.27z"/>
		</g>
		<g>
			<path class="st11" d="M-8.27,126.82c-0.06-0.58,0.2-1.16,0.73-1.49c0.74-0.47,1.72-0.26,2.19,0.48l4.7,7.36l11.47,2.53
				c0.41,0.09,0.77,0.34,1,0.7l15.97,25.02c0.47,0.74,0.26,1.72-0.48,2.19c-0.74,0.47-1.72,0.26-2.19-0.48L9.49,138.66l-11.47-2.53
				c-0.41-0.09-0.77-0.34-1-0.7l-5.05-7.92C-8.17,127.3-8.25,127.06-8.27,126.82z"/>
		</g>
		<g>
			<path class="st11" d="M-50.48,172.15c-0.02-0.16-0.01-0.33,0.03-0.5c0.19-0.86,1.04-1.4,1.89-1.21l12.09,2.67l25.22-16.09
				c0.45-0.29,1.01-0.33,1.5-0.11L17.62,169c0.8,0.35,1.17,1.29,0.81,2.09c-0.35,0.8-1.29,1.17-2.09,0.81l-26.6-11.75l-25.05,15.99
				c-0.35,0.23-0.79,0.3-1.2,0.21l-12.73-2.81C-49.93,173.4-50.41,172.82-50.48,172.15z"/>
		</g>
	</g>
	<g>
		<g>
			<path class="st11" d="M301.49,385.73l5.25,3.04c3.63,2.1,8.31,0.85,10.41-2.78l3.04-5.25c2.1-3.63,0.85-8.31-2.78-10.41
				l-5.25-3.04c-2.74-1.58-6.08-1.26-8.45,0.55c0.3-3.01-0.61-5.63-2.67-6.82c-2.48-1.43-5.92-0.39-8.71,2.32
				c-0.13-2.49-1.48-4.87-3.78-6.21l-1.67-0.96c-2.11-1.22-4.57-1.3-6.67-0.45c1.06-3.33-0.3-7.09-3.44-8.91l-15.04-8.7
				c-3.63-2.1-8.31-0.85-10.41,2.78l-3.04,5.25c-2.1,3.63-0.85,8.31,2.78,10.41l15.04,8.7c3.14,1.82,7.07,1.12,9.44-1.46
				c0.31,2.25,1.61,4.34,3.72,5.56l1.67,0.96c2.31,1.33,5.04,1.31,7.27,0.18c-0.96,3.77-0.14,7.28,2.33,8.71
				c2.06,1.19,4.78,0.67,7.24-1.09C297.37,381.09,298.75,384.14,301.49,385.73z"/>
		</g>
		<g>
			<path class="st11" d="M313.5,387.34c0.12-0.08,0.24-0.14,0.38-0.18c0.83-0.27,1.73,0.19,2,1.02c0.97,3.01,2.53,4.86,4.63,5.5
				c2.48,0.76,5.01-0.34,5.84-1c0.68-0.55,1.69-0.42,2.23,0.27c0.54,0.69,0.42,1.69-0.27,2.23c-1.56,1.24-5.16,2.63-8.73,1.54
				c-2.17-0.66-5.09-2.51-6.72-7.57C312.63,388.46,312.91,387.72,313.5,387.34z"/>
		</g>
		<g>
			<path class="st11" d="M304.75,384.52c0,0,0.01-0.01,0.02-0.01c0.74-0.47,1.72-0.25,2.19,0.49c1,1.58,2.07,3.11,3.09,4.57
				c3.77,5.4,7.03,10.07,4.72,14.06c-2.83,4.9,0.02,8.22,4.71,12.73c0.62,0.59,1.22,1.17,1.77,1.74c0.61,0.63,0.6,1.63-0.03,2.24
				c-0.62,0.61-1.63,0.6-2.24-0.03c-0.53-0.54-1.11-1.1-1.69-1.67c-4.03-3.88-9.54-9.19-5.25-16.61c1.3-2.24-1.56-6.33-4.58-10.65
				c-1.05-1.5-2.14-3.07-3.17-4.69C303.81,385.96,304.02,384.99,304.75,384.52z"/>
		</g>
		<g>
			<path class="st11" d="M293.85,376.78c0.43-0.28,0.97-0.34,1.48-0.13c0.81,0.34,1.19,1.27,0.85,2.08l-6.91,16.52l4.59,17.19
				l14.39,8.32c0.35,0.2,0.61,0.53,0.73,0.92c0.03,0.09,2.59,8.72,3.65,12.69c0.23,0.85-0.28,1.71-1.12,1.94
				c-0.85,0.23-1.72-0.28-1.94-1.12c-0.89-3.32-2.85-9.96-3.45-12l-14.41-8.34c-0.37-0.21-0.63-0.56-0.74-0.96l-4.9-18.34
				c-0.09-0.34-0.07-0.7,0.07-1.02l7.11-17.02C293.38,377.19,293.59,376.95,293.85,376.78z"/>
		</g>
		<g>
			<path class="st11" d="M288.26,373.55c0.49-0.32,1.13-0.35,1.66-0.04c0.76,0.44,1.02,1.41,0.58,2.17l-14.86,25.7
				c-0.21,0.36-0.56,0.63-0.96,0.74l-11.35,3.03l-4.37,7.56c-0.44,0.76-1.41,1.02-2.17,0.58c-0.76-0.44-1.02-1.41-0.58-2.17
				l4.7-8.13c0.21-0.36,0.56-0.63,0.96-0.74l11.35-3.03l14.53-25.12C287.89,373.86,288.06,373.68,288.26,373.55z"/>
		</g>
		<g>
			<path class="st11" d="M212.57,367.13c0.14-0.09,0.29-0.16,0.46-0.2l12.59-3.36c0.41-0.11,0.84-0.05,1.2,0.16l25.73,14.88
				l26.06-12.9c0.79-0.39,1.74-0.07,2.13,0.72c0.39,0.79,0.06,1.74-0.72,2.13l-26.82,13.28c-0.48,0.24-1.04,0.22-1.5-0.05
				l-25.89-14.98l-11.96,3.19c-0.85,0.23-1.72-0.28-1.94-1.12C211.72,368.19,212.01,367.49,212.57,367.13z"/>
		</g>
		<g>
			<path class="st11" d="M320.34,375.5c0.16-0.1,0.34-0.18,0.53-0.22c5.19-1.11,8.26,0.5,9.91,2.05c2.73,2.55,3.3,6.38,3.01,8.34
				c-0.13,0.87-0.93,1.47-1.8,1.34c-0.87-0.13-1.47-0.93-1.34-1.8c0.15-1.05-0.15-3.79-2.04-5.56c-1.6-1.5-3.99-1.93-7.08-1.27
				c-0.86,0.18-1.7-0.36-1.88-1.22C319.52,376.5,319.81,375.85,320.34,375.5z"/>
		</g>
		<g>
			<path class="st11" d="M313.54,369.33c0.27-0.17,0.59-0.27,0.93-0.25c1.92,0.08,3.82,0.25,5.64,0.41
				c5.26,0.46,10.22,0.91,11.52-1.34c4.29-7.42,11.64-5.28,17.01-3.73c0.79,0.23,1.55,0.45,2.29,0.64c0.85,0.22,1.36,1.08,1.15,1.93
				c-0.22,0.85-1.08,1.36-1.93,1.14c-0.77-0.2-1.57-0.43-2.39-0.66c-6.24-1.81-10.54-2.63-13.38,2.27
				c-2.3,3.99-7.98,3.49-14.54,2.92c-1.78-0.16-3.63-0.32-5.5-0.4c-0.88-0.04-1.56-0.78-1.52-1.65
				C312.84,370.06,313.12,369.6,313.54,369.33z"/>
		</g>
		<g>
			<path class="st11" d="M312.61,349.08c0.14-0.09,0.29-0.16,0.46-0.2l18.34-4.9c0.41-0.11,0.84-0.05,1.2,0.16l14.41,8.34
				c2.06-0.49,8.8-2.11,12.12-3c0.85-0.23,1.72,0.28,1.94,1.12c0.23,0.85-0.28,1.71-1.12,1.94c-3.97,1.06-12.73,3.14-12.82,3.16
				c-0.4,0.09-0.81,0.03-1.16-0.17l-14.39-8.32l-17.18,4.59l-10.88,14.22c-0.54,0.7-1.53,0.83-2.23,0.3
				c-0.7-0.53-0.83-1.53-0.3-2.23l11.21-14.65C312.32,349.3,312.46,349.18,312.61,349.08z"/>
		</g>
		<g>
			<path class="st11" d="M312.18,314.69c0.49-0.32,1.13-0.35,1.66-0.04c0.76,0.44,1.02,1.41,0.58,2.17l-4.37,7.56l3.03,11.35
				c0.11,0.41,0.05,0.84-0.16,1.2l-14.86,25.69c-0.44,0.76-1.41,1.02-2.17,0.58c-0.76-0.44-1.02-1.41-0.58-2.17l14.54-25.12
				l-3.03-11.35c-0.11-0.41-0.05-0.84,0.16-1.2l4.7-8.13C311.8,315.01,311.98,314.83,312.18,314.69z"/>
		</g>
		<g>
			<path class="st11" d="M252.51,298.09c0.14-0.09,0.29-0.16,0.46-0.2c0.85-0.23,1.72,0.28,1.94,1.12l3.19,11.96l25.89,14.98
				c0.46,0.26,0.76,0.74,0.79,1.27l1.87,29.87c0.06,0.87-0.61,1.63-1.49,1.68c-0.87,0.05-1.63-0.61-1.68-1.49l-1.81-29.02
				l-25.73-14.88c-0.37-0.21-0.63-0.56-0.74-0.96l-3.36-12.59C251.66,299.15,251.95,298.46,252.51,298.09z"/>
		</g>
	</g>
	<g>
		<g>
			<path class="st12" d="M136.05,190.05l6.05,0.46c4.18,0.31,7.86-2.85,8.17-7.03l0.46-6.05c0.31-4.18-2.85-7.86-7.03-8.17
				l-6.05-0.46c-3.15-0.24-6.02,1.51-7.37,4.17c-1.04-2.84-2.99-4.81-5.36-4.99c-2.85-0.21-5.5,2.22-6.84,5.87
				c-1.2-2.18-3.44-3.75-6.1-3.95l-1.92-0.14c-2.43-0.18-4.68,0.81-6.21,2.49c-0.5-3.46-3.35-6.25-6.97-6.53l-17.33-1.3
				c-4.18-0.31-7.86,2.85-8.17,7.03l-0.46,6.05c-0.31,4.18,2.85,7.86,7.03,8.17l17.33,1.3c3.62,0.27,6.86-2.06,7.87-5.41
				c1.26,1.89,3.34,3.21,5.76,3.39l1.92,0.14c2.66,0.2,5.11-1.01,6.63-2.99c0.78,3.81,3.03,6.62,5.88,6.83
				c2.37,0.18,4.6-1.47,6.05-4.13C130.33,187.66,132.9,189.82,136.05,190.05z"/>
		</g>
		<g>
			<path class="st12" d="M147.57,186.29c0.07-0.12,0.16-0.23,0.26-0.33c0.63-0.6,1.64-0.58,2.24,0.06c2.18,2.29,4.39,3.28,6.56,2.95
				c2.57-0.39,4.36-2.48,4.82-3.44c0.38-0.79,1.34-1.11,2.12-0.73c0.79,0.39,1.11,1.34,0.73,2.12c-0.87,1.79-3.5,4.61-7.19,5.18
				c-2.24,0.34-5.68-0.05-9.34-3.9C147.27,187.68,147.21,186.89,147.57,186.29z"/>
		</g>
		<g>
			<path class="st12" d="M138.47,187.55c0,0,0.01-0.01,0.01-0.02c0.46-0.74,1.44-0.97,2.19-0.51c1.59,0.99,3.21,1.9,4.77,2.78
				c5.75,3.23,10.71,6.02,10.36,10.61c-0.42,5.64,3.59,7.39,9.77,9.42c0.81,0.27,1.6,0.53,2.35,0.8c0.82,0.3,1.25,1.21,0.95,2.03
				c-0.29,0.82-1.21,1.25-2.03,0.95c-0.71-0.26-1.47-0.51-2.25-0.77c-5.31-1.74-12.59-4.14-11.94-12.68
				c0.19-2.58-4.15-5.02-8.75-7.61c-1.6-0.9-3.26-1.84-4.89-2.85C138.25,189.26,138.02,188.29,138.47,187.55z"/>
		</g>
		<g>
			<path class="st12" d="M125.29,185.31c0.26-0.43,0.73-0.73,1.27-0.76c0.88-0.05,1.62,0.63,1.67,1.5l0.96,17.88l11.6,13.49
				l16.58,1.25c0.4,0.03,0.78,0.21,1.05,0.51c0.06,0.07,6.12,6.73,8.8,9.85c0.57,0.66,0.49,1.66-0.17,2.24
				c-0.67,0.57-1.67,0.5-2.24-0.17c-2.24-2.6-6.89-7.74-8.32-9.31l-16.6-1.25c-0.42-0.03-0.81-0.23-1.08-0.55l-12.38-14.39
				c-0.23-0.26-0.36-0.6-0.38-0.95l-0.99-18.42C125.04,185.89,125.13,185.58,125.29,185.31z"/>
		</g>
		<g>
			<path class="st12" d="M118.85,184.83c0.3-0.49,0.86-0.81,1.48-0.76c0.87,0.06,1.53,0.83,1.46,1.7l-2.23,29.6
				c-0.03,0.42-0.23,0.81-0.55,1.08l-8.91,7.66l-0.66,8.71c-0.06,0.87-0.83,1.53-1.7,1.46c-0.88-0.07-1.53-0.83-1.46-1.7l0.7-9.37
				c0.03-0.42,0.23-0.81,0.55-1.08l8.91-7.66l2.18-28.94C118.65,185.28,118.73,185.04,118.85,184.83z"/>
		</g>
		<g>
			<path class="st12" d="M47.88,211.92c0.08-0.14,0.19-0.27,0.32-0.38l9.88-8.5c0.32-0.27,0.73-0.41,1.15-0.38l29.64,2.23
				l17.87-22.93c0.54-0.69,1.54-0.82,2.23-0.28c0.69,0.54,0.81,1.54,0.28,2.23l-18.39,23.61c-0.33,0.42-0.84,0.65-1.37,0.61
				l-29.83-2.25l-9.38,8.07c-0.66,0.57-1.67,0.5-2.24-0.17C47.58,213.25,47.54,212.49,47.88,211.92z"/>
		</g>
		<g>
			<path class="st12" d="M148.6,172.66c0.1-0.16,0.23-0.31,0.38-0.43c4.2-3.25,7.66-3.13,9.82-2.46c3.57,1.11,5.74,4.32,6.34,6.2
				c0.26,0.84-0.2,1.73-1.04,1.99c-0.84,0.26-1.73-0.2-1.99-1.04c-0.32-1.01-1.78-3.35-4.25-4.12c-2.1-0.66-4.43-0.01-6.93,1.93
				c-0.69,0.54-1.69,0.41-2.23-0.28C148.29,173.92,148.27,173.2,148.6,172.66z"/>
		</g>
		<g>
			<path class="st12" d="M139.78,170.05c0.16-0.27,0.41-0.5,0.73-0.63c1.76-0.76,3.55-1.44,5.26-2.08c4.93-1.87,9.6-3.62,9.79-6.21
				c0.65-8.55,8.19-9.82,13.7-10.75c0.81-0.13,1.6-0.27,2.34-0.42c0.86-0.17,1.7,0.38,1.87,1.24c0.17,0.86-0.38,1.7-1.24,1.87
				c-0.78,0.16-1.6,0.3-2.44,0.44c-6.41,1.08-10.64,2.21-11.07,7.86c-0.34,4.59-5.67,6.61-11.83,8.94
				c-1.67,0.63-3.41,1.29-5.13,2.03c-0.81,0.35-1.74-0.02-2.09-0.83C139.47,171.01,139.53,170.47,139.78,170.05z"/>
		</g>
		<g>
			<path class="st12" d="M130.15,152.22c0.09-0.14,0.2-0.27,0.32-0.38l14.39-12.38c0.32-0.27,0.73-0.41,1.15-0.38l16.6,1.25
				c1.64-1.34,7.01-5.72,9.62-7.96c0.67-0.57,1.67-0.5,2.24,0.17c0.57,0.66,0.49,1.67-0.17,2.24c-3.12,2.68-10.11,8.36-10.17,8.42
				c-0.32,0.26-0.72,0.38-1.12,0.35l-16.58-1.25l-13.48,11.6l-3.63,17.54c-0.18,0.86-1.02,1.41-1.88,1.23
				c-0.86-0.18-1.41-1.02-1.23-1.88l3.73-18.07C129.99,152.54,130.06,152.37,130.15,152.22z"/>
		</g>
		<g>
			<path class="st12" d="M114.83,121.43c0.3-0.49,0.86-0.81,1.48-0.76c0.88,0.07,1.53,0.83,1.46,1.7l-0.66,8.71l7.66,8.91
				c0.27,0.32,0.41,0.73,0.38,1.15l-2.23,29.6c-0.07,0.88-0.83,1.53-1.7,1.46c-0.88-0.07-1.53-0.83-1.46-1.7l2.18-28.94l-7.66-8.91
				c-0.27-0.32-0.41-0.73-0.38-1.15l0.71-9.37C114.62,121.87,114.7,121.64,114.83,121.43z"/>
		</g>
		<g>
			<path class="st12" d="M53.87,132.39c0.08-0.14,0.19-0.27,0.32-0.38c0.66-0.57,1.67-0.5,2.24,0.17l8.07,9.38l29.83,2.24
				c0.53,0.04,1,0.34,1.26,0.81l14.65,26.1c0.43,0.76,0.16,1.73-0.61,2.16c-0.76,0.43-1.73,0.16-2.16-0.61l-14.24-25.35l-29.64-2.23
				c-0.42-0.03-0.81-0.23-1.08-0.55l-8.5-9.88C53.56,133.72,53.52,132.96,53.87,132.39z"/>
		</g>
	</g>
	<g>
		<g>
			<path class="st12" d="M208.53,326.37l-0.07-6.07c-0.05-4.19-3.52-7.58-7.71-7.53l-6.07,0.07c-4.19,0.05-7.58,3.52-7.53,7.71
				l0.07,6.07c0.04,3.16,2.02,5.87,4.79,6.98c-2.74,1.28-4.53,3.4-4.5,5.78c0.03,2.86,2.68,5.29,6.44,6.31
				c-2.07,1.39-3.44,3.76-3.41,6.42l0.02,1.93c0.03,2.43,1.21,4.59,3.02,5.97c-3.4,0.79-5.94,3.88-5.9,7.51l0.2,17.38
				c0.05,4.19,3.52,7.58,7.71,7.53l6.07-0.07c4.19-0.05,7.58-3.52,7.53-7.71l-0.2-17.38c-0.04-3.63-2.65-6.65-6.07-7.37
				c1.77-1.42,2.91-3.6,2.88-6.04l-0.02-1.93c-0.03-2.67-1.45-5-3.55-6.34c3.73-1.1,6.33-3.59,6.3-6.45
				c-0.03-2.38-1.86-4.45-4.63-5.67C206.65,332.28,208.57,329.53,208.53,326.37z"/>
		</g>
		<g>
			<path class="st12" d="M203.79,315.22c-0.12-0.06-0.24-0.14-0.35-0.23c-0.66-0.58-0.72-1.58-0.14-2.24
				c2.09-2.37,2.89-4.65,2.37-6.79c-0.61-2.52-2.85-4.13-3.84-4.51c-0.82-0.31-1.22-1.23-0.91-2.05c0.32-0.82,1.24-1.22,2.05-0.91
				c1.86,0.71,4.9,3.09,5.78,6.72c0.54,2.2,0.44,5.66-3.08,9.64C205.2,315.4,204.42,315.53,203.79,315.22z"/>
		</g>
		<g>
			<path class="st12" d="M205.83,324.18c-0.01,0-0.01-0.01-0.02-0.01c-0.78-0.4-1.09-1.35-0.69-2.14c0.85-1.67,1.62-3.36,2.36-4.99
				c2.72-6,5.07-11.19,9.68-11.24c5.66-0.06,7.05-4.22,8.54-10.54c0.2-0.83,0.39-1.64,0.59-2.41c0.23-0.85,1.1-1.35,1.95-1.12
				c0.84,0.22,1.35,1.1,1.12,1.95c-0.2,0.73-0.38,1.51-0.57,2.31c-1.28,5.44-3.03,12.9-11.6,12.99c-2.59,0.03-4.64,4.57-6.82,9.37
				c-0.76,1.67-1.55,3.41-2.42,5.12C207.55,324.25,206.61,324.57,205.83,324.18z"/>
		</g>
		<g>
			<path class="st12" d="M204.74,337.51c-0.45-0.22-0.79-0.66-0.87-1.2c-0.12-0.87,0.48-1.67,1.35-1.8l17.73-2.5l12.43-12.72
				l-0.19-16.62c-0.01-0.41,0.15-0.8,0.42-1.1c0.06-0.07,6.18-6.68,9.05-9.62c0.61-0.63,1.62-0.64,2.24-0.03
				c0.63,0.61,0.64,1.62,0.02,2.25c-2.4,2.46-7.12,7.53-8.56,9.09l0.19,16.65c0.01,0.42-0.16,0.83-0.45,1.13l-13.27,13.58
				c-0.24,0.25-0.57,0.41-0.91,0.46l-18.27,2.57C205.34,337.7,205.02,337.64,204.74,337.51z"/>
		</g>
		<g>
			<path class="st12" d="M204.82,343.96c-0.52-0.26-0.88-0.79-0.89-1.41c-0.01-0.88,0.69-1.6,1.57-1.6l29.68-0.34
				c0.42,0,0.83,0.16,1.13,0.45l8.4,8.21l8.73-0.1c0.88-0.01,1.6,0.69,1.6,1.57c0.01,0.88-0.69,1.6-1.57,1.61l-9.39,0.11
				c-0.42,0-0.83-0.16-1.13-0.45l-8.4-8.21l-29.02,0.33C205.28,344.12,205.03,344.07,204.82,343.96z"/>
		</g>
		<g>
			<path class="st12" d="M237.93,412.32c-0.15-0.07-0.28-0.17-0.41-0.29l-9.32-9.11c-0.3-0.29-0.47-0.69-0.48-1.12l-0.34-29.72
				L203,356.26c-0.74-0.48-0.94-1.46-0.47-2.19c0.48-0.73,1.46-0.94,2.19-0.47l25.11,16.29c0.45,0.29,0.72,0.78,0.72,1.31
				l0.34,29.91l8.85,8.65c0.63,0.61,0.64,1.62,0.03,2.24C239.28,412.51,238.53,412.62,237.93,412.32z"/>
		</g>
		<g>
			<path class="st12" d="M190.12,315.38c-0.17-0.08-0.33-0.2-0.46-0.35c-3.61-3.9-3.78-7.36-3.29-9.57c0.8-3.65,3.81-6.09,5.63-6.85
				c0.81-0.33,1.74,0.05,2.07,0.86c0.33,0.81-0.05,1.74-0.86,2.07c-0.98,0.4-3.18,2.06-3.74,4.59c-0.47,2.15,0.38,4.41,2.52,6.73
				c0.6,0.64,0.56,1.65-0.09,2.24C191.4,315.58,190.69,315.66,190.12,315.38z"/>
		</g>
		<g>
			<path class="st12" d="M188.28,324.38c-0.28-0.14-0.53-0.37-0.69-0.67c-0.91-1.69-1.74-3.41-2.53-5.06
				c-2.29-4.75-4.44-9.25-7.04-9.22c-8.57,0.1-10.49-7.31-11.89-12.73c-0.2-0.79-0.41-1.57-0.62-2.29
				c-0.25-0.84,0.23-1.72,1.07-1.97c0.84-0.25,1.73,0.23,1.97,1.08c0.22,0.76,0.43,1.56,0.65,2.39c1.63,6.29,3.12,10.41,8.78,10.35
				c4.6-0.06,7.07,5.08,9.93,11.02c0.77,1.61,1.58,3.29,2.47,4.93c0.42,0.77,0.13,1.73-0.65,2.15
				C189.27,324.61,188.73,324.6,188.28,324.38z"/>
		</g>
		<g>
			<path class="st12" d="M171.35,335.52c-0.15-0.07-0.29-0.17-0.41-0.29l-13.58-13.27c-0.3-0.29-0.47-0.69-0.48-1.12l-0.19-16.65
				c-1.48-1.52-6.31-6.49-8.76-8.89c-0.63-0.61-0.64-1.62-0.02-2.25c0.61-0.63,1.62-0.64,2.24-0.03c2.94,2.87,9.2,9.35,9.27,9.41
				c0.28,0.29,0.44,0.68,0.45,1.09l0.19,16.62l12.72,12.43l17.78,2.1c0.88,0.1,1.49,0.89,1.39,1.76c-0.1,0.87-0.89,1.49-1.76,1.39
				l-18.32-2.16C171.68,335.65,171.51,335.6,171.35,335.52z"/>
		</g>
		<g>
			<path class="st12" d="M142,353.44c-0.52-0.26-0.88-0.79-0.89-1.41c-0.01-0.88,0.69-1.6,1.57-1.6l8.74-0.1l8.21-8.4
				c0.29-0.3,0.69-0.47,1.12-0.48l29.68-0.34c0.88-0.01,1.6,0.69,1.6,1.57c0.01,0.88-0.69,1.6-1.57,1.6l-29.02,0.33l-8.21,8.4
				c-0.29,0.3-0.69,0.47-1.12,0.48l-9.39,0.11C142.46,353.61,142.22,353.55,142,353.44z"/>
		</g>
		<g>
			<path class="st12" d="M158.18,413.23c-0.15-0.07-0.28-0.17-0.41-0.29c-0.63-0.61-0.64-1.62-0.03-2.24l8.65-8.85l-0.34-29.91
				c-0.01-0.53,0.25-1.03,0.69-1.33l24.73-16.85c0.72-0.49,1.71-0.31,2.21,0.42c0.49,0.72,0.31,1.71-0.42,2.21l-24.03,16.37
				l0.34,29.72c0.01,0.42-0.16,0.83-0.45,1.13l-9.11,9.32C159.53,413.42,158.78,413.52,158.18,413.23z"/>
		</g>
	</g>
	<g>
		<g>
			<path class="st12" d="M304.9,55.15l-4.78-3.73c-3.3-2.58-8.12-1.99-10.7,1.32l-3.73,4.78c-2.58,3.3-1.99,8.12,1.32,10.7
				l4.78,3.73c2.49,1.95,5.84,2.08,8.45,0.62c-0.71,2.94-0.17,5.66,1.7,7.12c2.26,1.76,5.81,1.2,8.95-1.1
				c-0.21,2.48,0.79,5.03,2.89,6.67l1.52,1.19c1.92,1.5,4.34,1.92,6.55,1.37c-1.5,3.15-0.68,7.06,2.18,9.3l13.7,10.69
				c3.3,2.58,8.12,1.99,10.7-1.32l3.73-4.78c2.58-3.3,1.99-8.12-1.32-10.7l-13.7-10.69c-2.86-2.23-6.85-2.08-9.55,0.14
				c0-2.27-1-4.52-2.92-6.02l-1.52-1.19c-2.1-1.64-4.81-1.99-7.17-1.19c1.47-3.61,1.15-7.19-1.11-8.95
				c-1.87-1.46-4.64-1.32-7.32,0.08C308.34,60.32,307.39,57.1,304.9,55.15z"/>
		</g>
		<g>
			<path class="st12" d="M293.22,51.9c-0.13,0.06-0.26,0.1-0.4,0.13c-0.86,0.15-1.69-0.43-1.84-1.29c-0.55-3.11-1.83-5.16-3.82-6.09
				c-2.35-1.1-5.01-0.35-5.92,0.19c-0.75,0.45-1.73,0.19-2.17-0.57c-0.44-0.76-0.18-1.73,0.57-2.17c1.71-1.01,5.47-1.9,8.86-0.32
				c2.06,0.96,4.7,3.19,5.61,8.42C294.24,50.91,293.86,51.61,293.22,51.9z"/>
		</g>
		<g>
			<path class="st12" d="M301.5,55.9c-0.01,0-0.01,0.01-0.02,0.01c-0.8,0.36-1.74,0.01-2.1-0.79c-0.77-1.7-1.62-3.36-2.43-4.95
				c-2.99-5.87-5.58-10.94-2.74-14.58c3.48-4.46,1.11-8.14-2.91-13.26c-0.53-0.67-1.04-1.33-1.51-1.97
				c-0.52-0.71-0.37-1.7,0.34-2.22c0.7-0.52,1.7-0.37,2.22,0.34c0.45,0.61,0.94,1.24,1.45,1.88c3.45,4.4,8.18,10.42,2.91,17.17
				c-1.59,2.04,0.67,6.48,3.07,11.18c0.83,1.63,1.7,3.34,2.49,5.08C302.63,54.6,302.28,55.53,301.5,55.9z"/>
		</g>
		<g>
			<path class="st12" d="M311.23,65.07c-0.46,0.22-1.01,0.21-1.48-0.07c-0.75-0.45-1-1.42-0.56-2.18l9.12-15.41l-2.18-17.65
				l-13.1-10.23c-0.32-0.25-0.53-0.61-0.59-1.01c-0.01-0.09-1.36-8.99-1.86-13.07c-0.11-0.87,0.51-1.66,1.38-1.77
				c0.87-0.11,1.66,0.51,1.77,1.38c0.42,3.41,1.44,10.26,1.76,12.36l13.12,10.24c0.33,0.26,0.55,0.64,0.6,1.06l2.32,18.84
				c0.04,0.35-0.03,0.7-0.21,1l-9.39,15.88C311.75,64.72,311.51,64.94,311.23,65.07z"/>
		</g>
		<g>
			<path class="st12" d="M316.31,69.04c-0.52,0.25-1.17,0.2-1.65-0.19c-0.69-0.54-0.82-1.54-0.27-2.23l18.26-23.4
				c0.26-0.33,0.64-0.55,1.06-0.6l11.66-1.44l5.37-6.89c0.54-0.69,1.54-0.81,2.23-0.27c0.69,0.54,0.82,1.54,0.28,2.23l-5.78,7.4
				c-0.26,0.33-0.64,0.55-1.06,0.6l-11.66,1.44l-17.86,22.88C316.73,68.78,316.53,68.93,316.31,69.04z"/>
		</g>
		<g>
			<path class="st12" d="M390.4,85.83c-0.15,0.07-0.31,0.12-0.48,0.14l-12.94,1.59c-0.42,0.05-0.84-0.06-1.17-0.32l-23.43-18.29
				l-27.59,9.18c-0.83,0.28-1.73-0.17-2.01-1c-0.28-0.83,0.18-1.73,1-2.01l28.4-9.45c0.5-0.17,1.06-0.07,1.48,0.25l23.58,18.41
				l12.28-1.51c0.87-0.11,1.66,0.51,1.77,1.38C391.39,84.9,391,85.55,390.4,85.83z"/>
		</g>
		<g>
			<path class="st12" d="M284.81,62.68c-0.17,0.08-0.36,0.13-0.56,0.15c-5.3,0.38-8.11-1.64-9.53-3.4
				c-2.35-2.91-2.39-6.78-1.84-8.67c0.25-0.84,1.13-1.33,1.97-1.08c0.84,0.24,1.33,1.12,1.08,1.97c-0.3,1.02-0.38,3.77,1.25,5.79
				c1.38,1.71,3.68,2.46,6.83,2.23c0.87-0.06,1.64,0.59,1.7,1.47C285.77,61.8,285.39,62.41,284.81,62.68z"/>
		</g>
		<g>
			<path class="st12" d="M290.7,69.74c-0.29,0.13-0.62,0.19-0.96,0.12c-1.89-0.34-3.75-0.77-5.53-1.18
				c-5.14-1.18-10-2.31-11.59-0.26c-5.28,6.76-12.26,3.63-17.36,1.35c-0.75-0.34-1.48-0.66-2.18-0.95c-0.81-0.33-1.2-1.26-0.87-2.07
				c0.33-0.81,1.26-1.2,2.07-0.87c0.73,0.3,1.49,0.64,2.27,0.99c5.93,2.65,10.08,4.06,13.57-0.4c2.83-3.63,8.38-2.36,14.81-0.88
				c1.74,0.4,3.55,0.82,5.39,1.15c0.86,0.16,1.43,0.98,1.28,1.85C291.49,69.11,291.15,69.53,290.7,69.74z"/>
		</g>
		<g>
			<path class="st12" d="M288.83,89.92c-0.15,0.07-0.31,0.12-0.48,0.14l-18.84,2.32c-0.42,0.05-0.84-0.06-1.17-0.32l-13.12-10.24
				c-2.11,0.2-9.01,0.88-12.42,1.3c-0.87,0.11-1.66-0.51-1.77-1.38c-0.11-0.87,0.51-1.66,1.38-1.77c4.08-0.5,13.05-1.36,13.13-1.37
				c0.4-0.04,0.81,0.08,1.13,0.33l13.1,10.23l17.65-2.18l12.74-12.59c0.63-0.62,1.63-0.61,2.24,0.01c0.62,0.62,0.61,1.63-0.01,2.24
				l-13.12,12.97C289.14,89.73,288.99,89.84,288.83,89.92z"/>
		</g>
		<g>
			<path class="st12" d="M284.51,124.03c-0.52,0.25-1.17,0.2-1.65-0.19c-0.69-0.54-0.82-1.54-0.27-2.23l5.38-6.89l-1.44-11.66
				c-0.05-0.42,0.06-0.84,0.32-1.17l18.27-23.4c0.54-0.69,1.54-0.82,2.23-0.27c0.69,0.54,0.82,1.54,0.27,2.23l-17.86,22.88
				l1.44,11.66c0.05,0.42-0.06,0.84-0.32,1.17l-5.78,7.4C284.93,123.78,284.73,123.93,284.51,124.03z"/>
		</g>
		<g>
			<path class="st12" d="M341.32,148.71c-0.15,0.07-0.31,0.12-0.48,0.14c-0.87,0.11-1.66-0.51-1.77-1.38l-1.51-12.28l-23.58-18.41
				c-0.42-0.33-0.65-0.84-0.61-1.37l2.27-29.84c0.07-0.87,0.83-1.53,1.7-1.46c0.87,0.07,1.53,0.83,1.46,1.7l-2.21,28.99l23.43,18.29
				c0.33,0.26,0.55,0.64,0.6,1.06l1.59,12.94C342.31,147.77,341.93,148.42,341.32,148.71z"/>
		</g>
	</g>
	<g>
		<g>
			<path class="st16" d="M345.32,267.56l5.23-3.07c3.61-2.12,4.83-6.82,2.71-10.43l-3.07-5.23c-2.12-3.61-6.82-4.83-10.43-2.71
				l-5.23,3.07c-2.73,1.6-4.09,4.67-3.68,7.63c-2.48-1.75-5.2-2.25-7.25-1.04c-2.47,1.45-3.26,4.96-2.28,8.72
				c-2.23-1.11-4.97-1.12-7.26,0.23l-1.66,0.98c-2.1,1.23-3.38,3.33-3.68,5.59c-2.38-2.56-6.32-3.23-9.45-1.39l-14.98,8.8
				c-3.61,2.12-4.83,6.82-2.71,10.43l3.07,5.23c2.12,3.61,6.82,4.83,10.43,2.71l14.98-8.8c3.13-1.84,4.46-5.6,3.38-8.93
				c2.11,0.84,4.57,0.74,6.67-0.49l1.66-0.98c2.3-1.35,3.62-3.74,3.74-6.23c2.81,2.69,6.26,3.71,8.73,2.26
				c2.05-1.2,2.94-3.83,2.62-6.84C339.25,268.86,342.59,269.16,345.32,267.56z"/>
		</g>
		<g>
			<path class="st16" d="M352.64,257.91c-0.01-0.14,0-0.28,0.03-0.42c0.18-0.86,1.02-1.41,1.88-1.23c3.1,0.64,5.47,0.2,7.07-1.31
				c1.89-1.79,2.17-4.53,2.01-5.57c-0.14-0.86,0.46-1.67,1.33-1.81c0.87-0.13,1.68,0.47,1.81,1.33c0.31,1.96-0.25,5.79-2.96,8.35
				c-1.64,1.56-4.7,3.19-9.9,2.12C353.18,259.21,352.68,258.6,352.64,257.91z"/>
		</g>
		<g>
			<path class="st16" d="M345.88,264.13c0-0.01,0-0.01,0-0.02c-0.04-0.88,0.63-1.62,1.51-1.66c1.87-0.09,3.72-0.27,5.5-0.43
				c6.56-0.62,12.23-1.15,14.56,2.82c2.86,4.88,7.16,4.03,13.39,2.18c0.82-0.24,1.62-0.48,2.38-0.68c0.85-0.22,1.72,0.28,1.94,1.13
				c0.23,0.84-0.28,1.72-1.13,1.94c-0.73,0.19-1.5,0.42-2.29,0.65c-5.36,1.59-12.7,3.77-17.04-3.61c-1.31-2.23-6.27-1.76-11.52-1.27
				c-1.82,0.17-3.73,0.35-5.64,0.44C346.67,265.66,345.93,264.99,345.88,264.13z"/>
		</g>
		<g>
			<path class="st16" d="M333.77,269.8c-0.03-0.51,0.18-1.02,0.61-1.35c0.69-0.54,1.69-0.41,2.23,0.28l10.97,14.15l17.22,4.48
				l14.33-8.42c0.35-0.21,0.76-0.27,1.16-0.18c0.09,0.02,8.86,2.04,12.84,3.08c0.85,0.22,1.35,1.09,1.14,1.94
				c-0.22,0.85-1.09,1.36-1.94,1.14c-3.32-0.86-10.07-2.43-12.14-2.92l-14.36,8.43c-0.36,0.21-0.8,0.27-1.2,0.17l-18.37-4.78
				c-0.34-0.09-0.64-0.29-0.86-0.56l-11.31-14.58C333.9,270.41,333.79,270.11,333.77,269.8z"/>
		</g>
		<g>
			<path class="st16" d="M328.21,273.07c-0.04-0.58,0.25-1.16,0.78-1.47c0.75-0.44,1.73-0.19,2.17,0.56l15.03,25.6
				c0.21,0.36,0.27,0.8,0.17,1.2l-2.96,11.37l4.42,7.53c0.45,0.75,0.19,1.73-0.56,2.17c-0.76,0.44-1.73,0.19-2.17-0.56l-4.76-8.1
				c-0.21-0.36-0.27-0.8-0.17-1.2l2.96-11.37l-14.7-25.03C328.29,273.55,328.22,273.31,328.21,273.07z"/>
		</g>
		<g>
			<path class="st16" d="M285.31,335.76c-0.01-0.16,0-0.33,0.05-0.5l3.28-12.61c0.11-0.41,0.37-0.76,0.73-0.97L315,306.63
				l1.62-29.03c0.05-0.88,0.8-1.54,1.67-1.5c0.88,0.05,1.55,0.8,1.5,1.67l-1.67,29.88c-0.03,0.53-0.32,1.01-0.78,1.28l-25.8,15.15
				l-3.11,11.98c-0.22,0.85-1.09,1.36-1.94,1.14C285.82,337.03,285.35,336.43,285.31,335.76z"/>
		</g>
		<g>
			<path class="st16" d="M345.72,246.12c-0.01-0.19,0.01-0.38,0.07-0.57c1.59-5.07,4.51-6.94,6.67-7.61
				c3.57-1.12,7.18,0.28,8.74,1.49c0.69,0.54,0.82,1.53,0.28,2.23c-0.54,0.69-1.53,0.82-2.23,0.28c-0.84-0.65-3.37-1.74-5.84-0.97
				c-2.1,0.66-3.64,2.52-4.59,5.53c-0.26,0.84-1.15,1.3-1.99,1.04C346.18,247.33,345.75,246.75,345.72,246.12z"/>
		</g>
		<g>
			<path class="st16" d="M336.99,248.99c-0.02-0.32,0.06-0.64,0.24-0.93c1.01-1.63,2.1-3.2,3.14-4.71
				c2.99-4.35,5.83-8.45,4.51-10.68c-4.34-7.39,1.14-12.74,5.14-16.64c0.59-0.57,1.16-1.13,1.68-1.68c0.61-0.63,1.61-0.65,2.24-0.05
				c0.63,0.61,0.65,1.61,0.04,2.24c-0.55,0.57-1.14,1.15-1.75,1.75c-4.65,4.54-7.49,7.88-4.62,12.76c2.33,3.97-0.89,8.66-4.63,14.09
				c-1.01,1.47-2.07,3-3.06,4.59c-0.46,0.74-1.44,0.97-2.19,0.51C337.28,249.96,337.02,249.49,336.99,248.99z"/>
		</g>
		<g>
			<path class="st16" d="M318.91,239.83c-0.01-0.17,0.01-0.33,0.05-0.5l4.78-18.37c0.11-0.41,0.37-0.76,0.73-0.97l14.35-8.43
				c0.59-2.04,2.5-8.7,3.37-12.02c0.22-0.85,1.09-1.36,1.94-1.14c0.85,0.22,1.35,1.09,1.14,1.94c-1.03,3.98-3.54,12.63-3.57,12.71
				c-0.11,0.39-0.37,0.72-0.72,0.93l-14.33,8.42l-4.47,17.21l7.01,16.48c0.34,0.81-0.03,1.74-0.84,2.08
				c-0.81,0.34-1.74-0.03-2.08-0.84l-7.22-16.98C318.97,240.18,318.92,240.01,318.91,239.83z"/>
		</g>
		<g>
			<path class="st16" d="M288.78,223.25c-0.04-0.58,0.25-1.16,0.78-1.47c0.76-0.44,1.73-0.19,2.17,0.56l4.42,7.53l11.37,2.96
				c0.41,0.11,0.76,0.37,0.97,0.73l15.03,25.6c0.44,0.76,0.19,1.73-0.56,2.17c-0.76,0.44-1.73,0.19-2.17-0.56l-14.7-25.03
				l-11.37-2.96c-0.41-0.11-0.76-0.37-0.97-0.73l-4.76-8.1C288.87,223.73,288.79,223.49,288.78,223.25z"/>
		</g>
		<g>
			<path class="st16" d="M244.93,266.99c-0.01-0.16,0-0.33,0.05-0.5c0.22-0.85,1.09-1.36,1.94-1.14l11.98,3.11l25.79-15.15
				c0.46-0.27,1.02-0.29,1.5-0.06l26.91,13.1c0.79,0.38,1.12,1.33,0.73,2.12c-0.38,0.79-1.33,1.12-2.12,0.73l-26.14-12.73
				l-25.63,15.05c-0.36,0.21-0.8,0.27-1.2,0.17l-12.61-3.28C245.43,268.25,244.97,267.66,244.93,266.99z"/>
		</g>
	</g>
	<g>
		<g>
			<path class="st16" d="M77.89,350.54l-5.34,2.89c-3.69,1.99-5.07,6.64-3.08,10.33l2.89,5.34c1.99,3.69,6.64,5.07,10.33,3.08
				l5.34-2.89c2.78-1.5,4.25-4.52,3.95-7.49c2.41,1.83,5.12,2.43,7.21,1.3c2.52-1.36,3.43-4.84,2.58-8.64
				c2.19,1.19,4.92,1.29,7.27,0.02l1.69-0.92c2.14-1.16,3.5-3.21,3.88-5.45c2.29,2.64,6.2,3.45,9.39,1.73l15.28-8.26
				c3.69-1.99,5.07-6.64,3.08-10.33l-2.89-5.34c-1.99-3.69-6.64-5.07-10.33-3.08l-15.28,8.26c-3.19,1.73-4.66,5.44-3.7,8.8
				c-2.08-0.91-4.54-0.9-6.68,0.26l-1.69,0.92c-2.34,1.27-3.75,3.61-3.96,6.1c-2.72-2.79-6.12-3.93-8.64-2.57
				c-2.09,1.13-3.07,3.72-2.86,6.74C84,349.46,80.67,349.04,77.89,350.54z"/>
		</g>
		<g>
			<path class="st16" d="M70.23,359.93c0,0.14-0.01,0.28-0.05,0.42c-0.21,0.85-1.07,1.38-1.92,1.17c-3.07-0.75-5.46-0.39-7.11,1.06
				c-1.95,1.72-2.33,4.45-2.2,5.5c0.11,0.87-0.52,1.66-1.39,1.76c-0.87,0.1-1.66-0.52-1.76-1.4c-0.24-1.97,0.45-5.77,3.25-8.25
				c1.7-1.5,4.81-3.03,9.96-1.77C69.73,358.6,70.21,359.23,70.23,359.93z"/>
		</g>
		<g>
			<path class="st16" d="M77.21,353.95c0,0.01,0,0.01,0,0.02c0.01,0.88-0.69,1.6-1.57,1.61c-1.87,0.02-3.73,0.14-5.51,0.24
				c-6.58,0.39-12.26,0.72-14.45-3.33c-2.69-4.98-7.02-4.28-13.31-2.65c-0.83,0.21-1.63,0.42-2.41,0.6c-0.86,0.19-1.71-0.34-1.9-1.2
				c-0.2-0.85,0.34-1.7,1.2-1.9c0.74-0.17,1.51-0.37,2.31-0.57c5.41-1.4,12.82-3.32,16.9,4.21c1.23,2.28,6.21,1.98,11.47,1.67
				c1.83-0.11,3.74-0.22,5.66-0.24C76.47,352.39,77.19,353.08,77.21,353.95z"/>
		</g>
		<g>
			<path class="st16" d="M89.51,348.71c0.01,0.51-0.22,1.01-0.66,1.33c-0.71,0.51-1.7,0.35-2.22-0.36l-10.47-14.53l-17.05-5.08
				l-14.62,7.91c-0.36,0.19-0.77,0.24-1.17,0.14c-0.09-0.02-8.79-2.36-12.72-3.53c-0.84-0.25-1.32-1.13-1.07-1.97
				c0.25-0.84,1.14-1.32,1.98-1.07c3.29,0.98,9.98,2.79,12.03,3.34l14.64-7.92c0.37-0.2,0.81-0.25,1.21-0.13l18.19,5.42
				c0.34,0.1,0.63,0.31,0.84,0.59l10.78,14.97C89.4,348.09,89.5,348.4,89.51,348.71z"/>
		</g>
		<g>
			<path class="st16" d="M95.18,345.64c0.01,0.58-0.29,1.15-0.83,1.44c-0.77,0.42-1.73,0.13-2.15-0.64l-14.12-26.11
				c-0.2-0.37-0.25-0.81-0.13-1.21l3.36-11.26l-4.16-7.68c-0.42-0.77-0.13-1.73,0.64-2.15c0.77-0.42,1.73-0.13,2.15,0.64l4.47,8.26
				c0.2,0.37,0.24,0.81,0.13,1.21l-3.36,11.26l13.81,25.53C95.11,345.16,95.18,345.4,95.18,345.64z"/>
		</g>
		<g>
			<path class="st16" d="M140.26,284.5c0,0.16-0.02,0.33-0.07,0.49l-3.72,12.49c-0.12,0.4-0.39,0.74-0.77,0.94l-26.14,14.14
				l-2.64,28.95c-0.08,0.87-0.85,1.52-1.72,1.44c-0.87-0.08-1.52-0.86-1.44-1.72l2.72-29.8c0.05-0.53,0.36-1,0.83-1.25l26.31-14.23
				l3.54-11.86c0.25-0.84,1.13-1.32,1.97-1.07C139.8,283.22,140.24,283.83,140.26,284.5z"/>
		</g>
		<g>
			<path class="st16" d="M76.73,371.96c0,0.19-0.02,0.38-0.09,0.57c-1.77,5.01-4.75,6.77-6.94,7.37c-3.6,0.99-7.17-0.53-8.68-1.79
				c-0.67-0.57-0.76-1.56-0.2-2.24c0.56-0.67,1.56-0.76,2.24-0.2c0.81,0.68,3.3,1.86,5.81,1.17c2.12-0.58,3.73-2.39,4.78-5.37
				c0.29-0.83,1.2-1.26,2.03-0.97C76.31,370.73,76.72,371.32,76.73,371.96z"/>
		</g>
		<g>
			<path class="st16" d="M85.56,369.39c0.01,0.32-0.08,0.64-0.27,0.93c-1.07,1.59-2.21,3.13-3.3,4.6
				c-3.14,4.24-6.12,8.24-4.88,10.52c4.08,7.54-1.59,12.69-5.72,16.45c-0.61,0.55-1.2,1.09-1.74,1.62c-0.63,0.61-1.63,0.6-2.24-0.03
				c-0.61-0.63-0.6-1.64,0.03-2.24c0.57-0.55,1.18-1.11,1.82-1.69c4.81-4.37,7.76-7.61,5.07-12.59c-2.19-4.05,1.2-8.63,5.13-13.92
				c1.06-1.43,2.17-2.93,3.22-4.48c0.49-0.73,1.48-0.92,2.2-0.43C85.3,368.41,85.54,368.89,85.56,369.39z"/>
		</g>
		<g>
			<path class="st16" d="M103.3,379.19c0,0.17-0.02,0.33-0.07,0.49l-5.42,18.19c-0.12,0.4-0.39,0.74-0.77,0.94l-14.64,7.92
				c-0.66,2.02-2.81,8.6-3.79,11.9c-0.25,0.84-1.14,1.32-1.98,1.07c-0.84-0.25-1.32-1.14-1.07-1.97c1.17-3.94,3.99-12.5,4.01-12.58
				c0.13-0.39,0.4-0.71,0.75-0.9l14.62-7.91l5.08-17.05l-6.43-16.72c-0.32-0.82,0.09-1.74,0.91-2.05c0.82-0.32,1.74,0.09,2.05,0.91
				l6.62,17.22C103.26,378.83,103.29,379.01,103.3,379.19z"/>
		</g>
		<g>
			<path class="st16" d="M132.83,396.82c0.01,0.58-0.29,1.15-0.83,1.44c-0.77,0.42-1.73,0.13-2.15-0.64l-4.16-7.68l-11.26-3.36
				c-0.4-0.12-0.74-0.39-0.94-0.77l-14.12-26.11c-0.42-0.77-0.13-1.73,0.64-2.15c0.77-0.42,1.73-0.13,2.15,0.64l13.81,25.53
				l11.26,3.36c0.4,0.12,0.74,0.39,0.94,0.77l4.47,8.26C132.76,396.33,132.82,396.57,132.83,396.82z"/>
		</g>
		<g>
			<path class="st16" d="M178.2,354.65c0,0.16-0.02,0.33-0.07,0.49c-0.25,0.84-1.13,1.32-1.97,1.07l-11.86-3.54l-26.31,14.23
				c-0.47,0.25-1.03,0.26-1.5,0.01l-26.43-14.04c-0.77-0.41-1.07-1.37-0.66-2.15c0.41-0.77,1.37-1.07,2.15-0.66l25.68,13.64
				l26.14-14.14c0.37-0.2,0.81-0.25,1.21-0.13l12.49,3.72C177.74,353.37,178.18,353.99,178.2,354.65z"/>
		</g>
	</g>
	<g>
		<g>
			<path class="st16" d="M180.77,248.7l-1.62,5.85c-1.12,4.04,1.26,8.26,5.3,9.38l5.85,1.62c4.04,1.12,8.26-1.26,9.38-5.3l1.62-5.85
				c0.85-3.05-0.31-6.2-2.66-8.04c2.99-0.47,5.3-2,5.94-4.29c0.77-2.76-1.1-5.83-4.43-7.85c2.38-0.75,4.35-2.65,5.06-5.22l0.52-1.86
				c0.65-2.35,0.11-4.75-1.24-6.57c3.49,0.19,6.79-2.07,7.76-5.56l4.65-16.74c1.12-4.04-1.26-8.26-5.3-9.38l-5.85-1.62
				c-4.04-1.12-8.26,1.26-9.38,5.3l-4.65,16.74c-0.97,3.5,0.69,7.13,3.78,8.77c-2.1,0.87-3.8,2.65-4.45,4.99l-0.52,1.86
				c-0.71,2.57,0,5.21,1.64,7.08c-3.89,0.02-7.08,1.68-7.85,4.44c-0.64,2.29,0.55,4.79,2.87,6.74
				C184.23,243.55,181.61,245.66,180.77,248.7z"/>
		</g>
		<g>
			<path class="st16" d="M182.21,260.73c0.1,0.09,0.19,0.2,0.27,0.32c0.47,0.74,0.25,1.72-0.49,2.19c-2.67,1.69-4.07,3.66-4.17,5.86
				c-0.11,2.59,1.59,4.76,2.43,5.4c0.7,0.52,0.83,1.53,0.3,2.23c-0.53,0.7-1.53,0.83-2.23,0.3c-1.59-1.2-3.84-4.33-3.68-8.06
				c0.1-2.26,1.16-5.56,5.64-8.4C180.91,260.17,181.7,260.26,182.21,260.73z"/>
		</g>
		<g>
			<path class="st16" d="M182.75,251.56c0,0,0.01,0.01,0.01,0.01c0.64,0.6,0.67,1.6,0.07,2.24c-1.28,1.36-2.49,2.78-3.65,4.14
				c-4.29,5.01-7.99,9.33-12.43,8.1c-5.45-1.51-7.95,2.08-11.14,7.75c-0.42,0.74-0.83,1.47-1.24,2.15
				c-0.45,0.75-1.43,0.99-2.18,0.53c-0.75-0.45-0.99-1.43-0.53-2.18c0.39-0.65,0.79-1.34,1.19-2.06c2.74-4.87,6.51-11.54,14.76-9.25
				c2.49,0.69,5.73-3.09,9.16-7.1c1.19-1.39,2.44-2.84,3.75-4.24C181.12,251.01,182.11,250.97,182.75,251.56z"/>
		</g>
		<g>
			<path class="st16" d="M187.51,239.07c0.37,0.34,0.58,0.86,0.5,1.4c-0.12,0.87-0.93,1.47-1.8,1.35l-17.73-2.54L153,248.02
				l-4.45,16.02c-0.11,0.39-0.36,0.73-0.71,0.93c-0.08,0.05-7.79,4.69-11.37,6.71c-0.76,0.43-1.73,0.16-2.16-0.6
				c-0.43-0.76-0.16-1.73,0.6-2.16c2.99-1.69,8.93-5.25,10.75-6.34l4.46-16.04c0.11-0.41,0.38-0.75,0.75-0.96l16.53-9.34
				c0.3-0.17,0.66-0.24,1.01-0.19l18.26,2.62C186.99,238.71,187.28,238.86,187.51,239.07z"/>
		</g>
		<g>
			<path class="st16" d="M189.24,232.85c0.43,0.39,0.63,1,0.46,1.6c-0.23,0.84-1.11,1.34-1.95,1.1l-28.6-7.95
				c-0.4-0.11-0.75-0.38-0.96-0.75l-5.78-10.23l-8.42-2.34c-0.84-0.23-1.34-1.11-1.1-1.95c0.23-0.85,1.11-1.34,1.96-1.11l9.05,2.51
				c0.4,0.11,0.75,0.38,0.96,0.75l5.78,10.23l27.97,7.77C188.84,232.56,189.06,232.69,189.24,232.85z"/>
		</g>
		<g>
			<path class="st16" d="M176.48,157.96c0.12,0.11,0.23,0.24,0.31,0.39l6.41,11.35c0.21,0.37,0.26,0.8,0.15,1.21l-7.96,28.64
				l19.02,21.99c0.57,0.66,0.5,1.66-0.16,2.24c-0.66,0.57-1.67,0.5-2.24-0.16l-19.57-22.64c-0.35-0.4-0.47-0.95-0.33-1.46
				l8.01-28.82l-6.09-10.78c-0.43-0.76-0.16-1.73,0.6-2.16C175.24,157.41,175.99,157.51,176.48,157.96z"/>
		</g>
		<g>
			<path class="st16" d="M195.39,264.39c0.14,0.13,0.26,0.28,0.35,0.46c2.38,4.75,1.58,8.12,0.5,10.11
				c-1.79,3.28-5.35,4.79-7.31,5.01c-0.87,0.09-1.66-0.53-1.75-1.41c-0.1-0.87,0.53-1.66,1.4-1.75c1.05-0.11,3.63-1.09,4.87-3.37
				c1.05-1.93,0.87-4.34-0.55-7.17c-0.39-0.78-0.08-1.74,0.71-2.13C194.21,263.84,194.92,263.96,195.39,264.39z"/>
		</g>
		<g>
			<path class="st16" d="M199.66,256.26c0.23,0.21,0.41,0.5,0.48,0.84c0.4,1.88,0.72,3.76,1.02,5.57c0.87,5.2,1.68,10.12,4.19,10.81
				c8.26,2.3,8.03,9.95,7.87,15.53c-0.03,0.82-0.05,1.62-0.05,2.38c0,0.88-0.71,1.59-1.58,1.59c-0.88,0-1.59-0.71-1.59-1.58
				c0-0.79,0.02-1.62,0.04-2.48c0.19-6.5-0.09-10.87-5.55-12.39c-4.44-1.23-5.38-6.85-6.47-13.35c-0.29-1.76-0.6-3.6-0.99-5.43
				c-0.18-0.86,0.36-1.7,1.22-1.89C198.78,255.76,199.3,255.92,199.66,256.26z"/>
		</g>
		<g>
			<path class="st16" d="M219.03,250.28c0.12,0.11,0.23,0.24,0.31,0.39l9.34,16.53c0.21,0.37,0.26,0.8,0.15,1.21l-4.46,16.04
				c0.99,1.87,4.25,7.99,5.94,10.98c0.43,0.76,0.16,1.73-0.6,2.16c-0.76,0.43-1.73,0.16-2.16-0.6c-2.02-3.58-6.23-11.54-6.28-11.62
				c-0.19-0.36-0.23-0.78-0.13-1.17l4.45-16.02l-8.75-15.48l-16.5-6.97c-0.81-0.35-1.19-1.27-0.85-2.08
				c0.34-0.81,1.27-1.19,2.08-0.85l17,7.18C218.74,250.06,218.89,250.16,219.03,250.28z"/>
		</g>
		<g>
			<path class="st16" d="M252.21,241.25c0.43,0.39,0.63,1,0.46,1.6c-0.23,0.85-1.11,1.34-1.95,1.1l-8.42-2.34l-10.23,5.78
				c-0.37,0.21-0.8,0.26-1.21,0.15l-28.6-7.95c-0.85-0.23-1.34-1.11-1.1-1.95c0.23-0.85,1.11-1.34,1.95-1.1l27.97,7.77l10.23-5.78
				c0.37-0.21,0.8-0.26,1.21-0.15l9.05,2.52C251.81,240.96,252.03,241.08,252.21,241.25z"/>
		</g>
		<g>
			<path class="st16" d="M253.33,179.32c0.12,0.11,0.23,0.24,0.31,0.39c0.43,0.76,0.16,1.73-0.6,2.16l-10.78,6.09l-8.01,28.82
				c-0.14,0.51-0.53,0.92-1.04,1.08l-28.45,9.29c-0.83,0.27-1.73-0.18-2-1.02c-0.27-0.83,0.18-1.73,1.02-2l27.64-9.03l7.96-28.64
				c0.11-0.41,0.38-0.75,0.75-0.96l11.35-6.41C252.09,178.76,252.83,178.87,253.33,179.32z"/>
		</g>
	</g>
	<g>
		<g>
			<path class="st16" d="M210.22,56.72l-1.62,5.85c-1.12,4.04,1.26,8.26,5.3,9.38l5.85,1.62c4.04,1.12,8.26-1.26,9.38-5.3l1.62-5.85
				c0.85-3.05-0.31-6.2-2.66-8.04c2.99-0.47,5.3-2,5.94-4.29c0.77-2.76-1.1-5.83-4.43-7.85c2.38-0.75,4.35-2.65,5.06-5.22l0.52-1.86
				c0.65-2.35,0.11-4.75-1.24-6.57c3.49,0.19,6.79-2.07,7.76-5.56l4.65-16.74c1.12-4.04-1.26-8.26-5.3-9.38l-5.85-1.62
				c-4.04-1.12-8.26,1.26-9.38,5.3l-4.65,16.74c-0.97,3.5,0.69,7.13,3.78,8.77c-2.1,0.87-3.8,2.65-4.45,4.99l-0.52,1.86
				c-0.71,2.57,0,5.21,1.64,7.08c-3.89,0.02-7.08,1.68-7.85,4.44c-0.64,2.29,0.55,4.79,2.87,6.74
				C213.68,51.57,211.07,53.68,210.22,56.72z"/>
		</g>
		<g>
			<path class="st16" d="M211.67,68.75c0.1,0.09,0.19,0.2,0.27,0.32c0.47,0.74,0.25,1.72-0.49,2.19c-2.67,1.69-4.07,3.66-4.17,5.86
				c-0.11,2.59,1.59,4.76,2.43,5.4c0.7,0.52,0.83,1.53,0.3,2.23c-0.53,0.7-1.53,0.83-2.23,0.3c-1.59-1.2-3.84-4.33-3.68-8.06
				c0.1-2.26,1.16-5.56,5.64-8.4C210.37,68.19,211.16,68.28,211.67,68.75z"/>
		</g>
		<g>
			<path class="st16" d="M212.21,59.58c0,0,0.01,0.01,0.01,0.01c0.64,0.6,0.67,1.6,0.07,2.24c-1.28,1.36-2.49,2.78-3.65,4.14
				c-4.29,5.01-7.99,9.33-12.43,8.1c-5.45-1.51-7.95,2.08-11.14,7.75c-0.42,0.74-0.83,1.47-1.24,2.15
				c-0.45,0.75-1.43,0.99-2.18,0.53c-0.75-0.45-0.99-1.43-0.53-2.18c0.39-0.65,0.79-1.34,1.19-2.06c2.74-4.87,6.51-11.54,14.76-9.25
				c2.49,0.69,5.73-3.09,9.16-7.1c1.19-1.39,2.44-2.84,3.75-4.24C210.57,59.03,211.57,58.99,212.21,59.58z"/>
		</g>
		<g>
			<path class="st16" d="M216.97,47.09c0.37,0.34,0.58,0.86,0.5,1.4c-0.12,0.87-0.93,1.47-1.8,1.35l-17.73-2.54l-15.49,8.75
				l-4.45,16.02c-0.11,0.39-0.36,0.73-0.71,0.93c-0.08,0.05-7.79,4.69-11.37,6.71c-0.76,0.43-1.73,0.16-2.16-0.6
				c-0.43-0.76-0.16-1.73,0.6-2.16c2.99-1.69,8.93-5.25,10.75-6.34l4.46-16.04c0.11-0.41,0.38-0.75,0.75-0.96l16.53-9.34
				c0.3-0.17,0.66-0.24,1.01-0.19l18.26,2.62C216.45,46.74,216.74,46.88,216.97,47.09z"/>
		</g>
		<g>
			<path class="st16" d="M218.69,40.87c0.43,0.39,0.63,1,0.46,1.6c-0.23,0.84-1.11,1.34-1.95,1.1l-28.6-7.95
				c-0.4-0.11-0.75-0.38-0.96-0.75l-5.78-10.23l-8.42-2.34c-0.84-0.23-1.34-1.11-1.1-1.95c0.23-0.85,1.11-1.34,1.96-1.11l9.05,2.51
				c0.4,0.11,0.75,0.38,0.96,0.75l5.78,10.23l27.97,7.77C218.3,40.58,218.51,40.71,218.69,40.87z"/>
		</g>
		<g>
			<path class="st16" d="M205.94-34.01c0.12,0.11,0.23,0.24,0.31,0.39l6.41,11.35c0.21,0.37,0.26,0.8,0.15,1.21l-7.96,28.64
				l19.02,21.99c0.57,0.66,0.5,1.66-0.16,2.24c-0.66,0.57-1.67,0.5-2.24-0.16L201.89,9c-0.35-0.4-0.47-0.95-0.33-1.46l8.01-28.82
				l-6.09-10.78c-0.43-0.76-0.16-1.73,0.6-2.16C204.7-34.57,205.45-34.47,205.94-34.01z"/>
		</g>
		<g>
			<path class="st16" d="M224.84,72.42c0.14,0.13,0.26,0.28,0.35,0.46c2.38,4.75,1.58,8.12,0.5,10.11
				c-1.79,3.28-5.35,4.79-7.31,5.01c-0.87,0.09-1.66-0.53-1.75-1.41c-0.1-0.87,0.53-1.66,1.4-1.75c1.05-0.11,3.63-1.09,4.87-3.37
				c1.05-1.93,0.87-4.34-0.55-7.17c-0.39-0.78-0.08-1.74,0.71-2.13C223.67,71.87,224.37,71.99,224.84,72.42z"/>
		</g>
		<g>
			<path class="st16" d="M229.12,64.28c0.23,0.21,0.41,0.5,0.48,0.84c0.4,1.88,0.72,3.76,1.02,5.57c0.87,5.2,1.68,10.12,4.19,10.81
				c8.26,2.3,8.03,9.95,7.87,15.53c-0.03,0.82-0.05,1.62-0.05,2.38c0,0.88-0.71,1.59-1.58,1.59c-0.88,0-1.59-0.71-1.59-1.58
				c0-0.79,0.02-1.62,0.04-2.48c0.19-6.5-0.09-10.87-5.55-12.39c-4.44-1.23-5.38-6.85-6.47-13.35c-0.29-1.76-0.6-3.6-0.99-5.43
				c-0.18-0.86,0.36-1.7,1.22-1.89C228.24,63.79,228.75,63.95,229.12,64.28z"/>
		</g>
		<g>
			<path class="st16" d="M248.48,58.3c0.12,0.11,0.23,0.24,0.31,0.39l9.34,16.53c0.21,0.37,0.26,0.8,0.15,1.21l-4.46,16.04
				c0.99,1.87,4.25,7.99,5.94,10.98c0.43,0.76,0.16,1.73-0.6,2.16c-0.76,0.43-1.73,0.16-2.16-0.6c-2.02-3.58-6.23-11.54-6.28-11.62
				c-0.19-0.36-0.23-0.78-0.13-1.17l4.45-16.02l-8.75-15.48l-16.5-6.97c-0.81-0.35-1.19-1.27-0.85-2.08
				c0.34-0.81,1.27-1.19,2.08-0.85l17,7.18C248.2,58.08,248.35,58.18,248.48,58.3z"/>
		</g>
		<g>
			<path class="st16" d="M281.67,49.27c0.43,0.39,0.63,1,0.46,1.6c-0.23,0.85-1.11,1.34-1.95,1.1l-8.42-2.34l-10.23,5.78
				c-0.37,0.21-0.8,0.26-1.21,0.15l-28.6-7.95c-0.85-0.23-1.34-1.11-1.1-1.95c0.23-0.85,1.11-1.34,1.95-1.1l27.97,7.77l10.23-5.78
				c0.37-0.21,0.8-0.26,1.21-0.15l9.05,2.52C281.27,48.98,281.49,49.11,281.67,49.27z"/>
		</g>
		<g>
			<path class="st16" d="M282.78-12.66c0.12,0.11,0.23,0.24,0.31,0.39c0.43,0.76,0.16,1.73-0.6,2.16l-10.78,6.09l-8.01,28.82
				c-0.14,0.51-0.53,0.92-1.04,1.08l-28.45,9.29c-0.83,0.27-1.73-0.18-2-1.02c-0.27-0.83,0.18-1.73,1.02-2l27.64-9.03l7.96-28.64
				c0.11-0.41,0.38-0.75,0.75-0.96l11.35-6.41C281.54-13.22,282.29-13.11,282.78-12.66z"/>
		</g>
	</g>
	<g>
		<g>
			<path class="st16" d="M57.03,93.54l-1.62,5.85c-1.12,4.04,1.26,8.26,5.3,9.38l5.85,1.62c4.04,1.12,8.26-1.26,9.38-5.3l1.62-5.85
				c0.85-3.05-0.31-6.2-2.66-8.04c2.99-0.47,5.3-2,5.94-4.29c0.77-2.76-1.1-5.83-4.43-7.85c2.38-0.75,4.35-2.65,5.06-5.22l0.52-1.86
				c0.65-2.35,0.11-4.75-1.24-6.57c3.49,0.19,6.79-2.07,7.76-5.56l4.65-16.74c1.12-4.04-1.26-8.26-5.3-9.38l-5.85-1.62
				c-4.04-1.12-8.26,1.26-9.38,5.3l-4.65,16.74c-0.97,3.5,0.69,7.13,3.78,8.77c-2.1,0.87-3.8,2.65-4.45,4.99l-0.52,1.86
				c-0.71,2.57,0,5.21,1.64,7.08c-3.89,0.02-7.08,1.68-7.85,4.44c-0.64,2.29,0.55,4.79,2.87,6.74
				C60.48,88.39,57.87,90.5,57.03,93.54z"/>
		</g>
		<g>
			<path class="st16" d="M58.47,105.57c0.1,0.09,0.19,0.2,0.27,0.32c0.47,0.74,0.25,1.72-0.49,2.19c-2.67,1.69-4.07,3.66-4.17,5.86
				c-0.11,2.59,1.59,4.76,2.43,5.4c0.7,0.52,0.83,1.53,0.3,2.23c-0.53,0.7-1.53,0.83-2.23,0.3c-1.59-1.2-3.84-4.33-3.68-8.06
				c0.1-2.26,1.16-5.56,5.64-8.4C57.17,105.01,57.96,105.1,58.47,105.57z"/>
		</g>
		<g>
			<path class="st16" d="M59.01,96.4c0,0,0.01,0.01,0.01,0.01c0.64,0.6,0.67,1.6,0.07,2.24c-1.28,1.36-2.49,2.78-3.65,4.14
				c-4.29,5.01-7.99,9.33-12.43,8.1c-5.45-1.51-7.95,2.08-11.14,7.75c-0.42,0.74-0.83,1.47-1.24,2.15
				c-0.45,0.75-1.43,0.99-2.18,0.53c-0.75-0.45-0.99-1.43-0.53-2.18c0.39-0.65,0.79-1.34,1.19-2.06c2.74-4.87,6.51-11.54,14.76-9.25
				c2.49,0.69,5.73-3.09,9.16-7.1c1.19-1.39,2.44-2.84,3.75-4.24C57.38,95.85,58.37,95.81,59.01,96.4z"/>
		</g>
		<g>
			<path class="st16" d="M63.77,83.91c0.37,0.34,0.58,0.86,0.5,1.4c-0.12,0.87-0.93,1.47-1.8,1.35l-17.73-2.54l-15.49,8.75
				l-4.45,16.02c-0.11,0.39-0.36,0.73-0.71,0.93c-0.08,0.05-7.79,4.69-11.37,6.71c-0.76,0.43-1.73,0.16-2.16-0.6
				c-0.43-0.76-0.16-1.73,0.6-2.16c2.99-1.69,8.93-5.25,10.75-6.34l4.46-16.04c0.11-0.41,0.38-0.75,0.75-0.96l16.53-9.34
				c0.3-0.17,0.66-0.24,1.01-0.19l18.26,2.62C63.25,83.55,63.54,83.7,63.77,83.91z"/>
		</g>
		<g>
			<path class="st16" d="M65.5,77.69c0.43,0.39,0.63,1,0.46,1.6c-0.23,0.84-1.11,1.34-1.95,1.1l-28.6-7.95
				c-0.4-0.11-0.75-0.38-0.96-0.75l-5.78-10.23l-8.42-2.34c-0.84-0.23-1.34-1.11-1.1-1.95c0.23-0.85,1.11-1.34,1.96-1.11l9.05,2.51
				c0.4,0.11,0.75,0.38,0.96,0.75l5.78,10.23l27.97,7.77C65.1,77.4,65.32,77.53,65.5,77.69z"/>
		</g>
		<g>
			<path class="st16" d="M52.74,2.8c0.12,0.11,0.23,0.24,0.31,0.39l6.41,11.35c0.21,0.37,0.26,0.8,0.15,1.21l-7.96,28.64
				l19.02,21.99c0.57,0.66,0.5,1.66-0.16,2.24c-0.66,0.57-1.67,0.5-2.24-0.16L48.7,45.82c-0.35-0.4-0.47-0.95-0.33-1.46l8.01-28.82
				L50.29,4.76c-0.43-0.76-0.16-1.73,0.6-2.16C51.5,2.25,52.25,2.35,52.74,2.8z"/>
		</g>
		<g>
			<path class="st16" d="M71.65,109.23c0.14,0.13,0.26,0.28,0.35,0.46c2.38,4.75,1.58,8.12,0.5,10.11
				c-1.79,3.28-5.35,4.79-7.31,5.01c-0.87,0.09-1.66-0.53-1.75-1.41s0.53-1.66,1.4-1.75c1.05-0.11,3.63-1.09,4.87-3.37
				c1.05-1.93,0.87-4.34-0.55-7.17c-0.39-0.78-0.08-1.74,0.71-2.13C70.47,108.68,71.18,108.8,71.65,109.23z"/>
		</g>
		<g>
			<path class="st16" d="M75.92,101.1c0.23,0.21,0.41,0.5,0.48,0.84c0.4,1.88,0.72,3.76,1.02,5.57c0.87,5.2,1.68,10.12,4.19,10.81
				c8.26,2.3,8.03,9.95,7.87,15.53c-0.03,0.82-0.05,1.62-0.05,2.38c0,0.88-0.71,1.59-1.58,1.59c-0.88,0-1.59-0.71-1.59-1.58
				c0-0.79,0.02-1.62,0.04-2.48c0.19-6.5-0.09-10.87-5.55-12.39c-4.44-1.23-5.38-6.85-6.47-13.35c-0.29-1.76-0.6-3.6-0.99-5.43
				c-0.18-0.86,0.36-1.7,1.22-1.89C75.04,100.61,75.56,100.76,75.92,101.1z"/>
		</g>
		<g>
			<path class="st16" d="M95.29,95.12c0.12,0.11,0.23,0.24,0.31,0.39l9.34,16.53c0.21,0.37,0.26,0.8,0.15,1.21l-4.46,16.04
				c0.99,1.87,4.25,7.99,5.94,10.98c0.43,0.76,0.16,1.73-0.6,2.16c-0.76,0.43-1.73,0.16-2.16-0.6c-2.02-3.58-6.23-11.54-6.28-11.62
				c-0.19-0.36-0.23-0.78-0.13-1.17l4.45-16.02L93.1,97.55l-16.5-6.97c-0.81-0.35-1.19-1.27-0.85-2.08
				c0.34-0.81,1.27-1.19,2.08-0.85l17,7.18C95,94.9,95.15,95,95.29,95.12z"/>
		</g>
		<g>
			<path class="st16" d="M128.47,86.09c0.43,0.39,0.63,1,0.46,1.6c-0.23,0.85-1.11,1.34-1.95,1.1l-8.42-2.34l-10.23,5.78
				c-0.37,0.21-0.8,0.26-1.21,0.15l-28.6-7.95c-0.85-0.23-1.34-1.11-1.1-1.95c0.23-0.85,1.11-1.34,1.95-1.1l27.97,7.77l10.23-5.78
				c0.37-0.21,0.8-0.26,1.21-0.15l9.05,2.52C128.07,85.8,128.29,85.92,128.47,86.09z"/>
		</g>
		<g>
			<path class="st16" d="M129.59,24.16c0.12,0.11,0.23,0.24,0.31,0.39c0.43,0.76,0.16,1.73-0.6,2.16l-10.78,6.09l-8.01,28.82
				c-0.14,0.51-0.53,0.92-1.04,1.08L81.02,72c-0.83,0.27-1.73-0.18-2-1.02c-0.27-0.83,0.18-1.73,1.02-2l27.64-9.03l7.96-28.64
				c0.11-0.41,0.38-0.75,0.75-0.96l11.35-6.41C128.35,23.6,129.09,23.71,129.59,24.16z"/>
		</g>
	</g>
</g>
</svg>
