<?xml version="1.0" encoding="utf-8"?>
<!-- Generator: Adobe Illustrator 23.0.1, SVG Export Plug-In . SVG Version: 6.00 Build 0)  -->
<svg version="1.1" id="Layer_1" xmlns="http://www.w3.org/2000/svg" xmlns:xlink="http://www.w3.org/1999/xlink" x="0px" y="0px"
	 viewBox="0 0 408 408" style="enable-background:new 0 0 408 408;" xml:space="preserve">
<style type="text/css">
	.st0{fill:#CA463C;stroke:#000000;stroke-width:4;stroke-linejoin:round;stroke-miterlimit:10;}
	.st1{fill:#CA463C;stroke:#000000;stroke-width:4;stroke-miterlimit:10;}
	.st2{fill:#F15F3C;stroke:#000000;stroke-width:4;stroke-linejoin:round;stroke-miterlimit:10;}
	.st3{fill:none;stroke:#000000;stroke-width:4;stroke-miterlimit:10;}
	.st4{fill:#5E1642;stroke:#000000;stroke-width:4;stroke-linejoin:round;stroke-miterlimit:10;}
	.st5{fill:#5E1642;}
	.st6{fill:#310E34;stroke:#000000;stroke-width:2;stroke-linejoin:round;stroke-miterlimit:10;}
	.st7{fill:#310E34;stroke:#000000;stroke-width:2;stroke-miterlimit:10;}
	.st8{fill:#CA463C;stroke:#000000;stroke-width:2;stroke-linejoin:round;stroke-miterlimit:10;}
	.st9{fill:none;stroke:#000000;stroke-width:2;stroke-miterlimit:10;}
	.st10{fill:#F15F3C;stroke:#000000;stroke-width:2;stroke-linejoin:round;stroke-miterlimit:10;}
	.st11{fill:#F15F3C;}
	.st12{fill:#310E34;}
	.st13{fill:none;stroke:#310E34;stroke-width:5;stroke-linecap:round;stroke-miterlimit:10;}
	.st14{fill:none;stroke:#310E34;stroke-width:5;stroke-linecap:round;stroke-linejoin:round;stroke-miterlimit:10;}
	.st15{fill:#CA463C;}
	.st16{fill:#972E41;}
	.st17{fill:none;stroke:#310E34;stroke-width:0.5653;stroke-linecap:round;stroke-miterlimit:10;}
	.st18{fill:none;stroke:#310E34;stroke-width:0.5653;stroke-linecap:round;stroke-linejoin:round;stroke-miterlimit:10;}
	.st19{fill:none;stroke:#5E1642;stroke-width:0.5561;stroke-linecap:round;stroke-miterlimit:10;}
	.st20{fill:none;stroke:#972E41;stroke-width:0.5561;stroke-linecap:round;stroke-miterlimit:10;}
	.st21{fill:none;stroke:#972E41;stroke-width:0.5561;stroke-linecap:round;stroke-linejoin:round;stroke-miterlimit:10;}
	.st22{fill:#972E41;stroke:#CA463C;stroke-width:0.25;stroke-miterlimit:10;}
	.st23{fill:#310E34;stroke:#5E1642;stroke-width:0.25;stroke-miterlimit:10;}
	.st24{fill:#F15F3C;stroke:#972E41;stroke-width:0.25;stroke-miterlimit:10;}
	.st25{fill:#310E34;stroke:#972E41;stroke-width:0.25;stroke-miterlimit:10;}
	.st26{fill:url(#SVGID_9_);}
	.st27{fill:url(#SVGID_10_);}
	.st28{clip-path:url(#SVGID_12_);}
	.st29{clip-path:url(#SVGID_14_);}
	.st30{enable-background:new    ;}
	.st31{fill:#8D331A;}
	.st32{fill:#E05838;}
	.st33{fill:#E45A39;}
	.st34{fill:#D65435;}
	.st35{fill:#B8482C;}
	.st36{fill:#B5462A;}
	.st37{fill:#7B251C;}
	.st38{fill:#C2433A;}
	.st39{fill:#BE4238;}
	.st40{fill:#B63F35;}
	.st41{fill:#9F352C;}
	.st42{fill:#9C342B;}
	.st43{fill:#47133B;}
	.st44{fill:#5B1641;}
	.st45{fill:#5A1641;}
	.st46{fill:#581540;}
	.st47{fill:#51153E;}
	.st48{fill:#50143E;}
	.st49{fill:none;}
	.st50{clip-path:url(#SVGID_16_);}
	.st51{fill:#6C1A2A;}
	.st52{fill:#922D3E;}
	.st53{fill:#902C3D;}
	.st54{fill:#8C2A3B;}
	.st55{fill:#7F2434;}
	.st56{fill:#7E2334;}
	.st57{fill:#68283E;}
	.st58{fill:#371135;}
	.st59{fill:#391336;}
	.st60{fill:#3E1637;}
	.st61{fill:#4E1D3A;}
	.st62{fill:#501E3B;}
	.st63{clip-path:url(#SVGID_18_);}
	.st64{clip-path:url(#SVGID_20_);}
	.st65{clip-path:url(#SVGID_22_);}
	.st66{clip-path:url(#SVGID_25_);}
</style>
<g>
	<defs>
		<rect id="SVGID_11_" y="-1.12" width="408" height="409.12"/>
	</defs>
	<clipPath id="SVGID_8_">
		<use xlink:href="#SVGID_11_"  style="overflow:visible;"/>
	</clipPath>
	<g style="clip-path:url(#SVGID_8_);">
		<path class="st5" d="M588.75,207.44c-14.35-2.09-28.71-4.13-43.06-6.28c-12.22-1.83-24.44-3.7-36.64-5.68
			c-8.13-1.32-16.26-1.43-24.49-1.05c-15.89,0.74-31.8,1.08-47.7,1.51c-12.28,0.34-24.38,1.85-36.21,5.17
			c-5.82,1.63-11.55,3.62-17.3,5.48c-3.86,1.25-7.02,3.71-9.45,6.77c-6.64,8.36-14.95,14.92-22.74,22.06
			c-2.36,2.17-4.53,4.55-6.77,6.85c-3.7,3.79-8.18,5.72-13.46,5.28c-10.41-0.87-20.82-1.85-31.21-2.91
			c-2.31-0.24-4.66-0.76-6.65-2.7c2.3-2.6,4.99-4.29,7.89-5.55c8.55-3.72,17.5-3.88,26.57-2.68c1.77,0.23,3.61,1.05,5.71-0.43
			c-6.84-2.13-13.4-2.25-20.06-1.85c-7.28,0.44-13.55,3.26-19.36,7.39c-6.77,4.81-13.67,9.47-20.24,14.54
			c-4.78,3.69-10.14,6.18-15.54,8.61c-9.26,4.16-17.75,9.53-26.13,15.18c-3.01,2.03-6.48,3.41-9.82,4.91
			c-2.84,1.27-5.38,0.52-7.34-1.87c-1.04-1.27-2.07-2.6-2.83-4.05c-1.35-2.57-1.18-5.29,0.93-7.25c3.02-2.8,6.23-5.48,9.67-7.73
			c4.96-3.24,10.19-6.08,15.34-9.02c6.86-3.92,12.59-9.29,18.65-14.24c6.25-5.1,12.69-9.99,18.93-15.1c2.93-2.4,5.69-5.02,8.34-7.72
			c0.96-0.98,1.37-2.5,2.03-3.77c-0.24-0.15-0.49-0.29-0.73-0.44c-1.57,1.94-3.15,3.88-4.92,6.08c-0.73-2.62-1.35-4.83-2.02-7.23
			c0.22-0.22,0.69-0.67,1.26-1.23c-0.48-0.28-0.81-0.63-1.05-0.58c-2.77,0.64-5.63,1.09-8.28,2.08
			c-15.71,5.85-32.07,8.71-48.63,10.43c-7.51,0.78-14.71,2.6-21.94,4.5c-5,1.31-10.03,2.02-15.1,0.41c-4.63-1.47-6.68-4.6-6.14-9.89
			c0.49,1.36,0.71,2.37,1.21,3.22c0.5,0.85,1.28,1.53,2.23,2.16c-0.48-2.74-2.23-5.25-0.61-8.37c3.35-2.12,7.51-2.66,11.56-3.39
			c12.92-2.33,25.3-6.44,37.64-10.8c11.88-4.19,23.95-7.82,35.92-11.78c5.85-1.94,11.65-4.04,17.46-6.1
			c0.42-0.15,0.77-0.49,0.98-1.44c-1.22,0.38-2.44,0.73-3.64,1.13c-1.23,0.41-2.44,0.88-3.98,1.06c3.16-6.49,4.92-13.6,9.92-19.07
			c1.87-2.05,4.07-3.63,6.8-4.39c0.95-0.26,1.86-0.66,2.7-1.24c-4.75-1.18-7.96,1.48-11.09,4.55c0.56-8.57,5.67-11.11,12.36-12.03
			c14.33-1.97,28.78-3.11,43.2-4.36c2.53-0.22,5.24,0.38,7.73,1.08c8.04,2.24,16.06,1.57,24.01-0.05
			c13.84-2.82,27.64-5.9,41.45-8.88c11.49-2.48,22.99-4.9,34.45-7.53c6.13-1.4,12.15-3.32,18.27-4.76
			c7.74-1.82,15.52-3.5,23.32-5.06c13.97-2.78,27.97-5.44,41.96-8.13c6.76-1.3,13.53-2.55,20.3-3.82
			C564.51,140.78,576.63,174.11,588.75,207.44z M217.07,279.94c-0.46-0.9-0.73-1.52-1.07-2.09c-2.94-4.86-2.57-6.51,2.15-9.55
			c0.49-0.32,1.02-0.6,1.56-0.84c4.86-2.15,7.25-1.32,9.82,3.36c0.07,0.13,0.38,0.13,0.58,0.19c0.51-2.99-1.03-5.14-4.31-5.92
			c-4.7-1.12-8.36,1.02-11.5,4.09C210.87,272.51,212.08,277.45,217.07,279.94z M289.67,179.17c0.05,0.29,0.11,0.57,0.16,0.86
			c1.36-0.15,2.74-0.21,4.08-0.46c4.39-0.82,8.77-1.7,13.15-2.57c1.53-0.3,3.04-0.66,4.56-0.99c-0.06-0.26-0.12-0.52-0.17-0.78
			C303.96,175.25,296.66,176.33,289.67,179.17z M185.42,221.15c5.3,1.27,10.51-1.1,12.23-4.92c1.13-2.5,0.81-4.66-0.92-6.09
			c-0.12,0.19-0.35,0.38-0.36,0.56c-0.09,6.59-1.42,8.13-8.06,9.42C187.32,220.32,186.38,220.8,185.42,221.15z M220.09,280.12
			c2.88,0.67,6.36-1.67,8.19-5.67C225.23,276.56,222.79,278.25,220.09,280.12z M238.32,256.92c-0.24,0.18-0.49,0.36-0.73,0.54
			c0.98,3.02,2.03,4.35,4.9,5.44C240.8,260.48,239.56,258.7,238.32,256.92z M240.73,208.51c-0.42-2.62-0.77-4.74-1.2-7.43
			C237.67,204.71,237.9,206.13,240.73,208.51z M257.98,241.49c-3.73,1.56-4.93,3.36-4.57,6.53
			C254.91,245.87,256.27,243.93,257.98,241.49z M259.21,246.17c-0.29,0.23-0.58,0.47-0.87,0.7c0.86,1.93,2.1,3.51,4.1,4.36
			c0.23-0.2,0.45-0.4,0.68-0.61C261.82,249.15,260.52,247.66,259.21,246.17z M240.09,197.17c-0.36,0.16-0.73,0.32-1.09,0.48
			c0.74,1.79,1.49,3.58,2.23,5.37c0.29-0.11,0.57-0.23,0.86-0.34C241.43,200.84,240.76,199.01,240.09,197.17z M210.86,211.66
			c0.35-0.02,0.7-0.03,1.05-0.05c-0.04-0.93-0.08-1.85-0.11-2.78c-0.36,0.02-0.72,0.03-1.09,0.05
			C210.77,209.81,210.82,210.73,210.86,211.66z M262.33,246.06c-0.33,0.22-0.65,0.44-0.98,0.66c0.64,0.72,1.28,1.44,1.91,2.16
			c0.26-0.21,0.51-0.43,0.77-0.64C263.46,247.51,262.89,246.79,262.33,246.06z"/>
	</g>
	<g style="clip-path:url(#SVGID_8_);">
		<path class="st5" d="M163.42,309.64c3.09-3.67,6.19-7.33,9.65-11.43c0.61,1.16,1.53,2.19,1.68,3.33c0.42,3.09,0.91,6.27,0.64,9.35
			c-0.37,4.31-1.41,8.56-2.27,13.5c-2.09-2.13-3.36-3.42-4.62-4.71c-0.3,0.18-0.6,0.35-0.9,0.53c3.17,3.14,4.75,6.71,3.24,11.24
			c2.14-0.24,1.59-1.84,2.07-2.74l-0.06-0.01c1.46,4.78-0.1,8.72-3.88,12.26c2.44,0.59,2.9-2.05,4.74-1.97
			c1.74,6.3-0.76,11.17-5.8,15.21c0.24,0.15,0.47,0.3,0.71,0.45c0.49-0.21,0.99-0.4,1.47-0.63c0.52-0.25,1.01-0.54,2.19-1.16
			c0.08,3.24,0.33,5.97,0.15,8.68c-0.16,2.4-1.54,4.34-3.61,5.6c-1.96,1.19-4,2.24-6.05,3.27c-4.65,2.33-9.38,4.49-13.98,6.91
			c-8.01,4.21-16.4,7.14-25.45,7.93c-7.59,0.65-15.19,1.17-22.78,1.74c-0.37,0.09-0.74,0.18-1.11,0.28
			c0.33,0.17,0.65,0.34,0.98,0.51c0.43,0.17,0.86,0.35,1.89,0.77c-3.14,0.91-5.72,1.74-8.35,2.41c-5.68,1.44-10.89,3.88-15.97,6.82
			c-9.65,5.59-19.48,10.85-29.27,16.18c-6.39,3.48-12.82,6.88-19.27,10.24c-6.45,3.36-13.03,6.47-19.39,9.98
			c-13.28,7.31-26.44,14.83-39.68,22.21c-5.29,2.95-10.64,5.79-16,8.6c-4.29,2.25-8.52,4.66-12.98,6.52
			c-5.69,2.37-11.58,4.25-17.38,6.36c-0.9,0.33-1.76,0.74-2.64,1.12c-18.29-28.95-36.58-57.9-54.87-86.85
			c16.9-1.58,33.88-2.6,50.66-4.97c9.99-1.41,19.8-4.59,29.49-7.62c33.4-10.44,66.42-22.04,99.15-34.41
			c8.51-3.22,16.63-7.41,23.45-13.64c1.41-1.29,2.79-2.74,3.79-4.36c2.92-4.74,5.86-9.49,8.39-14.44
			c4.96-9.72,9.75-19.53,14.41-29.4c2.42-5.12,6.63-8.1,11.58-9.88c5.21-1.88,10.67-3.11,16.08-4.39c4.47-1.06,9.04-1.73,13.55-2.66
			c8.08-1.66,13,2.98,11.64,11.19c-0.17,1.03-1.05,2.16-1.93,2.81c-4.07,3.05-8.24,5.96-12.5,9c0.67-2.51,1.28-4.76,1.88-7.01
			c-0.05-0.36-0.1-0.72-0.15-1.08c0,0,0.07,0.01,0.07,0.01c-0.15,0.32-0.3,0.64-0.45,0.96c-1.26,2.31-2.52,4.62-4.04,7.39
			c-2.74-1-5.15-1.88-8.21-3c-1.23,1.05-2.99,2.54-4.75,4.03c0.14,0.22,0.29,0.44,0.43,0.67c1.51-0.95,3.02-1.91,4.95-3.13
			c1.11,2.28,2.06,4.25,3.02,6.22c0.25-0.06,0.5-0.12,0.75-0.19c-0.18-1.26-0.35-2.51-0.61-4.32c3.48,1.08,6.75,2.1,10.45,3.25
			c-0.6-1.14-1.02-1.92-1.61-3.03c7.14-4.8,14.23-9.65,21.43-14.34c1.01-0.66,2.55-0.94,3.78-0.79c6.58,0.78,14.07,6.73,11.94,15.9
			c-1.04,4.49-3.09,8.35-5.99,11.88c-1.66,2.02-3.7,3.92-3.7,6.87L163.42,309.64z M158.12,305.3c-1.72,2.91-3.44,5.82-5.5,9.3
			c3.03-1.9,4.84-5.25,5.45-9.32L158.12,305.3z M158.81,315.99c2.68-2.81,3.31-6.47,3.98-10.1c-1.73,3.2-3.39,6.43-3.93,10.11
			L158.81,315.99z"/>
	</g>
	<g style="clip-path:url(#SVGID_8_);">
		<path class="st5" d="M124.76,13.49c2.65-1.32,5.44-1.82,8.42-1.78c5.17,0.07,10.07-1.03,14.64-3.63c2.3-1.31,4.82-2.32,7.34-3.16
			c4.94-1.65,8.05,0.37,8.02,5.52c-0.05,8.29-4.26,14.32-11.49,17.96c-6.46,3.25-13.36,5.09-19.96,4.08
			c-1.46,0.85-2.27,1.57-3.21,1.82c-2.1,0.56-4.28,0.82-6.39,1.32c-5.05,1.19-10.08,2.45-15.69,3.83c-1.17-1.23-2.73-2.85-4.28-4.48
			c-0.15,0.08-0.3,0.15-0.45,0.23c0.22,0.54,0.32,1.18,0.67,1.62c2.6,3.35,5.28,6.64,7.89,9.99c4.45,5.72,10.83,8.47,17.24,11.02
			c15.08,5.99,30.3,11.51,46.27,14.86c11.85,2.49,23.57,5.65,35.27,8.78c5.39,1.44,10.55,3.64,14.66,7.66
			c2.18,2.13,3.58,4.58,3.09,7.77c-0.32,2.09-1.17,3.7-3.52,3.99c1.3-1.94,2.32-3.91,0.58-6.78c-0.62,2.4-1.12,4.22-1.52,6.05
			c-0.03,0.15,0.66,0.46,1.01,0.69c-2.23,0.25-4.57,1.06-6.68,0.65c-5.21-1-10.34-2.47-15.45-3.93c-2.35-0.67-4.6-1.43-7.09-0.81
			c-0.91,0.23-1.95,0.18-2.89,0.03c-9.1-1.41-18.21-2.72-27.26-4.37c-4.27-0.78-8.39-2.39-12.64-3.32
			c-3.88-0.85-7.84-1.39-11.79-1.87c-1.04-0.13-2.17,0.46-3.26,0.72c0.02,0.29,0.04,0.59,0.05,0.88c1.54,0.16,3.08,0.33,4.88,0.52
			c-0.17,4.22,2.11,6.86,5.63,8.52c4.58,2.15,9.08,4.74,13.91,6.08c9.78,2.73,18.69,7.2,27.54,12c6.58,3.56,13.47,6.59,20.23,9.81
			c5.18,2.46,9.98,5.48,14.16,9.41c4.1,3.86,4.62,9.4,1.35,13.24l0.04,0.05c0.99-3.52,0.99-3.52-0.1-6.7
			c-0.5,1.98-0.81,3.27-1.16,4.55c-0.93,3.32-2.66,4.41-5.93,3.48c-1.61-0.46-3.12-1.3-4.67-1.97c-9.33-4.02-18.58-8.26-28.03-11.99
			c-5.95-2.35-12.29-3.7-18.28-5.96c-4.85-1.83-9.51-4.21-14.14-6.56c-7.73-3.93-15.61-7.25-24.48-7.26c-1.02,0-2.04,0.22-3.1,1.02
			c0.73,0.19,1.47,0.56,2.19,0.54c8.92-0.2,16.37,2.86,22.07,9.83c7.81,9.54,17.4,17.2,26.42,25.49c5,4.59,9.69,9.51,14.37,14.44
			c1.39,1.46,2.37,3.36,3.28,5.19c1.01,2.03,1.07,4.19-0.17,6.5c-0.27-0.63-0.46-1.07-0.8-1.87c-0.37,0.7-0.58,1.18-0.86,1.62
			c-1.62,2.53-3.5,3.38-6.16,2c-2.43-1.25-4.86-2.87-6.67-4.88c-3.44-3.85-7.34-7.02-11.72-9.69c-1.34-0.82-2.7-1.71-3.76-2.84
			c-9.08-9.7-20.02-16.8-31.79-22.68c-5.52-2.76-11.23-5.14-16.89-7.62c-1.04-0.46-2.24-0.55-4.18-1.01
			c0.8,1.08,0.98,1.62,1.32,1.74c3.42,1.21,5.52,3.79,7.35,6.74c6.11,9.87,13.43,18.69,22.42,26.13c4.64,3.83,8.55,8.32,9.82,14.49
			c0.36,1.74,0.42,3.54,0.52,4.45c-2.29,0.85-3.86,1.43-5.43,2.01c0.26,0.73,0.52,1.45,0.78,2.18c-1.78-1.13-3.72-2.07-5.29-3.43
			c-5.5-4.75-11-9.51-16.25-14.53c-7.36-7.03-14.84-13.99-21.61-21.57c-4.91-5.5-10.49-9.51-17.19-12.36
			c-8.46-3.6-17.02-7.09-25.09-11.46c-6.57-3.55-12.69-8.04-18.63-12.61c-13.62-10.46-28.7-17.83-45.02-23.04
			C-14.77,86.98-26.53,82.43-38.31,78c-18.47-6.95-36.88-14.04-55.29-21.13c-14.9-5.74-30.15-10.67-44.24-18.36
			c6.12-32.71,12.23-65.41,18.35-98.12c7.32,6.54,14.84,12.87,21.93,19.65c18.19,17.4,39.26,30.7,60.7,43.55
			c18.62,11.16,38.16,20.54,57.7,29.89c7.43,3.55,15.54,5.39,23.91,6.89c4.49-5.02,10.69-7.28,16.78-9.64
			c6.53-2.53,12.24-6.44,17.73-10.61c5.26-4,11.02-5.31,17.4-4.95c2.78,0.16,5.59,0.45,8.35,0.23c6.62-0.51,13.22-1.28,19.83-1.94
			c0.28,1.06,0.56,2.12,0.84,3.17l0,0C125.37,15.59,125.06,14.54,124.76,13.49z M142.74,143.69c4.88-2.22,6.27-3.58,6.64-7.4
			c-2.61,2.78-4.7,4.99-6.78,7.21l-0.06,0.19L142.74,143.69z M101.25,122.69c0.32,0.19,0.64,0.37,0.96,0.56
			c0.06-0.09,0.12-0.18,0.18-0.28c-0.24-0.22-0.47-0.43-0.71-0.65c-2.94-2.56-5.99-4.93-9.96-5.7
			C94.46,119.34,97.7,121.25,101.25,122.69z M206.8,143.3c0.34-0.21,0.65-0.28,0.72-0.45c0.46-1.11,0.89-2.24,1.3-3.38
			c1.73-4.82,4.07-5.69,8.61-3.17c1.05,0.59,2.02,1.33,3.07,1.92c0.66,0.37,1.39,0.6,2.09,0.89c-0.97-2.6-3.09-3.67-5.16-4.87
			c-3-1.74-5.95-1.5-8.47,0.58C206.35,136.96,205.7,139.95,206.8,143.3z M44.01,41.86c9.18,1.52,16.36-2.11,23.28-6.57
			c-3.96,0.35-7.23,2.77-10.94,3.81C52.46,40.19,48.47,40.88,44.01,41.86z M209.08,98.8c0.05-0.61,0.14-1.05,0.12-1.49
			c-0.29-5.54,2.49-7.98,7.99-7.02c1.19,0.21,2.39,0.29,3.59,0.43c-3.6-3.7-8.32-3.44-11.41,0.03
			C206.62,93.85,206.46,96.45,209.08,98.8z M157.51,4.99c-0.19,3.36-0.08,6.95-2.64,9.37c-2.32,2.19-5.11,3.87-7.61,5.71
			C154.02,20.38,160.9,12.33,157.51,4.99z M191.11,174.54c-1.04-4.21-4.63-7.09-8.18-6.72c-3.33,0.36-4.98,1.76-5.22,4.74
			c2.09-1.87,4.08-4.45,6.92-3.12C186.98,170.55,188.84,172.7,191.11,174.54z M149.86,185.26c0.19-0.21,0.38-0.43,0.58-0.64
			c-1.37-3-3.32-5.52-6.79-6.15c-1.9-0.35-3.58,0.49-4.63,2.11c2.24,0.13,4.5-0.26,6.25,0.52
			C147.06,181.89,148.35,183.82,149.86,185.26z M166.11,88.78c3.03,3.21,8.95,2.39,11.65-2.05C173.7,89.27,170,89.56,166.11,88.78z
			 M196.22,91.07c0.44-2.36,0.88-4.71,1.4-7.47C195.05,86.03,194.55,88.18,196.22,91.07z M141.43,12.88
			c-0.33,0.08-0.66,0.15-0.99,0.23c-0.22,2.1,0.3,3.96,2.53,5.28C142.45,16.55,141.94,14.71,141.43,12.88z M128.13,16.39
			c-0.67,3.69-0.3,4.49,2.56,5.24C129.83,19.87,129.03,18.23,128.13,16.39z M120.42,157.2c-3.26-0.53-3.63-0.29-3.95,2.54
			C117.82,158.87,118.96,158.14,120.42,157.2z M170.07,117.04c-0.3-0.21-0.6-0.42-0.9-0.63c-1.32,0.67-2.24,1.6-1.79,4.22
			C168.52,119.1,169.29,118.07,170.07,117.04z M171.57,84.68c0.32,0.01,0.63,0.03,0.95,0.04c0.04-0.81,0.09-1.62,0.13-2.43
			c-0.34-0.01-0.67-0.03-1.01-0.04C171.62,83.06,171.6,83.87,171.57,84.68z M144.04,137.07c-0.21-0.19-0.42-0.38-0.63-0.57
			c-0.41,0.54-0.81,1.07-1.57,2.07c0.96-0.21,1.38-0.18,1.57-0.37C143.71,137.9,143.84,137.45,144.04,137.07z M194.26,133.1
			c0.74-0.67,1.09-0.84,1.18-1.1c0.1-0.31-0.03-0.7-0.05-1.05c-0.19-0.01-0.37-0.01-0.56-0.02
			C194.69,131.44,194.56,131.96,194.26,133.1z"/>
		<path class="st5" d="M177.71,178.34l0.04-0.02L177.71,178.34z"/>
		<path class="st5" d="M177.74,178.32l-0.04,0.02L177.74,178.32z"/>
	</g>
</g>
</svg>
