<?xml version="1.0" encoding="utf-8"?>
<!-- Generator: Adobe Illustrator 23.0.1, SVG Export Plug-In . SVG Version: 6.00 Build 0)  -->
<svg version="1.1" id="Layer_1" xmlns="http://www.w3.org/2000/svg" xmlns:xlink="http://www.w3.org/1999/xlink" x="0px" y="0px"
	 viewBox="0 0 408 408" style="enable-background:new 0 0 408 408;" xml:space="preserve">
<style type="text/css">
	.st0{fill:#CA463C;stroke:#000000;stroke-width:4;stroke-linejoin:round;stroke-miterlimit:10;}
	.st1{fill:#CA463C;stroke:#000000;stroke-width:4;stroke-miterlimit:10;}
	.st2{fill:#F15F3C;stroke:#000000;stroke-width:4;stroke-linejoin:round;stroke-miterlimit:10;}
	.st3{fill:none;stroke:#000000;stroke-width:4;stroke-miterlimit:10;}
	.st4{fill:#5E1642;stroke:#000000;stroke-width:4;stroke-linejoin:round;stroke-miterlimit:10;}
	.st5{fill:#5E1642;}
	.st6{fill:#310E34;stroke:#000000;stroke-width:2;stroke-linejoin:round;stroke-miterlimit:10;}
	.st7{fill:#310E34;stroke:#000000;stroke-width:2;stroke-miterlimit:10;}
	.st8{fill:#CA463C;stroke:#000000;stroke-width:2;stroke-linejoin:round;stroke-miterlimit:10;}
	.st9{fill:none;stroke:#000000;stroke-width:2;stroke-miterlimit:10;}
	.st10{fill:#F15F3C;stroke:#000000;stroke-width:2;stroke-linejoin:round;stroke-miterlimit:10;}
	.st11{fill:#F15F3C;}
	.st12{fill:#310E34;}
	.st13{fill:none;stroke:#310E34;stroke-width:5;stroke-linecap:round;stroke-miterlimit:10;}
	.st14{fill:none;stroke:#310E34;stroke-width:5;stroke-linecap:round;stroke-linejoin:round;stroke-miterlimit:10;}
	.st15{fill:#CA463C;}
	.st16{fill:#972E41;}
	.st17{fill:none;stroke:#310E34;stroke-width:0.5653;stroke-linecap:round;stroke-miterlimit:10;}
	.st18{fill:none;stroke:#310E34;stroke-width:0.5653;stroke-linecap:round;stroke-linejoin:round;stroke-miterlimit:10;}
	.st19{fill:none;stroke:#5E1642;stroke-width:0.5561;stroke-linecap:round;stroke-miterlimit:10;}
	.st20{fill:none;stroke:#972E41;stroke-width:0.5561;stroke-linecap:round;stroke-miterlimit:10;}
	.st21{fill:none;stroke:#972E41;stroke-width:0.5561;stroke-linecap:round;stroke-linejoin:round;stroke-miterlimit:10;}
	.st22{fill:#972E41;stroke:#CA463C;stroke-width:0.25;stroke-miterlimit:10;}
	.st23{fill:#310E34;stroke:#5E1642;stroke-width:0.25;stroke-miterlimit:10;}
	.st24{fill:#F15F3C;stroke:#972E41;stroke-width:0.25;stroke-miterlimit:10;}
	.st25{fill:#310E34;stroke:#972E41;stroke-width:0.25;stroke-miterlimit:10;}
	.st26{fill:url(#SVGID_9_);}
	.st27{fill:url(#SVGID_10_);}
	.st28{clip-path:url(#SVGID_12_);}
	.st29{clip-path:url(#SVGID_14_);}
	.st30{enable-background:new    ;}
	.st31{fill:#8D331A;}
	.st32{fill:#E05838;}
	.st33{fill:#E45A39;}
	.st34{fill:#D65435;}
	.st35{fill:#B8482C;}
	.st36{fill:#B5462A;}
	.st37{fill:#7B251C;}
	.st38{fill:#C2433A;}
	.st39{fill:#BE4238;}
	.st40{fill:#B63F35;}
	.st41{fill:#9F352C;}
	.st42{fill:#9C342B;}
	.st43{fill:#47133B;}
	.st44{fill:#5B1641;}
	.st45{fill:#5A1641;}
	.st46{fill:#581540;}
	.st47{fill:#51153E;}
	.st48{fill:#50143E;}
	.st49{fill:none;}
	.st50{clip-path:url(#SVGID_16_);}
	.st51{fill:#6C1A2A;}
	.st52{fill:#922D3E;}
	.st53{fill:#902C3D;}
	.st54{fill:#8C2A3B;}
	.st55{fill:#7F2434;}
	.st56{fill:#7E2334;}
	.st57{fill:#68283E;}
	.st58{fill:#371135;}
	.st59{fill:#391336;}
	.st60{fill:#3E1637;}
	.st61{fill:#4E1D3A;}
	.st62{fill:#501E3B;}
	.st63{clip-path:url(#SVGID_18_);}
	.st64{clip-path:url(#SVGID_20_);}
	.st65{clip-path:url(#SVGID_22_);}
	.st66{clip-path:url(#SVGID_25_);}
</style>
<g>
	<defs>
		<rect id="SVGID_11_" x="-586.05" y="-1.12" width="408" height="409.12"/>
	</defs>
	<clipPath id="SVGID_8_">
		<use xlink:href="#SVGID_11_"  style="overflow:visible;"/>
	</clipPath>
	<g style="clip-path:url(#SVGID_8_);">
		<path class="st5" d="M2.71,207.44c-14.35-2.09-28.71-4.13-43.06-6.28c-12.22-1.83-24.44-3.7-36.64-5.68
			c-8.13-1.32-16.26-1.43-24.49-1.05c-15.89,0.74-31.8,1.08-47.7,1.51c-12.28,0.34-24.38,1.85-36.21,5.17
			c-5.82,1.63-11.55,3.62-17.3,5.48c-3.86,1.25-7.02,3.71-9.45,6.77c-6.64,8.36-14.95,14.92-22.74,22.06
			c-2.36,2.17-4.53,4.55-6.77,6.85c-3.7,3.79-8.18,5.72-13.46,5.28c-10.41-0.87-20.82-1.85-31.21-2.91
			c-2.31-0.24-4.66-0.76-6.65-2.7c2.3-2.6,4.99-4.29,7.89-5.55c8.55-3.72,17.5-3.88,26.57-2.68c1.77,0.23,3.61,1.05,5.71-0.43
			c-6.84-2.13-13.4-2.25-20.06-1.85c-7.28,0.44-13.55,3.26-19.36,7.39c-6.77,4.81-13.67,9.47-20.24,14.54
			c-4.78,3.69-10.14,6.18-15.54,8.61c-9.26,4.16-17.75,9.53-26.13,15.18c-3.01,2.03-6.48,3.41-9.82,4.91
			c-2.84,1.27-5.38,0.52-7.34-1.87c-1.04-1.27-2.07-2.6-2.83-4.05c-1.35-2.57-1.18-5.29,0.93-7.25c3.02-2.8,6.23-5.48,9.67-7.73
			c4.96-3.24,10.19-6.08,15.34-9.02c6.86-3.92,12.59-9.29,18.65-14.24c6.25-5.1,12.69-9.99,18.93-15.1c2.93-2.4,5.69-5.02,8.34-7.72
			c0.96-0.98,1.37-2.5,2.03-3.77c-0.24-0.15-0.49-0.29-0.73-0.44c-1.57,1.94-3.15,3.88-4.92,6.08c-0.73-2.62-1.35-4.83-2.02-7.23
			c0.22-0.22,0.69-0.67,1.26-1.23c-0.48-0.28-0.81-0.63-1.05-0.58c-2.77,0.64-5.63,1.09-8.28,2.08
			c-15.71,5.85-32.07,8.71-48.63,10.43c-7.51,0.78-14.71,2.6-21.94,4.5c-5,1.31-10.03,2.02-15.1,0.41c-4.63-1.47-6.68-4.6-6.14-9.89
			c0.49,1.36,0.71,2.37,1.21,3.22c0.5,0.85,1.28,1.53,2.23,2.16c-0.48-2.74-2.23-5.25-0.61-8.37c3.35-2.12,7.51-2.66,11.56-3.39
			c12.92-2.33,25.3-6.44,37.64-10.8c11.88-4.19,23.95-7.82,35.92-11.78c5.85-1.94,11.65-4.04,17.46-6.1
			c0.42-0.15,0.77-0.49,0.98-1.44c-1.22,0.38-2.44,0.73-3.64,1.13c-1.23,0.41-2.44,0.88-3.98,1.06c3.16-6.49,4.92-13.6,9.92-19.07
			c1.87-2.05,4.07-3.63,6.8-4.39c0.95-0.26,1.86-0.66,2.7-1.24c-4.75-1.18-7.96,1.48-11.09,4.55c0.56-8.57,5.67-11.11,12.36-12.03
			c14.33-1.97,28.78-3.11,43.2-4.36c2.53-0.22,5.24,0.38,7.73,1.08c8.04,2.24,16.06,1.57,24.01-0.05
			c13.84-2.82,27.64-5.9,41.45-8.88c11.49-2.48,22.99-4.9,34.45-7.53c6.13-1.4,12.15-3.32,18.27-4.76
			c7.74-1.82,15.52-3.5,23.32-5.06c13.97-2.78,27.97-5.44,41.96-8.13c6.76-1.3,13.53-2.55,20.3-3.82
			C-21.54,140.78-9.42,174.11,2.71,207.44z M-368.98,279.94c-0.46-0.9-0.73-1.52-1.07-2.09c-2.94-4.86-2.57-6.51,2.15-9.55
			c0.49-0.32,1.02-0.6,1.56-0.84c4.86-2.15,7.25-1.32,9.82,3.36c0.07,0.13,0.38,0.13,0.58,0.19c0.51-2.99-1.03-5.14-4.31-5.92
			c-4.7-1.12-8.36,1.02-11.5,4.09C-375.18,272.51-373.96,277.45-368.98,279.94z M-296.38,179.17c0.05,0.29,0.11,0.57,0.16,0.86
			c1.36-0.15,2.74-0.21,4.08-0.46c4.39-0.82,8.77-1.7,13.15-2.57c1.53-0.3,3.04-0.66,4.56-0.99c-0.06-0.26-0.12-0.52-0.17-0.78
			C-282.08,175.25-289.38,176.33-296.38,179.17z M-400.62,221.15c5.3,1.27,10.51-1.1,12.23-4.92c1.13-2.5,0.81-4.66-0.92-6.09
			c-0.12,0.19-0.35,0.38-0.36,0.56c-0.09,6.59-1.42,8.13-8.06,9.42C-398.72,220.32-399.66,220.8-400.62,221.15z M-365.95,280.12
			c2.88,0.67,6.36-1.67,8.19-5.67C-360.81,276.56-363.26,278.25-365.95,280.12z M-347.73,256.92c-0.24,0.18-0.49,0.36-0.73,0.54
			c0.98,3.02,2.03,4.35,4.9,5.44C-345.25,260.48-346.49,258.7-347.73,256.92z M-345.31,208.51c-0.42-2.62-0.77-4.74-1.2-7.43
			C-348.37,204.71-348.14,206.13-345.31,208.51z M-328.07,241.49c-3.73,1.56-4.93,3.36-4.57,6.53
			C-331.13,245.87-329.77,243.93-328.07,241.49z M-326.83,246.17c-0.29,0.23-0.58,0.47-0.87,0.7c0.86,1.93,2.1,3.51,4.1,4.36
			c0.23-0.2,0.45-0.4,0.68-0.61C-324.23,249.15-325.53,247.66-326.83,246.17z M-345.95,197.17c-0.36,0.16-0.73,0.32-1.09,0.48
			c0.74,1.79,1.49,3.58,2.23,5.37c0.29-0.11,0.57-0.23,0.86-0.34C-344.62,200.84-345.29,199.01-345.95,197.17z M-375.18,211.66
			c0.35-0.02,0.7-0.03,1.05-0.05c-0.04-0.93-0.08-1.85-0.11-2.78c-0.36,0.02-0.72,0.03-1.09,0.05
			C-375.28,209.81-375.23,210.73-375.18,211.66z M-323.72,246.06c-0.33,0.22-0.65,0.44-0.98,0.66c0.64,0.72,1.28,1.44,1.91,2.16
			c0.26-0.21,0.51-0.43,0.77-0.64C-322.58,247.51-323.15,246.79-323.72,246.06z"/>
	</g>
</g>
<g>
	<g>
		<g>
			<g>
				<g class="st30">
					<g>
						<polygon class="st31" points="278.81,32.64 278.67,32.77 262.4,32.77 262.54,32.64 						"/>
					</g>
					<g>
						<polygon class="st31" points="262.54,32.64 262.4,32.77 262.39,16.5 262.53,16.36 						"/>
					</g>
					<g>
						<polygon class="st32" points="265.43,19.2 262.53,16.36 278.8,16.36 275.96,19.2 						"/>
					</g>
					<g>
						<polygon class="st33" points="275.96,19.2 278.8,16.36 278.81,32.64 275.97,29.74 						"/>
					</g>
					<g>
						<rect x="265.43" y="19.2" class="st34" width="10.53" height="10.54"/>
					</g>
					<g>
						<polygon class="st35" points="275.97,29.74 278.81,32.64 262.54,32.64 265.44,29.74 						"/>
					</g>
					<g>
						<polygon class="st36" points="265.44,29.74 262.54,32.64 262.53,16.36 265.43,19.2 						"/>
					</g>
				</g>
			</g>
		</g>
		<g>
			<g>
				<g class="st30">
					<g>
						<polygon class="st31" points="262.53,32.64 262.4,32.77 246.13,32.77 246.26,32.64 						"/>
					</g>
					<g>
						<polygon class="st31" points="246.26,32.64 246.13,32.77 246.12,16.5 246.26,16.36 						"/>
					</g>
					<g>
						<polygon class="st32" points="249.16,19.2 246.26,16.36 262.53,16.36 259.69,19.2 						"/>
					</g>
					<g>
						<polygon class="st33" points="259.69,19.2 262.53,16.36 262.53,32.64 259.69,29.74 						"/>
					</g>
					<g>
						<rect x="249.16" y="19.2" class="st34" width="10.53" height="10.54"/>
					</g>
					<g>
						<polygon class="st35" points="259.69,29.74 262.53,32.64 246.26,32.64 249.16,29.74 						"/>
					</g>
					<g>
						<polygon class="st36" points="249.16,29.74 246.26,32.64 246.26,16.36 249.16,19.2 						"/>
					</g>
				</g>
			</g>
		</g>
		<g>
			<g>
				<g class="st30">
					<g>
						<polygon class="st31" points="246.26,32.64 246.12,32.77 229.85,32.77 229.98,32.64 						"/>
					</g>
					<g>
						<polygon class="st31" points="229.98,32.64 229.85,32.77 229.84,16.5 229.98,16.36 						"/>
					</g>
					<g>
						<polygon class="st33" points="243.42,19.2 246.26,16.36 246.26,32.64 243.42,29.74 						"/>
					</g>
					<g>
						<polygon class="st32" points="232.88,19.2 229.98,16.36 246.26,16.36 243.42,19.2 						"/>
					</g>
					<g>
						<rect x="232.88" y="19.2" class="st34" width="10.54" height="10.54"/>
					</g>
					<g>
						<polygon class="st35" points="243.42,29.74 246.26,32.64 229.98,32.64 232.88,29.74 						"/>
					</g>
					<g>
						<polygon class="st36" points="232.88,29.74 229.98,32.64 229.98,16.36 232.88,19.2 						"/>
					</g>
				</g>
			</g>
		</g>
		<g>
			<g>
				<g class="st30">
					<g>
						<polygon class="st31" points="246.26,16.36 246.12,16.49 229.85,16.49 229.98,16.36 						"/>
					</g>
					<g>
						<polygon class="st31" points="229.98,16.36 229.85,16.49 229.84,0.22 229.98,0.09 						"/>
					</g>
					<g>
						<polygon class="st33" points="243.42,2.93 246.26,0.09 246.26,16.36 243.42,13.45 						"/>
					</g>
					<g>
						<polygon class="st32" points="232.88,2.93 229.98,0.09 246.26,0.09 243.42,2.93 						"/>
					</g>
					<g>
						<rect x="232.88" y="2.93" class="st34" width="10.54" height="10.53"/>
					</g>
					<g>
						<polygon class="st35" points="243.42,13.45 246.26,16.36 229.98,16.36 232.88,13.45 						"/>
					</g>
					<g>
						<polygon class="st36" points="232.88,13.45 229.98,16.36 229.98,0.09 232.88,2.93 						"/>
					</g>
				</g>
			</g>
		</g>
	</g>
	<g>
		<g>
			<g>
				<g class="st30">
					<g>
						<polygon class="st37" points="69.25,90.8 69.11,90.93 52.83,90.93 52.97,90.8 						"/>
					</g>
					<g>
						<polygon class="st37" points="52.97,90.8 52.83,90.93 52.83,74.66 52.97,74.53 						"/>
					</g>
					<g>
						<polygon class="st38" points="66.41,77.36 69.24,74.53 69.25,90.8 66.41,87.89 						"/>
					</g>
					<g>
						<polygon class="st39" points="55.87,77.36 52.97,74.53 69.24,74.53 66.41,77.36 						"/>
					</g>
					<g>
						<rect x="55.87" y="77.36" class="st40" width="10.54" height="10.53"/>
					</g>
					<g>
						<polygon class="st41" points="66.41,87.89 69.25,90.8 52.97,90.8 55.87,87.89 						"/>
					</g>
					<g>
						<polygon class="st42" points="55.87,87.89 52.97,90.8 52.97,74.53 55.87,77.36 						"/>
					</g>
				</g>
			</g>
		</g>
		<g>
			<g>
				<g class="st30">
					<g>
						<polygon class="st37" points="69.25,107.07 69.11,107.2 52.83,107.2 52.97,107.07 						"/>
					</g>
					<g>
						<polygon class="st37" points="52.97,107.07 52.83,107.2 52.83,90.94 52.97,90.8 						"/>
					</g>
					<g>
						<polygon class="st38" points="66.41,93.64 69.24,90.8 69.25,107.07 66.41,104.17 						"/>
					</g>
					<g>
						<polygon class="st39" points="55.87,93.64 52.97,90.8 69.24,90.8 66.41,93.64 						"/>
					</g>
					<g>
						<rect x="55.87" y="93.64" class="st40" width="10.54" height="10.53"/>
					</g>
					<g>
						<polygon class="st41" points="66.41,104.17 69.25,107.07 52.97,107.07 55.87,104.17 						"/>
					</g>
					<g>
						<polygon class="st42" points="55.87,104.17 52.97,107.07 52.97,90.8 55.87,93.64 						"/>
					</g>
				</g>
			</g>
		</g>
		<g>
			<g>
				<g class="st30">
					<g>
						<polygon class="st37" points="52.97,107.07 52.83,107.2 36.56,107.2 36.7,107.07 						"/>
					</g>
					<g>
						<polygon class="st37" points="36.7,107.07 36.56,107.2 36.56,90.94 36.69,90.8 						"/>
					</g>
					<g>
						<polygon class="st38" points="50.13,93.64 52.96,90.8 52.97,107.07 50.13,104.17 						"/>
					</g>
					<g>
						<polygon class="st39" points="39.6,93.64 36.69,90.8 52.96,90.8 50.13,93.64 						"/>
					</g>
					<g>
						<rect x="39.6" y="93.64" class="st40" width="10.53" height="10.53"/>
					</g>
					<g>
						<polygon class="st41" points="50.13,104.17 52.97,107.07 36.7,107.07 39.6,104.17 						"/>
					</g>
					<g>
						<polygon class="st42" points="39.6,104.17 36.7,107.07 36.69,90.8 39.6,93.64 						"/>
					</g>
				</g>
			</g>
		</g>
		<g>
			<g>
				<g class="st30">
					<g>
						<polygon class="st37" points="52.97,90.8 52.83,90.93 36.56,90.93 36.7,90.8 						"/>
					</g>
					<g>
						<polygon class="st37" points="36.7,90.8 36.56,90.93 36.56,74.66 36.69,74.53 						"/>
					</g>
					<g>
						<polygon class="st38" points="50.13,77.36 52.96,74.53 52.97,90.8 50.13,87.89 						"/>
					</g>
					<g>
						<polygon class="st39" points="39.6,77.36 36.69,74.53 52.96,74.53 50.13,77.36 						"/>
					</g>
					<g>
						<rect x="39.6" y="77.36" class="st40" width="10.53" height="10.53"/>
					</g>
					<g>
						<polygon class="st41" points="50.13,87.89 52.97,90.8 36.7,90.8 39.6,87.89 						"/>
					</g>
					<g>
						<polygon class="st42" points="39.6,87.89 36.7,90.8 36.69,74.53 39.6,77.36 						"/>
					</g>
				</g>
			</g>
		</g>
	</g>
	<g>
		<g>
			<g>
				<g class="st30">
					<g>
						<polygon class="st43" points="295.82,63.58 295.68,63.72 279.41,63.72 279.55,63.58 						"/>
					</g>
					<g>
						<polygon class="st43" points="279.55,63.58 279.41,63.72 279.4,47.45 279.54,47.31 						"/>
					</g>
					<g>
						<polygon class="st44" points="292.97,50.15 295.81,47.31 295.82,63.58 292.98,60.68 						"/>
					</g>
					<g>
						<polygon class="st45" points="282.44,50.15 279.54,47.31 295.81,47.31 292.97,50.15 						"/>
					</g>
					<g>
						<rect x="282.44" y="50.15" class="st46" width="10.53" height="10.53"/>
					</g>
					<g>
						<polygon class="st47" points="292.98,60.68 295.82,63.58 279.55,63.58 282.45,60.68 						"/>
					</g>
					<g>
						<polygon class="st48" points="282.45,60.68 279.55,63.58 279.54,47.31 282.44,50.15 						"/>
					</g>
				</g>
			</g>
		</g>
		<g>
			<g>
				<g class="st30">
					<g>
						<polygon class="st43" points="295.82,79.85 295.68,79.99 279.41,79.99 279.55,79.85 						"/>
					</g>
					<g>
						<polygon class="st43" points="279.55,79.85 279.41,79.99 279.4,63.72 279.54,63.58 						"/>
					</g>
					<g>
						<polygon class="st44" points="292.97,66.42 295.81,63.58 295.82,79.85 292.98,76.95 						"/>
					</g>
					<g>
						<polygon class="st45" points="282.44,66.42 279.54,63.58 295.81,63.58 292.97,66.42 						"/>
					</g>
					<g>
						<rect x="282.44" y="66.42" class="st46" width="10.53" height="10.53"/>
					</g>
					<g>
						<polygon class="st47" points="292.98,76.95 295.82,79.85 279.55,79.85 282.45,76.95 						"/>
					</g>
					<g>
						<polygon class="st48" points="282.45,76.95 279.55,79.85 279.54,63.58 282.44,66.42 						"/>
					</g>
				</g>
			</g>
		</g>
		<g>
			<g>
				<g class="st30">
					<g>
						<polygon class="st43" points="295.82,96.12 295.68,96.26 279.41,96.26 279.55,96.12 						"/>
					</g>
					<g>
						<polygon class="st43" points="279.55,96.12 279.41,96.26 279.4,79.99 279.54,79.85 						"/>
					</g>
					<g>
						<polygon class="st44" points="292.97,82.69 295.81,79.85 295.82,96.12 292.98,93.22 						"/>
					</g>
					<g>
						<polygon class="st45" points="282.44,82.69 279.54,79.85 295.81,79.85 292.97,82.69 						"/>
					</g>
					<g>
						<rect x="282.44" y="82.69" class="st46" width="10.53" height="10.53"/>
					</g>
					<g>
						<polygon class="st47" points="292.98,93.22 295.82,96.12 279.55,96.12 282.45,93.22 						"/>
					</g>
					<g>
						<polygon class="st48" points="282.45,93.22 279.55,96.12 279.54,79.85 282.44,82.69 						"/>
					</g>
				</g>
			</g>
		</g>
		<g>
			<g>
				<g class="st30">
					<g>
						<polygon class="st43" points="279.54,96.12 279.41,96.26 263.14,96.26 263.27,96.12 						"/>
					</g>
					<g>
						<polygon class="st43" points="263.27,96.12 263.14,96.26 263.13,79.99 263.27,79.85 						"/>
					</g>
					<g>
						<polygon class="st44" points="276.7,82.69 279.54,79.85 279.54,96.12 276.7,93.22 						"/>
					</g>
					<g>
						<polygon class="st45" points="266.17,82.69 263.27,79.85 279.54,79.85 276.7,82.69 						"/>
					</g>
					<g>
						<rect x="266.17" y="82.69" class="st46" width="10.53" height="10.53"/>
					</g>
					<g>
						<polygon class="st47" points="276.7,93.22 279.54,96.12 263.27,96.12 266.17,93.22 						"/>
					</g>
					<g>
						<polygon class="st48" points="266.17,93.22 263.27,96.12 263.27,79.85 266.17,82.69 						"/>
					</g>
				</g>
			</g>
		</g>
	</g>
	<g>
		<g>
			<g>
				<g class="st30">
					<g>
						<polygon class="st43" points="148.61,144.95 148.47,145.09 132.2,145.09 132.34,144.95 						"/>
					</g>
					<g>
						<polygon class="st43" points="132.34,144.95 132.2,145.09 132.2,128.82 132.34,128.68 						"/>
					</g>
					<g>
						<polygon class="st44" points="145.77,131.52 148.61,128.68 148.61,144.95 145.77,142.05 						"/>
					</g>
					<g>
						<polygon class="st45" points="135.24,131.52 132.34,128.68 148.61,128.68 145.77,131.52 						"/>
					</g>
					<g>
						<rect x="135.24" y="131.52" class="st46" width="10.53" height="10.53"/>
					</g>
					<g>
						<polygon class="st47" points="145.77,142.05 148.61,144.95 132.34,144.95 135.24,142.05 						"/>
					</g>
					<g>
						<polygon class="st48" points="135.24,142.05 132.34,144.95 132.34,128.68 135.24,131.52 						"/>
					</g>
				</g>
			</g>
		</g>
		<g>
			<g>
				<g class="st30">
					<g>
						<polygon class="st43" points="132.34,144.95 132.2,145.09 115.93,145.09 116.07,144.95 						"/>
					</g>
					<g>
						<polygon class="st43" points="116.07,144.95 115.93,145.09 115.93,128.82 116.06,128.68 						"/>
					</g>
					<g>
						<polygon class="st44" points="129.5,131.52 132.33,128.68 132.34,144.95 129.5,142.05 						"/>
					</g>
					<g>
						<polygon class="st45" points="118.97,131.52 116.06,128.68 132.33,128.68 129.5,131.52 						"/>
					</g>
					<g>
						<rect x="118.97" y="131.52" class="st46" width="10.53" height="10.53"/>
					</g>
					<g>
						<polygon class="st47" points="129.5,142.05 132.34,144.95 116.07,144.95 118.97,142.05 						"/>
					</g>
					<g>
						<polygon class="st48" points="118.97,142.05 116.07,144.95 116.06,128.68 118.97,131.52 						"/>
					</g>
				</g>
			</g>
		</g>
		<g>
			<g>
				<g class="st30">
					<g>
						<polygon class="st43" points="132.34,128.68 132.2,128.81 115.93,128.81 116.07,128.68 						"/>
					</g>
					<g>
						<polygon class="st43" points="116.07,128.68 115.93,128.81 115.93,112.54 116.06,112.4 						"/>
					</g>
					<g>
						<polygon class="st45" points="118.97,115.24 116.06,112.4 132.33,112.4 129.5,115.24 						"/>
					</g>
					<g>
						<polygon class="st44" points="129.5,115.24 132.33,112.4 132.34,128.68 129.5,125.77 						"/>
					</g>
					<g>
						<rect x="118.97" y="115.24" class="st46" width="10.53" height="10.54"/>
					</g>
					<g>
						<polygon class="st47" points="129.5,125.77 132.34,128.68 116.07,128.68 118.97,125.77 						"/>
					</g>
					<g>
						<polygon class="st48" points="118.97,125.77 116.07,128.68 116.06,112.4 118.97,115.24 						"/>
					</g>
				</g>
			</g>
		</g>
		<g>
			<g>
				<g class="st30">
					<g>
						<polygon class="st43" points="116.07,128.68 115.93,128.81 99.66,128.81 99.8,128.68 						"/>
					</g>
					<g>
						<polygon class="st43" points="99.8,128.68 99.66,128.81 99.66,112.54 99.79,112.4 						"/>
					</g>
					<g>
						<polygon class="st45" points="102.7,115.24 99.79,112.4 116.06,112.4 113.22,115.24 						"/>
					</g>
					<g>
						<polygon class="st44" points="113.22,115.24 116.06,112.4 116.07,128.68 113.23,125.77 						"/>
					</g>
					<g>
						<rect x="102.7" y="115.24" class="st46" width="10.53" height="10.54"/>
					</g>
					<g>
						<polygon class="st47" points="113.23,125.77 116.07,128.68 99.8,128.68 102.7,125.77 						"/>
					</g>
					<g>
						<polygon class="st48" points="102.7,125.77 99.8,128.68 99.79,112.4 102.7,115.24 						"/>
					</g>
				</g>
			</g>
		</g>
	</g>
	<rect y="0.16" class="st49" width="408" height="408"/>
</g>
</svg>
