<?xml version="1.0" encoding="utf-8"?>
<!-- Generator: Adobe Illustrator 23.0.1, SVG Export Plug-In . SVG Version: 6.00 Build 0)  -->
<!DOCTYPE svg PUBLIC "-//W3C//DTD SVG 1.1//EN" "http://www.w3.org/Graphics/SVG/1.1/DTD/svg11.dtd" [
	<!ENTITY st0 "fill:#CA463C;stroke:#000000;stroke-width:4;stroke-linejoin:round;stroke-miterlimit:10;">
	<!ENTITY st1 "fill:#CA463C;stroke:#000000;stroke-width:4;stroke-miterlimit:10;">
	<!ENTITY st2 "fill:#F15F3C;stroke:#000000;stroke-width:4;stroke-linejoin:round;stroke-miterlimit:10;">
	<!ENTITY st3 "fill:none;stroke:#000000;stroke-width:4;stroke-miterlimit:10;">
	<!ENTITY st4 "fill:#5E1642;stroke:#000000;stroke-width:4;stroke-linejoin:round;stroke-miterlimit:10;">
	<!ENTITY st5 "fill:#5E1642;">
	<!ENTITY st6 "fill:#310E34;stroke:#000000;stroke-width:2;stroke-linejoin:round;stroke-miterlimit:10;">
	<!ENTITY st7 "fill:#310E34;stroke:#000000;stroke-width:2;stroke-miterlimit:10;">
	<!ENTITY st8 "fill:#CA463C;stroke:#000000;stroke-width:2;stroke-linejoin:round;stroke-miterlimit:10;">
	<!ENTITY st9 "fill:none;stroke:#000000;stroke-width:2;stroke-miterlimit:10;">
	<!ENTITY st10 "fill:#F15F3C;stroke:#000000;stroke-width:2;stroke-linejoin:round;stroke-miterlimit:10;">
	<!ENTITY st11 "fill:#F15F3C;">
	<!ENTITY st12 "fill:#310E34;">
	<!ENTITY st13 "fill:none;stroke:#310E34;stroke-width:5;stroke-linecap:round;stroke-miterlimit:10;">
	<!ENTITY st14 "fill:none;stroke:#310E34;stroke-width:5;stroke-linecap:round;stroke-linejoin:round;stroke-miterlimit:10;">
	<!ENTITY st15 "fill:#CA463C;">
	<!ENTITY st16 "fill:#972E41;">
	<!ENTITY st17 "fill:none;stroke:#310E34;stroke-width:0.5653;stroke-linecap:round;stroke-miterlimit:10;">
	<!ENTITY st18 "fill:none;stroke:#310E34;stroke-width:0.5653;stroke-linecap:round;stroke-linejoin:round;stroke-miterlimit:10;">
	<!ENTITY st19 "fill:none;stroke:#5E1642;stroke-width:0.5561;stroke-linecap:round;stroke-miterlimit:10;">
	<!ENTITY st20 "fill:none;stroke:#972E41;stroke-width:0.5561;stroke-linecap:round;stroke-miterlimit:10;">
	<!ENTITY st21 "fill:none;stroke:#972E41;stroke-width:0.5561;stroke-linecap:round;stroke-linejoin:round;stroke-miterlimit:10;">
	<!ENTITY st22 "fill:#972E41;stroke:#CA463C;stroke-width:0.25;stroke-miterlimit:10;">
	<!ENTITY st23 "fill:#310E34;stroke:#5E1642;stroke-width:0.25;stroke-miterlimit:10;">
	<!ENTITY st24 "fill:#F15F3C;stroke:#972E41;stroke-width:0.25;stroke-miterlimit:10;">
	<!ENTITY st25 "fill:#310E34;stroke:#972E41;stroke-width:0.25;stroke-miterlimit:10;">
	<!ENTITY st26 "fill:url(#SVGID_9_);">
	<!ENTITY st27 "fill:url(#SVGID_10_);">
	<!ENTITY st28 "clip-path:url(#SVGID_12_);">
	<!ENTITY st29 "clip-path:url(#SVGID_14_);">
	<!ENTITY st30 "enable-background:new    ;">
	<!ENTITY st31 "fill:#8D331A;">
	<!ENTITY st32 "fill:#E05838;">
	<!ENTITY st33 "fill:#E45A39;">
	<!ENTITY st34 "fill:#D65435;">
	<!ENTITY st35 "fill:#B8482C;">
	<!ENTITY st36 "fill:#B5462A;">
	<!ENTITY st37 "fill:#7B251C;">
	<!ENTITY st38 "fill:#C2433A;">
	<!ENTITY st39 "fill:#BE4238;">
	<!ENTITY st40 "fill:#B63F35;">
	<!ENTITY st41 "fill:#9F352C;">
	<!ENTITY st42 "fill:#9C342B;">
	<!ENTITY st43 "fill:#47133B;">
	<!ENTITY st44 "fill:#5B1641;">
	<!ENTITY st45 "fill:#5A1641;">
	<!ENTITY st46 "fill:#581540;">
	<!ENTITY st47 "fill:#51153E;">
	<!ENTITY st48 "fill:#50143E;">
	<!ENTITY st49 "fill:none;">
	<!ENTITY st50 "clip-path:url(#SVGID_16_);">
	<!ENTITY st51 "fill:#6C1A2A;">
	<!ENTITY st52 "fill:#922D3E;">
	<!ENTITY st53 "fill:#902C3D;">
	<!ENTITY st54 "fill:#8C2A3B;">
	<!ENTITY st55 "fill:#7F2434;">
	<!ENTITY st56 "fill:#7E2334;">
	<!ENTITY st57 "fill:#68283E;">
	<!ENTITY st58 "fill:#371135;">
	<!ENTITY st59 "fill:#391336;">
	<!ENTITY st60 "fill:#3E1637;">
	<!ENTITY st61 "fill:#4E1D3A;">
	<!ENTITY st62 "fill:#501E3B;">
	<!ENTITY st63 "clip-path:url(#SVGID_18_);">
	<!ENTITY st64 "clip-path:url(#SVGID_20_);">
	<!ENTITY st65 "clip-path:url(#SVGID_22_);">
	<!ENTITY st66 "clip-path:url(#SVGID_25_);">
]>
<svg version="1.1" id="Layer_1" xmlns="http://www.w3.org/2000/svg" xmlns:xlink="http://www.w3.org/1999/xlink" x="0px" y="0px"
	 viewBox="0 0 408 408" style="enable-background:new 0 0 408 408;" xml:space="preserve">
<g>
	<defs>
		<rect id="SVGID_13_" y="-1.12" width="408" height="408"/>
	</defs>
	<clipPath id="SVGID_8_">
		<use xlink:href="#SVGID_13_"  style="overflow:visible;"/>
	</clipPath>
	<g style="clip-path:url(#SVGID_8_);">
		<path style="&st15;" d="M528.01,462.36c0.3-0.17,5.1,0.16,5.41,0.01v-66.11c-4.17-0.96-21.2-2.31-25.41-2.81
			c-10.85-1.29-21.76-2.03-32.61-3.34c-8.01-0.97-15.92-2.65-23.92-3.71c-12.46-1.65-24.96-2.91-37.42-4.59
			c-13.22-1.78-25.39-6.28-35.83-14.86c-0.85-0.7-1.81-1.25-2.75-1.88c-0.28,0.65-0.48,1.12-0.98,2.26
			c-0.56-1.78-1.12-2.9-1.24-4.06c-0.39-3.91-1.95-7.29-4.32-10.34c-4.51-5.82-9.14-11.56-13.54-17.47
			c-2.88-3.86-6.4-6.86-10.56-9.18c-11.14-6.22-21.2-13.95-30.73-22.39c-2.29-2.03-4.29-4.37-6.46-6.54
			c-2.46-2.46-5.24-2.94-7.78-1.4c-3.04,1.85-4.81,6.31-3.6,9.64c2.18,5.97,5.5,11.09,10.79,14.92c6.21,4.5,12.21,9.29,18.24,14.05
			c1.18,0.93,2.12,2.19,3.02,3.42c0.81,1.11,1.1,2.38,0.07,3.91c-1.88-2.3-4.11-2-6.4-1.06c-2.64,1.08-5.27,2.21-7.92,3.28
			c-0.47,0.19-1,0.21-1.94,0.38c1.64-2.77,4.49-3.01,6.85-4.69c-5.73,0.26-8.53,2.63-8.33,7.02c0.13,2.84,0.4,5.8,1.29,8.47
			c2.82,8.46,6.42,16.61,11.63,23.91c1.58,2.21,3.64,4.11,5.63,6c2.22,2.12,4.63,4.04,6.88,6.11c0.58,0.54,0.92,1.34,1.37,2.02
			c-0.18,0.15-0.36,0.29-0.54,0.44c-0.81-0.57-1.66-1.07-2.41-1.71c-2.88-2.46-5.89-4.8-8.54-7.5c-2.12-2.16-4.26-4.53-5.59-7.2
			c-3.45-6.94-6.66-14.03-9.6-21.2c-2.29-5.58-2.35-11.27,1.25-16.65c-2.1-0.26-4.02-0.55-5.94-0.71
			c-8.85-0.72-17.31-2.84-25.39-6.6c-3.89-1.81-7.92-3.44-12.04-4.59c-9.27-2.59-18.52-5.15-27.19-9.47
			c-1.62-0.81-3.47-1.31-5.27-1.57c-2.1-0.3-4.29-0.43-6.39-0.18c-3.92,0.46-5.61,3.38-4.36,7.11c0.88,2.61,2.39,4.91,4.94,6
			c4.02,1.73,8.13,3.34,12.31,4.61c6.39,1.94,12.53,4.36,18.43,7.54c5.12,2.76,10.47,5.08,15.71,7.6c2.12,1.02,4.29,1.96,6.33,3.12
			c1.73,0.99,2.13,2.84,1.24,4.5c-0.87,1.61-2.29,2.07-4.19,1.1c-7.51-3.83-15.85-4.64-23.89-6.49c-4.96-1.14-10.11-1.44-15.12-2.43
			c-6.81-1.35-13.54-3.18-20.36-4.44c-3.16-0.59-6.52-0.69-9.72-0.35c-3.74,0.4-6.87,3.97-7.01,7.15c-0.17,3.57,1.5,5.67,5.96,7.08
			c2.92,0.92,5.91,1.62,8.89,2.36c9.52,2.35,19.03,4.76,28.58,6.99c7.56,1.76,15.14,3.47,22.77,4.86c3.97,0.72,7.88,1.19,10.45,4.47
			c0.76-0.38,1.29-0.64,2.1-1.04c-0.35,2.43-1.76,3.17-3.5,3.25c-3.77,0.16-7.57-0.01-11.32,0.29c-7.24,0.57-14.46,1.44-21.71,2.07
			c-6.63,0.57-13.28,0.82-19.89,1.51c-4.15,0.44-8.3,1.19-12.33,2.25c-3.11,0.82-4.32,2.99-4.35,5.94c-0.03,3.04,1.7,4.96,4.31,5.65
			c2.61,0.69,5.57,1.32,8.1,0.75c8.19-1.85,16.47-1.73,24.74-1.96c7.96-0.22,15.93-0.23,23.9-0.23c4.69,0,9.39,0.27,14.08,0.34
			c4.23,0.06,5.48,5.37,3.02,7.71c-1.46,1.39-3.07,2.77-4.87,3.64c-3.58,1.72-7.33,3.12-11.03,4.58
			c-7.99,3.13-16.04,6.11-23.96,9.39c-2.5,1.04-4.73,2.8-6.98,4.38c-1.47,1.03-1.91,2.58-1.5,4.37c0.44,1.87,1.85,2.89,3.5,2.99
			c2.51,0.16,5.21,0.3,7.56-0.42c9.57-2.93,19.02-6.24,28.54-9.31c6.3-2.04,12.4-4.94,19.16-5.21c4.49-0.18,8.98-0.13,13.48-0.15
			c1.78-0.01,3.57,0.07,5.89,0.11c-0.77-3.12-1.31-5.79-2.1-8.39c-3.36-11.04-6.78-22.07-10.2-33.09c-1.39-4.47-2.34-9.21-6.9-11.86
			c-0.06-0.04,0.04-0.35,0.09-0.75c2.26,0.26,3.79,1.66,4.63,3.48c1.62,3.5,3.11,7.1,4.32,10.76c3.13,9.51,6.13,19.06,9.06,28.63
			c1.13,3.69,1.95,7.47,2.99,11.51c12.82,0.25,25.55,0.29,37.55-4.55c1.96,0.62,3.79,1.2,5.62,1.78c-0.01-0.01-0.01-0.01-0.02-0.02
			c3,0.95,5.94,2.14,9,2.81c22.63,4.96,44.76,11.49,66.27,20.12c14.44,5.79,29.13,10.93,44.29,14.45
			c14.83,3.44,29.8,6.28,44.71,9.36C527.36,462.37,527.67,462.37,528.01,462.36z M316.31,324.6c-0.36-0.18-0.72-0.36-1.08-0.53
			c0.55-1.14,1.1-2.28,1.65-3.43c0.28,0.12,0.56,0.24,0.83,0.36C317.25,322.2,316.78,323.4,316.31,324.6z M319.05,317.79
			c-0.13-0.06-0.27-0.12-0.4-0.19c0.14-0.34,0.28-0.68,0.42-1.03c0.19,0.1,0.37,0.2,0.56,0.3
			C319.43,317.18,319.24,317.49,319.05,317.79z M248.77,334.21c-0.04-3.22,1.52-4.93,2.98-6.65
			C251.76,330.03,250.98,332.09,248.77,334.21z M266.48,338.67c-0.15-0.16-0.35-0.3-0.44-0.49c-0.03-0.07,0.19-0.25,0.29-0.39
			c0.12,0.13,0.24,0.27,0.36,0.4C266.63,338.36,266.55,338.52,266.48,338.67z M268.97,341.17c0-1.76-0.05-3.47,1.54-4.98
			C271.19,338.54,269.85,339.82,268.97,341.17z M232.54,358.98c-0.24-0.08-0.48-0.16-0.72-0.24c0.36-1.1,0.73-2.2,1.09-3.3
			c0.23,0.08,0.46,0.15,0.69,0.23C233.25,356.78,232.9,357.88,232.54,358.98z M255.29,364.72c-0.28-0.11-0.57-0.23-0.85-0.34
			c0.32-0.85,0.64-1.7,0.96-2.56c0.24,0.08,0.48,0.15,0.72,0.23C255.85,362.94,255.57,363.83,255.29,364.72z M239.58,392.48
			c-0.96-0.96-1.62-1.61-2.67-2.65c0.29-0.83,0.73-2.1,1.17-3.36C239.49,388.27,240.41,390.03,239.58,392.48z M263.11,390.05
			c-0.21-0.02-0.42-0.04-0.64-0.05c0.06-0.59,0.12-1.17,0.18-1.75c0.19,0.02,0.38,0.03,0.56,0.05
			C263.18,388.87,263.14,389.46,263.11,390.05z M266.24,423.93c-0.32-0.97-0.63-1.93-0.95-2.9l0.93-0.36
			c0.32,0.98,0.64,1.96,0.96,2.95C266.88,423.72,266.56,423.82,266.24,423.93z M278.35,420.03c-0.36-1.04-0.71-2.09-1.07-3.13
			c0.28-0.1,0.57-0.21,0.85-0.31c0.4,1.03,0.81,2.07,1.21,3.1C279.02,419.8,278.69,419.91,278.35,420.03z M293.82,413.93l-0.45-3.53
			C294.94,411.36,294.95,412.57,293.82,413.93z M288.13,351.48c-0.3-0.05-0.6-0.11-0.9-0.16c0.23-0.99,0.47-1.98,0.7-2.98
			c0.28,0.05,0.56,0.11,0.84,0.16C288.56,349.5,288.34,350.49,288.13,351.48z M345.21,381.04c-10.45-2.91-20.38-6.72-27.27-15.79
			c-4.01-5.27-4.14-11.55,0.48-17.5c-0.55,2.12-1.04,3.57-1.28,5.05c-1.36,8.35,4.09,16,9.85,18.86c5.21,2.58,10.58,4.82,15.88,7.23
			c0.98,0.45,1.93,0.98,3.23,1.66C345.38,380.96,345.28,381.06,345.21,381.04z M331.67,338.87c0.2-2.08,3.91-4.09,8.68-4.07
			C337.07,336.33,334.28,337.64,331.67,338.87z M373.24,399.36c0.25,4.36-0.3,8.54-3,12.19c-1.86,2.53-4.24,4.04-7.47,3.99
			c-0.24-0.3-0.49-0.6-0.86-1.05c0.4-0.2,0.73-0.51,1.05-0.51c3.56,0.08,5.61-1.99,7.07-4.92c1.49-3,1.9-6.19,1.63-9.51
			c-0.28-3.45-0.51-6.91-0.71-10.37c-0.04-0.62,0.17-1.26,0.27-1.89c0.21-0.02,0.43-0.04,0.64-0.06c0.19,0.69,0.48,1.37,0.55,2.07
			C372.73,392.66,373.04,396.01,373.24,399.36z"/>
	</g>
	<g style="clip-path:url(#SVGID_8_);">
		<path style="&st15;" d="M521.16,18.46l0.63,0.84c0.17-0.1,0.33-0.2,0.5-0.3c-13.44-17.85-26.87-35.7-40.31-53.55
			c-0.24,0.08-0.49,0.16-0.73,0.23l0.98,1.31c-0.65,0.33-1.08,0.65-1.55,0.76c-5.84,1.38-10.79,4.65-15.82,7.66
			c-8.44,5.05-16.71,10.39-25.08,15.57C430.03-3,420.44,3.28,411.3,10.25c-12.68,9.68-25.46,19.25-38.26,28.77
			c-2.92,2.17-5.93,4.44-9.24,5.84c-8.39,3.55-16.99,6.61-25.49,9.93c-2.97,1.16-5.83,0.88-8.53-0.55
			c-3.31-1.76-6.56-3.65-9.74-5.64c-6.87-4.3-13.63-8.8-20.55-13.04c-5.24-3.21-10.94-3.99-17.01-2.83
			c-6.7,1.28-12.86,3.81-18.43,7.61c-3.47,2.36-6.6,5.46-6.42,10.1c0.13,3.28,1.07,6.54,1.68,9.94c2.97-0.73,5.61-2.79,8.25-0.16
			c-2.98-0.18-5.64,0.38-7.58,2.26c-0.32,4.11-0.61,7.88-0.96,12.46c3.2-1.91,6.12-3.07,8.26-5.08c2.3-2.16,2.75-5.38,1.76-8.96
			c2.06,1.25,2.14,2.75,1.9,4.28c-0.62,3.86-2.68,6.73-6.19,8.51c-1.4,0.71-2.82,1.39-4.56,2.25c2.81,1.95,5.3,1.94,7.75,0.53
			c2.39-1.38,4.4-3.19,5.84-5.64c2.76-4.72,3.91-9.76,3.47-15.19c-0.09-1.06-0.11-2.12-0.16-3.18l0.48-0.1
			c0.51,1.02,1.02,2.05,1.53,3.06c4.48-0.13,7.59-2.67,10.68-5.28c-1.52,5.21-6.25,5.86-11.06,7.18c3.8,2.84,6.05,5.94,5.89,10.13
			c3.76,2.66,6.02,6.27,8.3,9.88c0.58,0.91,1.31,1.83,2.18,2.42c1.25,0.84,2.67,1.46,4.07,2.03c5.4,2.19,11.13,2.11,16.81,2.33
			c1.11,0.04,2.27-0.15,3.2,0.73c-7.23,1.47-14.3,0.75-21.08-1.68c0.94,1.97,2.22,3.71,2.54,5.61c0.32,1.85-0.34,3.87-0.58,5.94
			c0.77,0.25,1.64,0.52,2.5,0.8c5.68,1.85,7.07,5.69,3.78,10.73c-0.7,1.08-1.65,2.15-2.75,2.78c-2.33,1.34-4.82,2.38-7.39,3.61
			c1.14,3.48,2.37,7.18,1.61,11.18c-1.47-3.61-1.13-7.86-3.77-10.97c-2.36,0.65-3.21,2.14-3.73,4.02c-0.4,1.45-0.94,2.88-1.56,4.26
			c-0.44,0.98-1.2,1.56-2.55,0.78c1.88-1.9,2.67-4.09,2.79-6.55c-0.9-0.16-1.61-0.28-2.32-0.41c-0.05-0.22-0.1-0.44-0.15-0.66
			c3.29-0.89,5.82-3.41,9.39-3.79c3.54-0.37,6.54-1.9,9.02-4.82c-1.5-0.51-3.45-0.22-3.5-2.35c-0.03-1.65,0.09-3.3,0.15-4.95
			c0.2-0.02,0.4-0.05,0.6-0.07c0.2,0.82,0.44,1.64,0.59,2.47c0.17,0.97,0.27,1.96,0.39,2.93c0.61,0.12,1,0.28,1.39,0.26
			c0.47-0.02,0.94-0.19,1.33-0.28c0.79-3.73-0.53-5.98-4.16-6.94c-3.59-0.95-7.28-1.24-10.83,0.01c-5.35,1.88-10.62,3.98-15.89,6.07
			c-2.85,1.13-4.51,3.32-5.14,6.32c-0.09,0.41-0.34,0.78-0.73,1.63c-1.03-2.7-0.41-4.64,1.11-6.05c1.69-1.57,3.6-3.05,5.68-4.02
			c3.85-1.79,7.85-3.3,11.87-4.69c2.18-0.76,4.51-1.22,6.81-1.49c4.25-0.5,5.81-2.87,4.27-6.88c-1.69-4.4-5.08-6.75-9.94-6.48
			c-8.41,0.47-16.39,2.73-23.89,6.55c-2.62,1.33-4.7,3.29-4.66,6.59c0.06,4.94,1.58,9.43,4.77,13.18c2.28,2.68,5.07,4.94,6.06,8.53
			c0.21,0.77,0.72,1.45,1.09,2.17c2.41,4.65,5.68,8.15,11.3,8.55c0.71,0.05,1.4,0.26,2.11,0.34c2.83,0.34,5.55,0.87,8.08,2.42
			c2.23,1.36,4.57,1.16,6.85-0.43c1.37-0.96,3.01-1.7,4.64-2.1c2.85-0.69,5.77-1.15,8.69-1.52c6.9-0.87,12.73-3.68,17.61-8.74
			c2.94-3.05,6.26-5.77,9.62-8.37c4.36-3.37,9.23-5.77,14.53-7.44c5.37-1.69,9.84-5.16,14.59-8.09
			c9.85-6.08,20.22-11.22,31.02-15.37c13.43-5.17,27.02-9.95,40.55-14.86c9.93-3.6,19.65-7.61,28.67-13.19
			c3.44-2.13,7.05-3.97,10.59-5.94c5.66-3.16,11.66-5.84,16.88-9.6c6.93-4.98,13.83-9.97,21.13-14.4
			C519.75,19.08,520.4,18.83,521.16,18.46z M295.13,86.93c2.08,2.33,2.2,3.02,1.06,5.3C295.84,90.47,295.49,88.7,295.13,86.93z"/>
		<path style="&st15;" d="M256.85,72.2c1.47,6.41,7.11,8.5,12.84,4.96c2.28-1.41,4.03-3.33,5.48-5.59c1.78-2.77,6.7-3.91,9.4-2.01
			c3.37,2.37,5.42,5.85,7.52,9.69c-0.93,0.15-1.49,0.28-2.05,0.31c-9.01,0.57-17.54,2.82-25.61,6.92c-2.93,1.49-4.74,3.68-5.83,6.91
			c-3-0.96-4.74-3.39-6.85-5.3c-0.52-0.47-0.9-1.1-1.33-1.66c-3.88-5.02-2.81-9.87,2.85-12.73C254.4,73.13,255.63,72.71,256.85,72.2
			z"/>
		<path style="&st15;" d="M256.21,53.38c1.4,4.73,2.1,9.58,2.07,14.55c-0.01,1.62-1.07,2.31-2.26,2.91
			c-2.16,1.08-4.35,2.11-6.87,3.33c-2.23-0.72-3.53-2.68-4.21-5.08C243.11,62.56,249.17,54.04,256.21,53.38z"/>
		<path style="&st15;" d="M279.23,59.95c2.5,2.02,3.86,3.96,3.49,6.97c-1.73,0.28-3.4,0.55-5.42,0.87
			C277.95,65.17,278.53,62.79,279.23,59.95z"/>
	</g>
	<g style="clip-path:url(#SVGID_8_);">
		<path style="&st15;" d="M49.36,219.63c-4.18-0.81-7.94-2.25-11.4-4.74c-3.86-2.78-8.15-4.07-12.94-2.68
			c-3.4,0.98-6.77,2.25-10.24,2.83c-4.07,0.68-7.07,2.86-9.87,5.58c-2.11,2.05-4.28,4.04-6.39,6.09
			c-6.99,6.83-13.59,13.98-17.77,22.99c-0.74,1.6-1.49,3.2-2.23,4.8c-0.85-3.11,1.21-5.28,2.4-8c-3.31,0.64-6.37,1.16-9.39,1.83
			c-4.74,1.05-9.49,2.11-14.19,3.36c-4.7,1.25-9.31,2.86-14.03,4.07c-8.17,2.09-16.52,3.08-24.93,3.67
			c-12.84,0.9-25.7,1.7-38.49,3.07c-11.49,1.24-22.92,2.88-34.49,3.41c-9.51,0.44-19.01,1.27-28.51,1.91
			c-0.68,0.05-1.37,0.01-1.91,0.01l-0.36-0.9c-0.21,0.12-0.43,0.25-0.65,0.36c9.04,22.8,18.08,45.6,27.12,68.39
			c0.25-0.06,0.5-0.11,0.75-0.16l-0.63-1.59c1.14-0.24,2.01-0.43,2.9-0.6c3.58-0.69,7.27-1.05,10.73-2.12
			c9.88-3.05,19.71-6.31,29.5-9.66c7.5-2.56,14.86-5.52,22.36-8.05c4.61-1.55,9.36-2.69,14.07-3.88c5.99-1.52,12.02-2.91,18.03-4.34
			c4.93-1.17,9.81-2.73,14.81-3.39c12.76-1.67,25.59-2.85,38.37-4.37c5.35-0.63,10.5-0.12,15.62,1.5c4.11,1.3,8.33,1.88,12.63,1.22
			c4.45-0.69,8.87-0.73,13.33-0.11c6.46,0.9,11.56-1.38,15.08-6.93c2.67-4.2,5.33-8.4,7.85-12.69c1.66-2.82,2.9-5.8,2.43-9.25
			c-0.84-6.2-2.34-12.2-4.8-18.41c-0.09,3.96-0.71,5.84-2.77,6.72c-2.21,0.93-4.59,1.69-6.96,1.94c-3.41,0.36-4.48-0.54-5.47-3.91
			c-0.81-2.76-1.15-5.59-0.07-8.37c1.35-3.47,4.28-4.81,7.6-5.58c-5.48-0.25-9.39,2.54-10.48,7.83c-0.44,2.15-0.47,4.44-0.35,6.65
			c0.21,3.89,1.45,7.55,2.99,11.11c0.67,1.55,1.26,3.14,1.7,4.26c-1.11,0.8-1.87,1.27-2.54,1.85c-1.84,1.59-3.61,3.26-5.47,4.82
			c-0.43,0.36-1.12,0.4-1.69,0.58c0.63-1.19,1.42-1.96,2.24-2.7c0.83-0.75,1.71-1.43,2.51-2.21c3.15-3.1,3.22-4.16,0.49-8.1
			c-0.7,0.75-1.3,1.58-2.08,2.18c-1.98,1.55-3.93,3.18-6.09,4.44c-2.79,1.63-5.48,1.02-7.81-1.17c-2.31-2.18-2.85-4.81-1.92-7.79
			c0.23-0.75,0.54-1.47,0.84-2.26c-2.67-0.16-4.88,0.31-7.09,1.61c-3.1,1.83-4.77,2.11-6.64,1.99c2.62-1.43,5.15-2.81,7.83-4.27
			c-0.45-0.57-0.67-0.9-0.94-1.18c-3.41-3.66-3.83-6.07-1.64-10.42c1.14-2.26,2.41-4.47,3.69-6.66c1.87-3.22,3.81-6.4,5.8-9.74
			c-1.08-0.58-1.86-1.03-2.66-1.44c-3.75-1.9-6.08-4.96-7.25-8.94c-0.47-1.59-0.24-2.28,0.98-3.49c0.86,6.3,4.46,11.1,9.48,12.29
			c1.16-2.82,2.65-5.45,1.4-8.85c-0.76-2.09-0.8-4.44,1.03-6.89c0.05,2.35,0.08,4.16,0.12,5.98c0.17,0.01,0.34,0.03,0.51,0.04
			l2.03-3.08c0.31,0.96,0.22,1.73-0.03,2.43c-3.05,8.62-5.95,17.3-11.89,24.54c-1.77,2.16-2.8,4.72-2.99,7.54
			c-0.2,3.02,1.87,6.04,4.58,6.8c2.47,0.7,4.74-0.55,6.53-3.2c2.61-3.87,5.35-7.66,8.13-11.4c3.68-4.97,7.7-9.69,10.55-15.25
			c1.42-2.77,2.57-5.52,1.97-8.73c-0.08-0.43,0.12-0.9,0.26-1.81c1.5,1.49,1.47,3.01,1.07,4.23c-1.14,3.45-2.1,7.09-3.97,10.13
			c-3.08,4.99-6.91,9.52-10.26,14.35c-2.79,4.02-5.35,8.2-8.01,12.31c0.3-0.31,0.6-0.61,0.87-0.94c3.46-4.36,8.05-3.73,10.31,1.81
			c-0.84-0.62-1.68-1.24-2.52-1.85c-2.88-2.11-4.57-1.9-6.58,1.11c-1.06,1.59-1.78,3.41-2.67,5.12c-0.36,0.7-0.6,1.65-1.74,1.04
			l0.05,0.03c0.44,1.1,0.89,2.2,1.33,3.31l-0.02,0.05c0.7-0.13,1.52-0.57,2.07-0.34c3.44,1.46,5.52,0.22,7.57-2.88
			c0.85-1.29,1.71-2.58,2.93-4.42c0.45,2.89-1.1,4.32-1.91,6c3.27-2.17,4.73-5.07,3.63-9.03c-0.16-0.58-0.25-1.19-0.36-1.78
			c-0.64-3.58-0.38-7.1,1.01-10.47c1.66-4.03,4.72-6.09,9.07-6.62c3.15-0.38,5.68,0.8,8.09,2.48c1.56-1.88,3.08-3.53,4.38-5.33
			C61.58,232.84,60.63,221.82,49.36,219.63z M24.16,253.36c-1.08-0.91-1.97-1.64-2.83-2.39c-2.68-2.32-4.77-2.59-6.4-0.81
			c-1.88,2.05-1.95,5.8-0.03,7.82c0.88,0.92,2.01,1.6,2.92,2.65c-1.42,0.22-2.6-0.35-3.57-1.32c-2.38-2.39-2.73-6.75-0.83-9.59
			c1.24-1.85,3.29-2.87,5.23-1.88c2.1,1.07,3.86,2.81,5.73,4.29C24.49,252.21,24.3,252.65,24.16,253.36z"/>
		<path style="&st15;" d="M60.97,230.15c8.1,0.28,14.08-4.01,20.36-7.46c7.28-4,14.47-8.17,21.68-12.3
			c5.45-3.12,10.79-6.44,16.32-9.43c5.26-2.84,10.67-5.4,16.06-7.99c1.07-0.51,2.35-0.87,3.51-0.82c0.98,0.04,2.38,0.5,2.82,1.23
			c2.37,3.88,3.4,7.61-0.94,11.1c-2.82,2.27-6.06,4.04-9.2,5.88c-11.35,6.68-22.71,13.34-34.12,19.91c-3.95,2.27-8.1,4.2-12.12,6.36
			c-1.78,0.96-3.53,1.99-5.15,3.2c-3.93,2.92-3.96,7.1-0.17,10.34c1.87,1.61,4.15,2.14,6.52,2.12c2.53-0.03,5.08-0.11,7.58-0.48
			c12.23-1.81,24.44-3.7,36.65-5.61c3.6-0.56,7.15-1.55,10.77-1.87c2.47-0.22,5.06,0.16,7.49,0.72c1.38,0.32,2.79,1.33,3.76,2.41
			c2.3,2.6,1.74,6.02-1.51,8.07c-2.63,1.66-5.49,3.29-8.47,4c-11.14,2.64-22.33,5.09-33.58,7.24c-7.45,1.42-15.04,2.09-22.53,3.31
			c-7.25,1.19-14.12,3.68-20.77,6.77c-2.48,1.15-4.97,2.3-7.79,3.61c3.74-5.99,2.43-12.01,0.74-17.93
			c-1.34-4.67-3.05-9.25-4.78-13.8c-0.67-1.76-0.48-3.06,0.69-4.45c1.17-1.39,2.22-2.9,3.27-4.39
			C60.02,237.13,61.57,234.2,60.97,230.15z"/>
		<path style="&st15;" d="M52.33,247.92c-0.35-0.19-0.71-0.39-1.41-0.77c0.51,1.67,0.98,3.09,1.39,4.54
			c1.18,4.17,0.05,6.47-4.07,7.67c-6.4,1.86-7.82,1.14-8.5-5.88c-0.44-4.56,2.21-7.47,7.07-8.28c0.82-0.14,1.96,0.38,2.05-1.1
			l-0.02,0.05c1.91,0.58,2.74,2.16,3.48,3.82L52.33,247.92z"/>
		<path style="&st15;" d="M19.57,266.23c0.45-1.05,0.91-2.1,1.36-3.15c0,0-0.04-0.03-0.04-0.03c-0.46,1.06-0.92,2.11-1.37,3.17
			L19.57,266.23z"/>
		<path style="&st15;" d="M23.03,273.39c0.51,0.03,1.02,0.07,1.53,0.1c-0.03,0.13-0.06,0.25-0.08,0.38
			c-0.48-0.17-0.95-0.35-1.43-0.52L23.03,273.39z"/>
		<path style="&st15;" d="M52.31,247.95c0.33,0.46,0.66,0.92,0.98,1.38c-0.09,0.05-0.17,0.11-0.26,0.16
			c-0.24-0.53-0.47-1.05-0.71-1.58L52.31,247.95z"/>
		<path style="&st15;" d="M20.41,271.77c0.6,0.42,1.2,0.85,1.81,1.27c0,0,0.02-0.04,0.02-0.04c-0.6-0.43-1.2-0.85-1.8-1.28
			L20.41,271.77z"/>
		<path style="&st15;" d="M19.1,268.41c0.16-0.73,0.31-1.46,0.47-2.19c0,0-0.05-0.01-0.05-0.01c-0.16,0.72-0.31,1.44-0.47,2.16
			C19.05,268.38,19.1,268.41,19.1,268.41z"/>
		<polygon style="&st15;" points="30,271.23 29.89,271.43 30.04,271.25 		"/>
		<path style="&st15;" d="M30.04,271.25c0.33-0.34,0.65-0.69,0.98-1.03c0,0-0.04-0.02-0.04-0.02c-0.32,0.34-0.65,0.69-0.97,1.03
			C30,271.23,30.04,271.25,30.04,271.25z"/>
		<polygon style="&st15;" points="61.66,228.55 61.9,228.55 61.68,228.51 		"/>
		<path style="&st15;" d="M46.62,243.7c0.46,0.03,0.91,0.06,1.37,0.09l0.02-0.04c-0.46-0.03-0.91-0.07-1.37-0.1L46.62,243.7z"/>
		<path style="&st15;" d="M48.86,244.09c-0.28-0.12-0.56-0.23-0.84-0.35l-0.02,0.04c0.28,0.12,0.56,0.23,0.85,0.35L48.86,244.09z"/>
		<path style="&st15;" d="M20.93,263.08c0.11-0.27,0.23-0.54,0.34-0.81c0,0-0.04-0.01-0.04-0.01c-0.11,0.27-0.22,0.53-0.34,0.8
			C20.89,263.05,20.93,263.08,20.93,263.08z"/>
		<path style="&st15;" d="M23.05,273.35c-0.27-0.12-0.54-0.23-0.82-0.35c0,0-0.02,0.04-0.02,0.04c0.27,0.12,0.54,0.23,0.82,0.35
			C23.03,273.39,23.05,273.35,23.05,273.35z"/>
		<path style="&st15;" d="M61.68,228.51l-0.02,0.04L61.68,228.51z"/>
	</g>
</g>
</svg>
