<?xml version="1.0" encoding="utf-8"?>
<!-- Generator: Adobe Illustrator 23.0.1, SVG Export Plug-In . SVG Version: 6.00 Build 0)  -->
<svg version="1.1" id="Layer_1" xmlns="http://www.w3.org/2000/svg" xmlns:xlink="http://www.w3.org/1999/xlink" x="0px" y="0px"
	 viewBox="0 0 503.88 316.69" style="enable-background:new 0 0 503.88 316.69;" xml:space="preserve">
<style type="text/css">
	.st0{fill:#CA463C;stroke:#000000;stroke-width:4;stroke-linejoin:round;stroke-miterlimit:10;}
	.st1{fill:#CA463C;stroke:#000000;stroke-width:4;stroke-miterlimit:10;}
	.st2{fill:#F15F3C;stroke:#000000;stroke-width:4;stroke-linejoin:round;stroke-miterlimit:10;}
	.st3{fill:none;stroke:#000000;stroke-width:4;stroke-miterlimit:10;}
	.st4{fill:#5E1642;stroke:#000000;stroke-width:4;stroke-linejoin:round;stroke-miterlimit:10;}
	.st5{fill:#5E1642;}
	.st6{fill:#310E34;stroke:#000000;stroke-width:2;stroke-linejoin:round;stroke-miterlimit:10;}
	.st7{fill:#310E34;stroke:#000000;stroke-width:2;stroke-miterlimit:10;}
	.st8{fill:#CA463C;stroke:#000000;stroke-width:2;stroke-linejoin:round;stroke-miterlimit:10;}
	.st9{fill:none;stroke:#000000;stroke-width:2;stroke-miterlimit:10;}
	.st10{fill:#F15F3C;stroke:#000000;stroke-width:2;stroke-linejoin:round;stroke-miterlimit:10;}
	.st11{fill:#F15F3C;}
	.st12{fill:#310E34;}
	.st13{fill:none;stroke:#310E34;stroke-width:5;stroke-linecap:round;stroke-miterlimit:10;}
	.st14{fill:none;stroke:#310E34;stroke-width:5;stroke-linecap:round;stroke-linejoin:round;stroke-miterlimit:10;}
	.st15{fill:#CA463C;}
	.st16{fill:#972E41;}
	.st17{fill:none;stroke:#310E34;stroke-width:0.5653;stroke-linecap:round;stroke-miterlimit:10;}
	.st18{fill:none;stroke:#310E34;stroke-width:0.5653;stroke-linecap:round;stroke-linejoin:round;stroke-miterlimit:10;}
	.st19{fill:none;stroke:#5E1642;stroke-width:0.5561;stroke-linecap:round;stroke-miterlimit:10;}
	.st20{fill:none;stroke:#972E41;stroke-width:0.5561;stroke-linecap:round;stroke-miterlimit:10;}
	.st21{fill:none;stroke:#972E41;stroke-width:0.5561;stroke-linecap:round;stroke-linejoin:round;stroke-miterlimit:10;}
	.st22{fill:#972E41;stroke:#CA463C;stroke-width:0.25;stroke-miterlimit:10;}
	.st23{fill:#310E34;stroke:#5E1642;stroke-width:0.25;stroke-miterlimit:10;}
	.st24{fill:#F15F3C;stroke:#972E41;stroke-width:0.25;stroke-miterlimit:10;}
	.st25{fill:#310E34;stroke:#972E41;stroke-width:0.25;stroke-miterlimit:10;}
	.st26{clip-path:url(#SVGID_7_);}
</style>
<g>
	<path class="st15" d="M502.63,202.95v112.78c0.41-0.12,0.83-0.23,1.24-0.34c0-37.4,0-74.79,0-112.19
		C503.46,203.13,503.04,203.05,502.63,202.95z"/>
	<path class="st15" d="M499.85,316.69c0.52-0.21,1.05-0.4,1.59-0.58V208.47c-6.54-2.42-12.89-5.44-19.58-7.12
		c-17.24-4.33-34.7-7.79-51.93-12.15c-12.72-3.22-25.15-7.58-37.83-10.95c-19.76-5.25-39.68-9.87-59.43-15.16
		c-20.96-5.61-39.66-15.4-54.73-31.41c-1.22-1.3-2.66-2.39-4.04-3.61c-0.59,1-1.02,1.71-2.04,3.45c-0.53-2.99-1.21-4.91-1.15-6.8
		c0.19-6.39-1.64-12.16-4.82-17.58c-6.07-10.33-12.35-20.56-18.23-31c-3.84-6.82-8.9-12.39-15.14-17.01
		c-16.69-12.35-31.32-26.9-44.94-42.5c-3.27-3.75-6.02-7.95-9.07-11.9c-3.46-4.49-7.85-5.83-12.27-3.87
		c-5.28,2.35-9.08,9.19-7.81,14.82c2.28,10.09,6.58,19.03,14.32,26.31c9.09,8.55,17.78,17.53,26.52,26.45
		c1.71,1.74,2.97,3.98,4.16,6.14c1.08,1.96,1.28,4.08-0.69,6.32c-2.56-4.1-6.21-4.07-10.1-3.03c-4.49,1.2-8.96,2.47-13.46,3.65
		c-0.79,0.21-1.66,0.12-3.2,0.22c3.22-4.13,7.87-3.92,12.03-6.15c-9.29-0.77-14.3,2.47-14.9,9.61c-0.38,4.62-0.56,9.44,0.32,13.94
		c2.8,14.24,6.91,28.13,13.81,40.99c2.09,3.9,5.03,7.38,7.83,10.85c3.14,3.88,6.63,7.47,9.84,11.29c0.83,0.99,1.2,2.36,1.79,3.55
		c-0.32,0.2-0.64,0.4-0.96,0.59c-1.18-1.08-2.46-2.07-3.54-3.26c-4.14-4.57-8.51-8.97-12.23-13.86c-2.98-3.92-5.93-8.19-7.52-12.78
		c-4.14-11.92-7.84-24.01-11.1-36.21c-2.53-9.48-1.46-18.67,5.47-26.61c-3.34-0.85-6.37-1.72-9.44-2.38
		c-14.13-3-27.34-8.17-39.61-15.91c-5.9-3.72-12.06-7.18-18.47-9.9c-14.42-6.1-28.82-12.15-41.92-20.91
		c-2.45-1.64-5.33-2.84-8.18-3.62c-3.33-0.92-6.83-1.59-10.27-1.62c-6.41-0.06-9.76,4.29-8.5,10.56c0.88,4.4,2.85,8.41,6.73,10.71
		c6.13,3.63,12.42,7.07,18.91,9.98C76,55.07,85.4,60.25,94.25,66.6c7.69,5.51,15.84,10.36,23.78,15.52
		c3.21,2.08,6.52,4.05,9.56,6.35c2.59,1.96,2.85,5.03,1.07,7.51c-1.74,2.42-4.12,2.87-7,0.91c-11.33-7.74-24.62-10.78-37.21-15.42
		c-7.77-2.86-16.02-4.42-23.89-7.06c-10.72-3.59-21.18-7.93-31.94-11.39c-4.98-1.6-10.38-2.46-15.61-2.58
		c-6.11-0.14-11.9,4.99-12.8,10.08c-1.01,5.73,1.25,9.47,8.15,12.66c4.52,2.09,9.21,3.84,13.86,5.65
		c14.88,5.77,29.73,11.63,44.68,17.2c11.83,4.41,23.71,8.73,35.73,12.56c6.25,1.99,12.47,3.55,15.94,9.38
		c1.31-0.45,2.21-0.77,3.6-1.25c-1.07,3.85-3.5,4.76-6.32,4.52c-6.12-0.52-12.21-1.58-18.33-1.88c-11.81-0.58-23.64-0.67-35.45-1.16
		c-10.81-0.45-21.6-1.43-32.41-1.68c-6.78-0.16-13.64,0.21-20.37,1.08c-5.19,0.67-7.6,3.93-8.25,8.68
		c-0.68,4.9,1.71,8.35,5.78,10.01c4.06,1.65,8.72,3.29,12.92,2.89c13.59-1.29,26.93,0.62,40.32,1.96
		c12.9,1.29,25.76,2.92,38.61,4.59c7.57,0.98,15.09,2.38,22.66,3.47c6.81,0.98,7.74,9.81,3.28,13.07c-2.65,1.94-5.53,3.84-8.61,4.86
		c-6.14,2.03-12.47,3.52-18.75,5.1c-13.54,3.4-27.15,6.53-40.61,10.19c-4.25,1.16-8.21,3.54-12.17,5.61
		c-2.58,1.35-3.62,3.77-3.32,6.74c0.32,3.1,2.39,5.05,5.02,5.56c4.02,0.77,8.35,1.57,12.29,0.9c16.05-2.74,31.98-6.12,47.99-9.11
		c10.59-1.98,21.03-5.4,32-4.43c7.28,0.64,14.52,1.65,21.78,2.55c2.88,0.36,5.75,0.85,9.49,1.4c-0.6-5.2-0.91-9.62-1.65-13.97
		c-3.13-18.52-6.37-37.01-9.6-55.51c-1.31-7.51-1.87-15.35-8.67-20.56c-0.09-0.07,0.14-0.56,0.3-1.19c3.59,0.89,5.76,3.47,6.75,6.58
		c1.9,5.99,3.55,12.09,4.73,18.26c3.08,15.99,5.93,32.02,8.69,48.07c1.06,6.18,1.6,12.46,2.44,19.19
		c20.63,3.06,41.17,5.77,61.54,0.44c3.03,1.41,5.86,2.72,8.7,4.04c-0.01-0.01-0.02-0.03-0.02-0.04c4.64,2.16,9.14,4.69,13.94,6.41
		c35.48,12.69,69.84,27.82,102.77,46.21c22.1,12.34,44.75,23.68,68.48,32.5c23.22,8.62,46.78,16.31,70.21,24.37
		C498.81,316.57,499.31,316.64,499.85,316.69z M186.79,50.52c-0.54-0.36-1.09-0.72-1.63-1.09c1.12-1.73,2.25-3.46,3.38-5.19
		c0.42,0.25,0.85,0.51,1.27,0.76C188.8,46.84,187.8,48.68,186.79,50.52z M192.63,40.11c-0.2-0.13-0.41-0.25-0.61-0.38
		c0.29-0.52,0.59-1.05,0.88-1.57c0.28,0.2,0.56,0.4,0.84,0.6C193.37,39.21,193,39.66,192.63,40.11z M75.81,52.04
		c0.61-5.2,3.48-7.64,6.19-10.11C81.51,45.92,79.82,49.07,75.81,52.04z M103.47,62.91c-0.21-0.29-0.5-0.56-0.61-0.88
		c-0.04-0.11,0.36-0.37,0.56-0.56c0.16,0.24,0.33,0.48,0.49,0.72C103.77,62.43,103.62,62.67,103.47,62.91z M106.97,67.45
		c0.37-2.83,0.64-5.61,3.51-7.72C111.09,63.67,108.66,65.45,106.97,67.45z M44.49,88.64c-0.37-0.18-0.74-0.35-1.11-0.53
		c0.81-1.7,1.63-3.4,2.44-5.1c0.36,0.17,0.72,0.34,1.07,0.52C46.1,85.23,45.29,86.94,44.49,88.64z M80.02,102.62
		c-0.43-0.24-0.87-0.49-1.3-0.73c0.69-1.31,1.38-2.62,2.08-3.93c0.37,0.17,0.75,0.35,1.12,0.52
		C81.28,99.87,80.65,101.25,80.02,102.62z M48.91,144.16c-1.36-1.75-2.28-2.93-3.75-4.83c0.64-1.28,1.61-3.23,2.59-5.18
		C49.63,137.35,50.75,140.38,48.91,144.16z M87.38,145.11c-0.34-0.07-0.68-0.15-1.02-0.22c0.22-0.93,0.43-1.86,0.65-2.8
		c0.3,0.06,0.6,0.13,0.9,0.19C87.74,143.23,87.56,144.17,87.38,145.11z M85.42,200.43c-0.31-1.63-0.62-3.25-0.93-4.88l1.58-0.39
		c0.31,1.65,0.63,3.3,0.94,4.95C86.48,200.22,85.95,200.32,85.42,200.43z M105.76,196.65c-0.36-1.76-0.71-3.52-1.07-5.28
		c0.48-0.11,0.96-0.22,1.44-0.33c0.44,1.75,0.87,3.51,1.31,5.26C106.89,196.41,106.32,196.53,105.76,196.65z M131.98,190.01v-5.78
		C134.32,186.1,134.1,188.05,131.98,190.01z M135.75,88.06c-0.48-0.15-0.95-0.3-1.43-0.44c0.58-1.55,1.17-3.1,1.75-4.66
		c0.44,0.14,0.88,0.29,1.32,0.43C136.85,84.95,136.3,86.51,135.75,88.06z M221.74,147.59c-16.26-6.86-31.49-15.07-40.73-31.13
		c-5.38-9.34-4.28-19.49,4.4-28.14c-1.32,3.31-2.42,5.54-3.11,7.89c-3.92,13.19,3.29,26.67,11.99,32.48
		c7.87,5.25,16.08,9.97,24.12,14.96c1.49,0.93,2.9,1.99,4.87,3.34C222.02,147.49,221.84,147.64,221.74,147.59z M208.61,76.73
		c0.75-3.31,7.15-5.79,14.86-4.77C217.86,73.76,213.09,75.29,208.61,76.73z M263.16,182.96c-0.49,7.08-2.26,13.72-7.36,19.06
		c-3.53,3.69-7.68,5.63-12.87,4.89c-0.33-0.53-0.67-1.07-1.18-1.88c0.68-0.24,1.28-0.68,1.8-0.6c5.74,0.86,9.47-2.05,12.43-6.47
		c3.03-4.54,4.36-9.59,4.61-15c0.26-5.63,0.61-11.26,1.01-16.89c0.07-1.01,0.54-2,0.83-2.99c0.35,0.01,0.7,0.03,1.05,0.04
		c0.16,1.15,0.49,2.31,0.45,3.45C263.73,172.04,263.54,177.51,263.16,182.96z"/>
</g>
</svg>
