<?xml version="1.0" encoding="utf-8"?>
<!-- Generator: Adobe Illustrator 23.0.1, SVG Export Plug-In . SVG Version: 6.00 Build 0)  -->
<svg version="1.1" id="Layer_1" xmlns="http://www.w3.org/2000/svg" xmlns:xlink="http://www.w3.org/1999/xlink" x="0px" y="0px"
	 viewBox="0 0 148.08 263.81" style="enable-background:new 0 0 148.08 263.81;" xml:space="preserve">
<style type="text/css">
	.st0{fill:#CA463C;stroke:#000000;stroke-width:4;stroke-linejoin:round;stroke-miterlimit:10;}
	.st1{fill:#CA463C;stroke:#000000;stroke-width:4;stroke-miterlimit:10;}
	.st2{fill:#F15F3C;stroke:#000000;stroke-width:4;stroke-linejoin:round;stroke-miterlimit:10;}
	.st3{fill:none;stroke:#000000;stroke-width:4;stroke-miterlimit:10;}
	.st4{fill:#5E1642;stroke:#000000;stroke-width:4;stroke-linejoin:round;stroke-miterlimit:10;}
	.st5{fill:#5E1642;}
	.st6{fill:#310E34;stroke:#000000;stroke-width:2;stroke-linejoin:round;stroke-miterlimit:10;}
	.st7{fill:#310E34;stroke:#000000;stroke-width:2;stroke-miterlimit:10;}
	.st8{fill:#CA463C;stroke:#000000;stroke-width:2;stroke-linejoin:round;stroke-miterlimit:10;}
	.st9{fill:none;stroke:#000000;stroke-width:2;stroke-miterlimit:10;}
	.st10{fill:#F15F3C;stroke:#000000;stroke-width:2;stroke-linejoin:round;stroke-miterlimit:10;}
	.st11{fill:#F15F3C;}
	.st12{fill:#310E34;}
	.st13{fill:none;stroke:#310E34;stroke-width:5;stroke-linecap:round;stroke-miterlimit:10;}
	.st14{fill:none;stroke:#310E34;stroke-width:5;stroke-linecap:round;stroke-linejoin:round;stroke-miterlimit:10;}
	.st15{fill:#CA463C;}
	.st16{fill:#972E41;}
	.st17{fill:none;stroke:#310E34;stroke-width:0.5653;stroke-linecap:round;stroke-miterlimit:10;}
	.st18{fill:none;stroke:#310E34;stroke-width:0.5653;stroke-linecap:round;stroke-linejoin:round;stroke-miterlimit:10;}
	.st19{fill:none;stroke:#5E1642;stroke-width:0.5561;stroke-linecap:round;stroke-miterlimit:10;}
	.st20{fill:none;stroke:#972E41;stroke-width:0.5561;stroke-linecap:round;stroke-miterlimit:10;}
	.st21{fill:none;stroke:#972E41;stroke-width:0.5561;stroke-linecap:round;stroke-linejoin:round;stroke-miterlimit:10;}
	.st22{fill:#972E41;stroke:#CA463C;stroke-width:0.25;stroke-miterlimit:10;}
	.st23{fill:#310E34;stroke:#5E1642;stroke-width:0.25;stroke-miterlimit:10;}
	.st24{fill:#F15F3C;stroke:#972E41;stroke-width:0.25;stroke-miterlimit:10;}
	.st25{fill:#310E34;stroke:#972E41;stroke-width:0.25;stroke-miterlimit:10;}
</style>
<g>
	<path class="st0" d="M32.36,125.92c-16.67,6.72-43.21,35.75-23.19,97.68c4.11-10.99,8.97-43.73,37.06-44.39"/>
	<g>
		<path class="st0" d="M115.72,125.92c16.67,6.72,43.21,35.75,23.19,97.68c-4.11-10.99-8.97-43.73-37.06-44.39"/>
		<line class="st1" x1="92.35" y1="215.35" x2="92.35" y2="239.33"/>
		<line class="st1" x1="92.35" y1="246.75" x2="92.35" y2="256.08"/>
	</g>
	<path class="st2" d="M75.32,2.21c-0.25-0.3-2.32-0.28-2.58,0.03C53.66,24.66,29.47,61.21,29.47,98.25
		c0,37.55,20.83,94.23,22.03,99.46c7.41,0,22.03,0,22.03,0h1.03c0,0,14.62,0,22.03,0c1.29-5.54,22.03-61.91,22.03-99.46
		C118.61,61.19,94.39,24.63,75.32,2.21z"/>
	<line class="st3" x1="55.73" y1="215.35" x2="55.73" y2="239.33"/>
	<line class="st3" x1="55.73" y1="246.75" x2="55.73" y2="256.08"/>
	<line class="st3" x1="74.04" y1="215.35" x2="74.04" y2="247.06"/>
	<line class="st3" x1="74.04" y1="254.48" x2="74.04" y2="263.81"/>
	<polyline class="st3" points="44.66,174.12 73.52,174.12 74.56,174.12 103.42,174.12 	"/>
	<path class="st3" d="M50.48,33.01c0,0,3.34,4.59,23.04,4.59h1.03c19.7,0,23.04-4.59,23.04-4.59"/>
	<circle class="st4" cx="74.04" cy="77.32" r="18.31"/>
</g>
</svg>
